<svg version="1.1" id="Layer_1" xmlns="http://www.w3.org/2000/svg" x="0" y="0" width="639.1" height="218.2" xml:space="preserve"><style>.st0{fill:#2e2e2e}.st1{fill:#98bfdf}.st2{fill:#516d76}</style><path class="st0" d="M513.2 203.8c-.3.5-.5 1.1-.9 1.5-7.3 7.2-19.2 7.8-26.2 4.5-6.1-3-9.4-7.9-9.2-14.7.2-7 3.7-12 10.2-14.5 3.1-1.2 6.6-1.5 9.9-2 3.3-.5 6.8-.7 10.1-1.4 4.1-.9 5.7-2.7 6.1-6.3.3-2.9-.7-5.4-3.2-7-1.6-1-3.4-1.9-5.3-2.3-4.2-.8-8.5-.7-12.5 1.3-1.4.7-2.6 1.7-3.9 2.5 0 .1.1.3.1.4.2 0 .4.1.7.1 2.4 0 4.2.8 5.2 3.1s.4 5.1-1.5 6.9c-2.3 2.1-4.9 2.6-7.8 1.5-3.2-1.2-4.9-3.7-5.1-7-.3-4.4 1.5-7.9 4.8-10.6 5.5-4.5 11.9-5.6 18.7-5 4.5.4 8.7 1.7 12 5 3.7 3.7 4.8 8.3 4.9 13.3.1 8.5 0 16.9.1 25.4 0 1.5.3 3 .6 4.4.3 1.5 1.3 2.3 2.9 2.2 1.5-.1 2.5-1 2.6-2.4.2-2 .2-4 .3-5.9.1-1.4 0-2.9.3-4.3.3-1.8 1.7-2.8 3.3-2.8 1.6 0 3 1 3.2 2.8.5 5 .6 9.9-1.9 14.5-2.1 3.9-5.6 4.9-9.7 4.6-3.7-.3-6.3-2.2-7.8-5.6-.3-.6-.5-1.2-.7-1.8 0-.2-.1-.3-.3-.4zm.1-21.6c-2.6.8-5.1 1.7-7.7 2.2-3.7.6-7.5.9-11.2 1.3-2.6.3-5.1.9-7.1 2.7-2.9 2.5-3.7 5.8-2.8 9.4 1 4 4 6.1 7.8 6.9 7 1.5 12.9-.6 17.5-6.3 3.9-4.8 3.7-10.6 3.5-16.2zM300.8 71.5V56.4c0-1.7-1.3-1.4-2.4-1.4-2.2 0-4.3.2-6.5.3-1.5 0-2.8-.6-3.4-2-.9-2.2.6-4.6 3.1-4.7 4.2-.1 8.4-.1 12.6 0 2.2 0 3.5 1.4 3.6 3.6V54c0 18.9 0 37.8.1 56.8 0 1.3.2 2.7.2 4 0 1.4.7 1.8 1.9 1.6 1.7-.2 3.3-.5 5-.7.9-.1 1.8-.1 2.7.1 1.8.4 2.8 1.8 2.7 3.5-.1 1.7-1.2 3.2-3 3.2-4.3.1-8.6.2-12.9 0-1.9-.1-2.8-1.4-3.5-4.6-.7.6-1.4 1.2-2.1 1.7-10.6 7.9-26.4 4.5-33.4-7.2-3.5-5.8-4.5-12.2-4.1-18.8.4-7.4 3-14 8.1-19.6 7.2-7.7 18.4-8.8 26.2-5.5 1.9.9 3.6 2.1 5.1 3zm.6 24c-.4-3.4-.6-7.3-1.2-11.2-.9-5.2-3.7-8.9-9-10.4-6.7-1.9-13.6.5-17.9 6.3-3 4.1-4.4 8.7-4.7 13.7-.4 6.2.6 12.1 4.6 17.2 4.3 5.4 10 7.2 16.6 5.6 6.3-1.6 9.8-6 10.8-12.3.4-2.7.5-5.6.8-8.9zM428.7 184.4c-.7 8.8 4.2 18 12.9 20.2 8.3 2.1 16.7-1.2 20.1-8.1.6-1.1.8-2.4 1.2-3.7.2-.8.4-1.6.7-2.3.7-1.6 2.3-2.5 3.9-2.2 1.6.3 2.8 1.6 2.7 3.5-.1 1.5-.4 3-.9 4.4-3 8.9-11 14.9-20.4 15.4-8.4.5-15.7-1.7-21.3-8.2-3.5-4.1-5.4-9-6.1-14.4-.9-7.7-.2-15.2 3.9-22 5.4-8.9 13.4-13.1 23.7-12.2 10.4.9 17.1 7 20.4 16.7.8 2.3 1 4.8 1.2 7.3.2 3.9-1.5 5.5-5.4 5.5h-28c-2.7.1-5.6.1-8.6.1zm34.8-6.8c.8-7.6-6.9-15.9-15.1-16.2-10.3-.4-19.4 7.2-19.1 16.2h34.2zM435.5 119.3c-.3 3.5-2.5 5.3-5.1 4.2-1.6-.7-2.4-2.4-2.3-4.6.2-5.2.4-10.3.5-15.5 0-1.5-.3-3-.4-4.5-.2-2.3 1-4.1 3.1-4.4 1.9-.3 3.6.9 3.9 3.2.2 1.7 0 3.5 0 5.3-.2 8 4.3 13.2 12.4 13.9 3.4.3 6.9.3 10.2-1 4.9-1.9 7.2-5.3 6.9-10.2-.2-2.4-1.2-4.4-3.5-5.1-3.2-1-6.5-1.7-9.8-2.4-3.6-.7-7.2-1.1-10.8-1.8-11.2-2.2-13.5-15.2-7.3-22.7 3.6-4.3 8.3-6.6 13.9-6.9 6.7-.4 8.9.3 15.4 4.2.1-.3.3-.5.4-.8.6-2.2 1.9-3.3 3.7-3 1.9.3 3 2 2.9 4.2-.2 5.1-.3 10.1-.4 15.2 0 1 .1 2.1 0 3-.3 1.8-1.7 2.8-3.5 2.7-1.6 0-3-1.2-3.2-2.8-.1-.8-.1-1.6 0-2.4 1.4-6.6-3.1-13.1-11.2-13.8-3.7-.3-7.2.2-10.3 2.3-3.1 2.1-4.3 5.1-3.8 8.8.3 2.1 1.3 3.8 3.4 4.3 3.6.9 7.2 1.5 10.9 2.3 3.6.7 7.3 1.2 10.9 2.2 8.3 2.3 11 9.2 9.2 16.5-1.8 7.8-7.5 11.7-14.9 13.3-7.5 1.8-14.7.9-21.2-3.7zM322.6 184.4c-1.8 11.9 8.6 22.3 20.3 20.6 5.1-.8 9.2-3 11.9-7.4.9-1.5 1.3-3.3 1.9-4.9.2-.6.2-1.2.4-1.7.7-2.1 2.5-3.1 4.4-2.6 1.8.5 2.8 2.2 2.5 4.3-1.2 7.1-4.9 12.5-11.2 15.9-12.8 6.9-33.3 3.1-37.1-18.1-1.6-9-.6-17.7 4.8-25.3 6.1-8.6 14.7-11.9 24.9-10 10 1.8 16.1 8.4 18.6 18.2.6 2.3.5 4.8.5 7.2 0 2-1.1 3.1-3.1 3.6-.9.2-1.9.3-2.9.3h-34.1c-.6-.1-1.2-.1-1.8-.1zm.3-6.9h34.4c.4-7.4-6.7-15.4-13.9-16.1-13.1-1.4-19.1 7.5-20.5 16.1zM487 96.6c-.5 9.5 4.7 18.7 14 20.3 8.3 1.4 15.5-1.1 19.2-8.7.6-1.2.8-2.7 1.2-4 .2-.7.4-1.4.7-2 .8-1.5 2.4-2.1 4-1.7 1.6.4 2.5 1.6 2.5 3.3-.1 4.4-1.9 8.2-4.6 11.5-5.6 6.8-13.1 9.1-21.7 8.4-13.2-1.1-21-11.4-22.3-22.8-.9-8.6.1-16.7 5.3-23.9 6.3-8.7 15.2-11.7 25.5-9.6 9.8 2.1 15.6 8.7 17.9 18.3.5 2.1.5 4.3.5 6.4 0 2.5-1.4 3.9-3.8 4.2-1.1.1-2.3.2-3.4.2h-33c-.6.1-1.3.1-2 .1zm35-6.8c0-9-7.6-16.3-16.7-16.4-10.5-.1-16.8 8-17.8 16.4H522zM581.5 207.2c-.1.8-.1 1.6-.4 2.2-.8 1.8-2.2 2.5-4 2.2-1.6-.3-2.8-1.6-2.8-3.5 0-2 .3-4 .3-6 0-4.8-.2-9.6-.3-14.3 0-1-.1-1.9.1-2.9.4-1.6 1.6-2.4 3.2-2.4s3 .7 3.3 2.3c.3 2 .3 4.1.2 6.1-.4 6.8 2.6 11.4 9.1 13.4 4.7 1.4 9.4 1.3 13.9-.5s6.8-5.3 6.5-9.9c-.2-2.5-1.2-4.6-3.6-5.3-3.6-1.1-7.4-1.8-11.1-2.6-3.2-.6-6.4-1-9.5-1.6-10-2-13.4-13.2-8.3-21.1 3.8-5.9 9.5-8.3 16.3-8.6 5.2-.2 10 1.1 14.2 4.5.2-.6.3-1 .4-1.4.6-2 1.8-2.8 3.7-2.6 1.6.2 2.8 1.5 2.8 3.4 0 1.8-.4 3.5-.4 5.3 0 4.1 0 8.2.1 12.3 0 2.1-.8 3.5-2.4 3.9-2.6.7-4.7-1.2-4.5-4.1.1-1.4.5-2.9.3-4.3-.7-5.5-3.9-9-9.4-10.1-3.9-.8-7.8-.6-11.5 1.5-3.6 2.1-5.2 5.3-4.6 9.3.3 2.2 1.4 3.9 3.5 4.4 3 .8 6.1 1.4 9.1 2 3.9.7 7.9 1.1 11.7 2.1 9.5 2.6 13.2 11.4 8.9 20.2-1.8 3.7-4.7 6.4-8.4 8-7.9 3.5-15.8 3.4-23.6-.3-.9-.4-1.8-1-2.8-1.6zM371.7 94.1c-.1 9.6-2.4 16.9-8.4 22.9-10.4 10.3-33.6 10.8-41.7-9.6-2.9-7.4-3.1-15-.8-22.7 3.5-11.7 13.4-18.3 26.4-17.8 11.3.4 21 8.7 23.4 20.2.6 2.7.9 5.5 1.1 7zm-7.3 1.3c.1-3.2-.5-6.7-1.7-10-2.8-7.3-8.9-11.8-16.3-12-8.1-.3-14.5 3.3-17.5 10.5-3.4 8-3.2 16.1.6 23.9 6 12.2 21.9 11.6 28.8 4.5 4.5-4.6 6.2-10.3 6.1-16.9zM301.4 170.9c-.2-2.7-1.5-4.6-3.4-6.2-6.1-5.3-19.5-4.8-25.5 3.8-2.6 3.7-4.1 7.9-4.2 12.4-.1 3.4 0 6.9.7 10.3 2.1 9.2 9 14.3 18.4 14.1 5.9-.1 10.8-2.2 13.5-7.7.8-1.6 1.1-3.5 1.4-5.2.5-2.4 1.7-3.7 3.8-3.6 1.9.1 3.2 1.6 3.3 3.9.1 5-2 9.1-5.3 12.6-3.8 4.1-8.7 6.1-14.2 6.4-6.9.5-13.3-.7-18.9-5.1-5.8-4.6-8.9-10.7-9.8-17.9-.9-8.1 0-16 4.8-22.9 6-8.6 14.3-11.8 24.5-10.8 5.4.5 10.1 2.6 13.8 6.6 3.6 4 5 8.6 3.6 13.9-1.2 4.4-5.2 6.9-9.3 6.1-3.4-.6-5.3-3.3-4.8-6.7.5-3.2 3.1-4.9 6.6-4.2.3 0 .6 0 1 .2zM415.5 81.2c.8-3.2-2.2-6.2-4.8-7.2-7.8-2.8-15.3 1.5-17 9.8-.4 2-.7 4.1-.7 6.1 0 7.8.1 15.5.3 23.3 0 2.4.6 2.9 3.1 2.9 1.8 0 3.7 0 5.5.1 2.2.1 3.6 1.4 3.6 3.2.1 1.8-1.4 3.4-3.5 3.5-1.9.1-3.8-.2-5.6-.2-6.1 0-12.1.1-18.2.2-.6 0-1.2.1-1.8 0-2.1-.3-3.3-1.5-3.3-3.3 0-1.7 1.4-3.1 3.4-3.2 1.9-.1 3.8-.1 5.7-.1 2.6 0 3-.3 3.2-2.9.2-2.7.3-5.5.3-8.2 0-9.2 0-18.3-.1-27.5 0-2.9-.2-2.9-3-2.8-1.6 0-3.1.2-4.7.2-.9 0-1.8-.1-2.7-.4-1.6-.5-2.4-2-2.2-3.6.2-1.6 1.3-2.8 2.9-3 1.4-.1 2.8 0 4.2 0 2 0 4.1.1 6.1 0 4.5-.3 5-.1 6.9 3.9 2.8-2.5 6-4.3 9.7-4.8 7.5-1.1 14.1.8 17.9 6.8 2.7 4.3 2.7 10.7-.2 14.5-2 2.8-5.2 4-8.4 3.1-3-.8-4.4-3.4-3.8-6.9.5-2.6 3-4.1 6-3.6.6.1.9.1 1.2.1zM410.4 169.2c.4-2.8-.9-5.1-3.5-6.6-5.3-3.1-13.7-1-16.6 4.5-1.1 2.1-2 4.6-2.1 6.9-.2 9.2-.1 18.4-.1 27.6 0 1.9.6 2.3 2.5 2.3h4.5c.7 0 1.5.1 2.2.2 1.9.4 2.9 1.7 2.8 3.4-.1 1.6-1.4 3-3.2 3.1-2.7 0-5.4-.3-8.1-.3-4.6 0-9.1.1-13.7.2-1.5 0-2.9.2-4.4.1-1.8-.1-2.9-1.3-3.1-3-.2-1.5.9-3.2 2.6-3.4 2.2-.3 4.5-.3 6.8-.3 2.3-.1 2.7-.3 2.8-2.5.3-4 .5-7.9.5-11.9.1-6.7 0-13.5 0-20.2 0-1.6-.2-3.2-.3-4.8-.1-1.3-.6-2.1-2.1-1.9-1.5.2-3.1.2-4.7.2-1.1 0-2.3 0-3.3-.3-1.6-.4-2.4-1.8-2.4-3.3.1-1.6 1.1-2.9 2.7-3.2 1-.2 2.1-.1 3.2-.1 2.6 0 5.2.2 7.7.1 4.2-.3 5.1.2 6.5 4 2.6-2.4 5.6-4.1 9.1-4.7 6.7-1.2 12.9-.3 17.5 5.2 3.6 4.3 4 9.3 1.9 14.4-1.6 3.7-5 5.5-8.7 4.9-3.3-.6-5.1-3.3-4.4-6.9.5-2.7 3.2-4.3 6.2-3.7.7-.2.9-.1 1.2 0zM547.6 67.9h10.1c.8 0 1.6 0 2.4.1 1.7.3 2.8 1.6 2.9 3.2.1 1.8-.9 3.1-2.7 3.5-1.1.2-2.4.2-3.5.2-2.6-.1-5.2-.2-7.7-.4-1-.1-1.3.3-1.3 1.3 0 9.4 0 18.8.1 28.1.1 3 .5 6 1.2 8.9.8 3.3 2.7 4.4 6.2 4.4 3.4 0 5.2-1.2 6-4.5.6-2.6.8-5.3 1-8 .2-2.1 0-4.3.3-6.4.3-1.9 1.7-2.7 3.7-2.6 1.6.1 3 1.2 3.1 3 .3 5.7.4 11.4-1.3 16.8-2.2 6.8-8.5 9-14.9 8.2-6.5-.8-10.5-4.9-11.8-11.9-.5-2.6-.7-5.2-.7-7.9-.1-9.1 0-18.2 0-27.3 0-2.2 0-2.2-2.1-2-1.3.1-2.6.3-3.9.3-.6 0-1.3-.1-1.9-.3-1.7-.5-2.6-2-2.4-3.7.1-1.6 1.3-2.9 3.1-2.9 1.7-.1 3.4.1 5.2.2 2.1.2 2.6-.3 2.7-2.3.1-2.4 0-4.8.3-7.1.3-2.6 1.9-3.8 4-3.4 1.9.3 2.9 2.1 2.7 4.5-.5 2.6-.6 5.4-.8 8zM556.1 169.6v27c0 1.7.2 3.3.3 5 .1 1.6.9 2.3 2.5 2.3 1.6-.1 3.1 0 4.7 0h1.1c2.5.3 4 1.6 3.8 3.5-.1 2-1.7 3.3-4.2 3.2-3.8-.1-7.5-.6-11.3-.6-4.3 0-8.6.4-12.9.6-2.9.1-4.6-2-3.8-4.4.5-1.5 1.8-2.2 3.2-2.3 2-.2 4-.1 6-.1 2.3 0 2.6-.3 2.8-2.6.2-2.7.4-5.4.4-8.1v-42.8c0-1.9-.1-3.9-.2-5.8 0-1.2-.6-1.7-1.9-1.6-2.3.2-4.5.3-6.8.4-2 0-3.2-.9-3.6-2.6-.5-2.1.7-4.1 2.9-4.2 4.5-.1 9.1-.1 13.6 0 1.6 0 2.8 1.2 3.1 2.8.2 1.1.3 2.1.3 3.2 0 9.1-.1 18.1 0 27.1zM629.4 136.4c2.7 0 5 .9 6.9 2.8 1.9 1.9 2.8 4.2 2.8 6.9s-.9 4.9-2.8 6.9c-1.9 1.9-4.2 2.9-6.9 2.9s-4.9-1-6.9-2.9c-1.9-1.9-2.9-4.2-2.9-6.9s1-5 2.9-6.9c2-1.8 4.3-2.8 6.9-2.8zm0 18c2.3 0 4.3-.8 5.9-2.4 1.6-1.6 2.4-3.6 2.4-5.8 0-2.3-.8-4.3-2.4-5.9-1.6-1.6-3.6-2.4-5.9-2.4-2.3 0-4.2.8-5.8 2.4-1.6 1.6-2.4 3.6-2.4 5.9 0 2.3.8 4.2 2.4 5.8 1.6 1.6 3.5 2.4 5.8 2.4zm3.9-10.8c0 1.1-.5 1.8-1.4 2.2.5.4.8 1.1.8 2.1v.9c0 .5.1.7.3.7.2 0 .3-.3.3-.9v-1c0-.7.3-1.1.8-1.1.6 0 .8.3.8.8V149c0 1.3-.7 2-2 2s-1.9-.6-1.9-1.9V147.9c0-.6-.1-.9-.3-1-.2-.1-.6-.2-1.2-.2h-1.3c-.1 0-.1 0-.1.1v2c0 .5.1.8.4.8H629.1c.5 0 .7.2.7.7 0 .5-.3.8-.9.8h-.2l-.7-.1c-.1 0-.2 0-.4-.1h-.3c-.1 0-.2 0-.4.1h-.5l-.7.1h-.3c-.6 0-.9-.3-.9-.8s.2-.8.7-.8H625.8c.3 0 .4-.2.4-.7v-5.6c0-.1 0-.3-.1-.5 0 0 0-.1-.1-.1 0-.1-.1-.1-.3-.1h-.2c-.1 0-.3.1-.4.1-.5 0-.7-.3-.7-.8s.3-.8.9-.8h.2l.7.1h.6s.3 0 1-.1h1c.2 0 .6-.1 1-.1 2.4 0 3.5.9 3.5 2.7zm-5.3-.7v2H629.4c1.4 0 2.1-.5 2.1-1.4 0-.8-.6-1.3-1.8-1.3-1.1.2-1.7.4-1.7.7z"/><g><path class="st1" d="M222.6 147.7c-.1 15.4-5.1 29-14.3 41.1-7 9.2-15.8 16.1-26 21.3-7.5 3.8-15.4 6.3-23.7 7.4-13.7 1.7-26.9-.1-39.4-6.2-2.9-1.4-5.5-3.3-8.3-4.8-1.6-.9-1.4-2.4-1.5-3.7-.7-15.7 3.7-29.9 12.8-42.7 7.7-10.8 17.6-18.9 29.5-24.5 7.2-3.4 14.8-5.7 22.8-6.4 3.7-.3 7.5-.7 11.2-.5 11.4.4 22.2 3.4 32 9.3.9.6 1.8 1.3 2.8 1.7 1.8.8 2.2 2.3 2.2 4.1-.1 1.3-.1 2.6-.1 3.9z"/><path class="st2" d="M92.9 162c0 1.5.1 3.1-.1 4.6-.1.6-.6 1.2-1.1 1.6-7.2 5.1-15.3 8.1-24.1 9.2-24.1 3-48.6-9.4-60.5-30.6-5.4-9.6-7.8-19.9-7-30.9 0-.7.5-1.5 1.1-1.9 10.9-7.6 23-10.5 36.2-9.4 14.9 1.2 27.7 7.2 38.3 17.7C86.5 132.8 92.6 145.7 93 161v.6c0 .1 0 .3.1.4h-.2z"/><path d="M181.4 82.6c-.8 18.1-9.6 31.2-25.3 39.8-6.9 3.8-14.3 5.5-22.2 5.5-8.7 0-16.9-2.4-24.1-7.4-.6-.4-1.1-1.2-1.1-1.8-.8-10.4 2-19.8 8.1-28.1 8.8-12.2 20.9-18.9 35.8-20.1 9.7-.8 18.8 1.5 27.1 6.8 1.3.8 1.9 1.7 1.8 3.2-.2.6-.1 1.4-.1 2.1z" fill="#5d3428"/><path class="st1" d="M71.3 94.9c-11.7-.1-21.3-4-29.6-11.4-7.4-6.6-11.8-14.8-13.3-24.6-.4-2.8-.2-5.7-.1-8.5 0-.5.6-1.1 1.1-1.5 5-3.4 10.5-5.6 16.5-6.3C57.8 41.1 68.6 44 78 51.2 86.9 58 92.5 66.8 94.1 78c.4 2.8.3 5.7.3 8.6 0 .4-.4 1.1-.7 1.3-5 3.6-10.6 5.9-16.7 6.6-2.1.2-4.2.3-5.7.4z"/><path class="st2" d="M123.5 66c-5.2-.3-9.9-1.6-14.2-4.4-.8-.5-1.2-1.2-1.2-2.2-.3-12.6 8.4-24 21.1-27.2 7.4-1.9 14.5-1.1 21.1 3 1 .6 1.4 1.3 1.4 2.5.3 12.1-8 23.2-20.3 26.8-2.5.7-5.3 1-7.9 1.5z"/><path d="M105.2 27.9c.1 2.4-.6 5.6-1.9 8.7-.4.9-.9 1.3-1.8 1.5-12.6 2.6-25.7-5-30.2-17.8-2.2-6.1-2.1-12.2.4-18.3.4-1 1-1.4 2-1.6 10.5-1.8 19 1.9 25.7 10 3.9 4.8 5.8 10.4 5.8 17.5z" fill="#5d3529"/><path d="M104.3 205.8h-.3c-2.4-.7-3.2-2.1-3.2-4.7.2-51.8.2-103.6.2-155.5 0-3.3 0-3.3 3.3-4.6v164.8z" fill="#653e32"/></g></svg>