<?xml version="1.0" encoding="utf-8"?>
<!-- Generator: Adobe Illustrator 22.1.0, SVG Export Plug-In . SVG Version: 6.00 Build 0)  -->
<svg version="1.1" id="Layer_1" xmlns="http://www.w3.org/2000/svg" xmlns:xlink="http://www.w3.org/1999/xlink" x="0px" y="0px"
	 width="639.1px" height="218.2px" viewBox="0 0 639.1 218.2" style="enable-background:new 0 0 639.1 218.2;" xml:space="preserve"
	>
<style type="text/css">
	.st0{fill:#FFFFFF;}
	.st1{fill:#98BFDF;}
	.st2{fill:#516D76;}
	.st3{fill:#5D3428;}
	.st4{fill:#5D3529;}
	.st5{fill:#653E32;}
</style>
<g>
	<g>
		<path class="st0" d="M513.2,203.8c-0.3,0.5-0.5,1.1-0.9,1.5c-7.3,7.2-19.2,7.8-26.2,4.5c-6.1-3-9.4-7.9-9.2-14.7
			c0.2-7,3.7-12,10.2-14.5c3.1-1.2,6.6-1.5,9.9-2c3.3-0.5,6.8-0.7,10.1-1.4c4.1-0.9,5.7-2.7,6.1-6.3c0.3-2.9-0.7-5.4-3.2-7
			c-1.6-1-3.4-1.9-5.3-2.3c-4.2-0.8-8.5-0.7-12.5,1.3c-1.4,0.7-2.6,1.7-3.9,2.5c0,0.1,0.1,0.3,0.1,0.4c0.2,0,0.4,0.1,0.7,0.1
			c2.4,0,4.2,0.8,5.2,3.1c1,2.3,0.4,5.1-1.5,6.9c-2.3,2.1-4.9,2.6-7.8,1.5c-3.2-1.2-4.9-3.7-5.1-7c-0.3-4.4,1.5-7.9,4.8-10.6
			c5.5-4.5,11.9-5.6,18.7-5c4.5,0.4,8.7,1.7,12,5c3.7,3.7,4.8,8.3,4.9,13.3c0.1,8.5,0,16.9,0.1,25.4c0,1.5,0.3,3,0.6,4.4
			c0.3,1.5,1.3,2.3,2.9,2.2c1.5-0.1,2.5-1,2.6-2.4c0.2-2,0.2-4,0.3-5.9c0.1-1.4,0-2.9,0.3-4.3c0.3-1.8,1.7-2.8,3.3-2.8
			c1.6,0,3,1,3.2,2.8c0.5,5,0.6,9.9-1.9,14.5c-2.1,3.9-5.6,4.9-9.7,4.6c-3.7-0.3-6.3-2.2-7.8-5.6c-0.3-0.6-0.5-1.2-0.7-1.8
			C513.5,204,513.4,203.9,513.2,203.8z M513.3,182.2c-2.6,0.8-5.1,1.7-7.7,2.2c-3.7,0.6-7.5,0.9-11.2,1.3c-2.6,0.3-5.1,0.9-7.1,2.7
			c-2.9,2.5-3.7,5.8-2.8,9.4c1,4,4,6.1,7.8,6.9c7,1.5,12.9-0.6,17.5-6.3C513.7,193.6,513.5,187.8,513.3,182.2z"/>
		<path class="st0" d="M300.8,71.5c0-4.9,0-10,0-15.1c0-1.7-1.3-1.4-2.4-1.4c-2.2,0-4.3,0.2-6.5,0.3c-1.5,0-2.8-0.6-3.4-2
			c-0.9-2.2,0.6-4.6,3.1-4.7c4.2-0.1,8.4-0.1,12.6,0c2.2,0,3.5,1.4,3.6,3.6c0,0.6,0,1.2,0,1.8c0,18.9,0,37.8,0.1,56.8
			c0,1.3,0.2,2.7,0.2,4c0,1.4,0.7,1.8,1.9,1.6c1.7-0.2,3.3-0.5,5-0.7c0.9-0.1,1.8-0.1,2.7,0.1c1.8,0.4,2.8,1.8,2.7,3.5
			c-0.1,1.7-1.2,3.2-3,3.2c-4.3,0.1-8.6,0.2-12.9,0c-1.9-0.1-2.8-1.4-3.5-4.6c-0.7,0.6-1.4,1.2-2.1,1.7c-10.6,7.9-26.4,4.5-33.4-7.2
			c-3.5-5.8-4.5-12.2-4.1-18.8c0.4-7.4,3-14,8.1-19.6c7.2-7.7,18.4-8.8,26.2-5.5C297.6,69.4,299.3,70.6,300.8,71.5z M301.4,95.5
			c-0.4-3.4-0.6-7.3-1.2-11.2c-0.9-5.2-3.7-8.9-9-10.4c-6.7-1.9-13.6,0.5-17.9,6.3c-3,4.1-4.4,8.7-4.7,13.7
			c-0.4,6.2,0.6,12.1,4.6,17.2c4.3,5.4,10,7.2,16.6,5.6c6.3-1.6,9.8-6,10.8-12.3C301,101.7,301.1,98.8,301.4,95.5z"/>
		<path class="st0" d="M428.7,184.4c-0.7,8.8,4.2,18,12.9,20.2c8.3,2.1,16.7-1.2,20.1-8.1c0.6-1.1,0.8-2.4,1.2-3.7
			c0.2-0.8,0.4-1.6,0.7-2.3c0.7-1.6,2.3-2.5,3.9-2.2c1.6,0.3,2.8,1.6,2.7,3.5c-0.1,1.5-0.4,3-0.9,4.4c-3,8.9-11,14.9-20.4,15.4
			c-8.4,0.5-15.7-1.7-21.3-8.2c-3.5-4.1-5.4-9-6.1-14.4c-0.9-7.7-0.2-15.2,3.9-22c5.4-8.9,13.4-13.1,23.7-12.2
			c10.4,0.9,17.1,7,20.4,16.7c0.8,2.3,1,4.8,1.2,7.3c0.2,3.9-1.5,5.5-5.4,5.5c-9.3,0-18.6,0-28,0
			C434.6,184.4,431.7,184.4,428.7,184.4z M463.5,177.6c0.8-7.6-6.9-15.9-15.1-16.2c-10.3-0.4-19.4,7.2-19.1,16.2
			C440.7,177.6,452.1,177.6,463.5,177.6z"/>
		<path class="st0" d="M435.5,119.3c-0.3,3.5-2.5,5.3-5.1,4.2c-1.6-0.7-2.4-2.4-2.3-4.6c0.2-5.2,0.4-10.3,0.5-15.5
			c0-1.5-0.3-3-0.4-4.5c-0.2-2.3,1-4.1,3.1-4.4c1.9-0.3,3.6,0.9,3.9,3.2c0.2,1.7,0,3.5,0,5.3c-0.2,8,4.3,13.2,12.4,13.9
			c3.4,0.3,6.9,0.3,10.2-1c4.9-1.9,7.2-5.3,6.9-10.2c-0.2-2.4-1.2-4.4-3.5-5.1c-3.2-1-6.5-1.7-9.8-2.4c-3.6-0.7-7.2-1.1-10.8-1.8
			c-11.2-2.2-13.5-15.2-7.3-22.7c3.6-4.3,8.3-6.6,13.9-6.9c6.7-0.4,8.9,0.3,15.4,4.2c0.1-0.3,0.3-0.5,0.4-0.8c0.6-2.2,1.9-3.3,3.7-3
			c1.9,0.3,3,2,2.9,4.2c-0.2,5.1-0.3,10.1-0.4,15.2c0,1,0.1,2.1,0,3c-0.3,1.8-1.7,2.8-3.5,2.7c-1.6,0-3-1.2-3.2-2.8
			c-0.1-0.8-0.1-1.6,0-2.4c1.4-6.6-3.1-13.1-11.2-13.8c-3.7-0.3-7.2,0.2-10.3,2.3c-3.1,2.1-4.3,5.1-3.8,8.8c0.3,2.1,1.3,3.8,3.4,4.3
			c3.6,0.9,7.2,1.5,10.9,2.3c3.6,0.7,7.3,1.2,10.9,2.2c8.3,2.3,11,9.2,9.2,16.5c-1.8,7.8-7.5,11.7-14.9,13.3
			C449.2,124.8,442,123.9,435.5,119.3z"/>
		<path class="st0" d="M322.6,184.4c-1.8,11.9,8.6,22.3,20.3,20.6c5.1-0.8,9.2-3,11.9-7.4c0.9-1.5,1.3-3.3,1.9-4.9
			c0.2-0.6,0.2-1.2,0.4-1.7c0.7-2.1,2.5-3.1,4.4-2.6c1.8,0.5,2.8,2.2,2.5,4.3c-1.2,7.1-4.9,12.5-11.2,15.9
			c-12.8,6.9-33.3,3.1-37.1-18.1c-1.6-9-0.6-17.7,4.8-25.3c6.1-8.6,14.7-11.9,24.9-10c10,1.8,16.1,8.4,18.6,18.2
			c0.6,2.3,0.5,4.8,0.5,7.2c0,2-1.1,3.1-3.1,3.6c-0.9,0.2-1.9,0.3-2.9,0.3c-11.4,0-22.7,0-34.1,0
			C323.8,184.4,323.2,184.4,322.6,184.4z M322.9,177.5c11.5,0,23,0,34.4,0c0.4-7.4-6.7-15.4-13.9-16.1
			C330.3,160,324.3,168.9,322.9,177.5z"/>
		<path class="st0" d="M487,96.6c-0.5,9.5,4.7,18.7,14,20.3c8.3,1.4,15.5-1.1,19.2-8.7c0.6-1.2,0.8-2.7,1.2-4c0.2-0.7,0.4-1.4,0.7-2
			c0.8-1.5,2.4-2.1,4-1.7c1.6,0.4,2.5,1.6,2.5,3.3c-0.1,4.4-1.9,8.2-4.6,11.5c-5.6,6.8-13.1,9.1-21.7,8.4
			c-13.2-1.1-21-11.4-22.3-22.8c-0.9-8.6,0.1-16.7,5.3-23.9c6.3-8.7,15.2-11.7,25.5-9.6c9.8,2.1,15.6,8.7,17.9,18.3
			c0.5,2.1,0.5,4.3,0.5,6.4c0,2.5-1.4,3.9-3.8,4.2c-1.1,0.1-2.3,0.2-3.4,0.2c-11,0-22,0-33,0C488.4,96.6,487.7,96.6,487,96.6z
			 M522,89.8c0-9-7.6-16.3-16.7-16.4c-10.5-0.1-16.8,8-17.8,16.4C499,89.8,510.5,89.8,522,89.8z"/>
		<path class="st0" d="M581.5,207.2c-0.1,0.8-0.1,1.6-0.4,2.2c-0.8,1.8-2.2,2.5-4,2.2c-1.6-0.3-2.8-1.6-2.8-3.5c0-2,0.3-4,0.3-6
			c0-4.8-0.2-9.6-0.3-14.3c0-1-0.1-1.9,0.1-2.9c0.4-1.6,1.6-2.4,3.2-2.4c1.6,0,3,0.7,3.3,2.3c0.3,2,0.3,4.1,0.2,6.1
			c-0.4,6.8,2.6,11.4,9.1,13.4c4.7,1.4,9.4,1.3,13.9-0.5c4.5-1.8,6.8-5.3,6.5-9.9c-0.2-2.5-1.2-4.6-3.6-5.3
			c-3.6-1.1-7.4-1.8-11.1-2.6c-3.2-0.6-6.4-1-9.5-1.6c-10-2-13.4-13.2-8.3-21.1c3.8-5.9,9.5-8.3,16.3-8.6c5.2-0.2,10,1.1,14.2,4.5
			c0.2-0.6,0.3-1,0.4-1.4c0.6-2,1.8-2.8,3.7-2.6c1.6,0.2,2.8,1.5,2.8,3.4c0,1.8-0.4,3.5-0.4,5.3c0,4.1,0,8.2,0.1,12.3
			c0,2.1-0.8,3.5-2.4,3.9c-2.6,0.7-4.7-1.2-4.5-4.1c0.1-1.4,0.5-2.9,0.3-4.3c-0.7-5.5-3.9-9-9.4-10.1c-3.9-0.8-7.8-0.6-11.5,1.5
			c-3.6,2.1-5.2,5.3-4.6,9.3c0.3,2.2,1.4,3.9,3.5,4.4c3,0.8,6.1,1.4,9.1,2c3.9,0.7,7.9,1.1,11.7,2.1c9.5,2.6,13.2,11.4,8.9,20.2
			c-1.8,3.7-4.7,6.4-8.4,8c-7.9,3.5-15.8,3.4-23.6-0.3C583.4,208.4,582.5,207.8,581.5,207.2z"/>
		<path class="st0" d="M371.7,94.1c-0.1,9.6-2.4,16.9-8.4,22.9c-10.4,10.3-33.6,10.8-41.7-9.6c-2.9-7.4-3.1-15-0.8-22.7
			c3.5-11.7,13.4-18.3,26.4-17.8c11.3,0.4,21,8.7,23.4,20.2C371.2,89.8,371.5,92.6,371.7,94.1z M364.4,95.4c0.1-3.2-0.5-6.7-1.7-10
			c-2.8-7.3-8.9-11.8-16.3-12c-8.1-0.3-14.5,3.3-17.5,10.5c-3.4,8-3.2,16.1,0.6,23.9c6,12.2,21.9,11.6,28.8,4.5
			C362.8,107.7,364.5,102,364.4,95.4z"/>
		<path class="st0" d="M301.4,170.9c-0.2-2.7-1.5-4.6-3.4-6.2c-6.1-5.3-19.5-4.8-25.5,3.8c-2.6,3.7-4.1,7.9-4.2,12.4
			c-0.1,3.4,0,6.9,0.7,10.3c2.1,9.2,9,14.3,18.4,14.1c5.9-0.1,10.8-2.2,13.5-7.7c0.8-1.6,1.1-3.5,1.4-5.2c0.5-2.4,1.7-3.7,3.8-3.6
			c1.9,0.1,3.2,1.6,3.3,3.9c0.1,5-2,9.1-5.3,12.6c-3.8,4.1-8.7,6.1-14.2,6.4c-6.9,0.5-13.3-0.7-18.9-5.1c-5.8-4.6-8.9-10.7-9.8-17.9
			c-0.9-8.1,0-16,4.8-22.9c6-8.6,14.3-11.8,24.5-10.8c5.4,0.5,10.1,2.6,13.8,6.6c3.6,4,5,8.6,3.6,13.9c-1.2,4.4-5.2,6.9-9.3,6.1
			c-3.4-0.6-5.3-3.3-4.8-6.7c0.5-3.2,3.1-4.9,6.6-4.2C300.7,170.7,301,170.7,301.4,170.9z"/>
		<path class="st0" d="M415.5,81.2c0.8-3.2-2.2-6.2-4.8-7.2c-7.8-2.8-15.3,1.5-17,9.8c-0.4,2-0.7,4.1-0.7,6.1
			c0,7.8,0.1,15.5,0.3,23.3c0,2.4,0.6,2.9,3.1,2.9c1.8,0,3.7,0,5.5,0.1c2.2,0.1,3.6,1.4,3.6,3.2c0.1,1.8-1.4,3.4-3.5,3.5
			c-1.9,0.1-3.8-0.2-5.6-0.2c-6.1,0-12.1,0.1-18.2,0.2c-0.6,0-1.2,0.1-1.8,0c-2.1-0.3-3.3-1.5-3.3-3.3c0-1.7,1.4-3.1,3.4-3.2
			c1.9-0.1,3.8-0.1,5.7-0.1c2.6,0,3-0.3,3.2-2.9c0.2-2.7,0.3-5.5,0.3-8.2c0-9.2,0-18.3-0.1-27.5c0-2.9-0.2-2.9-3-2.8
			c-1.6,0-3.1,0.2-4.7,0.2c-0.9,0-1.8-0.1-2.7-0.4c-1.6-0.5-2.4-2-2.2-3.6c0.2-1.6,1.3-2.8,2.9-3c1.4-0.1,2.8,0,4.2,0
			c2,0,4.1,0.1,6.1,0c4.5-0.3,5-0.1,6.9,3.9c2.8-2.5,6-4.3,9.7-4.8c7.5-1.1,14.1,0.8,17.9,6.8c2.7,4.3,2.7,10.7-0.2,14.5
			c-2,2.8-5.2,4-8.4,3.1c-3-0.8-4.4-3.4-3.8-6.9c0.5-2.6,3-4.1,6-3.6C414.9,81.2,415.2,81.2,415.5,81.2z"/>
		<path class="st0" d="M410.4,169.2c0.4-2.8-0.9-5.1-3.5-6.6c-5.3-3.1-13.7-1-16.6,4.5c-1.1,2.1-2,4.6-2.1,6.9
			c-0.2,9.2-0.1,18.4-0.1,27.6c0,1.9,0.6,2.3,2.5,2.3c1.5,0,3,0,4.5,0c0.7,0,1.5,0.1,2.2,0.2c1.9,0.4,2.9,1.7,2.8,3.4
			c-0.1,1.6-1.4,3-3.2,3.1c-2.7,0-5.4-0.3-8.1-0.3c-4.6,0-9.1,0.1-13.7,0.2c-1.5,0-2.9,0.2-4.4,0.1c-1.8-0.1-2.9-1.3-3.1-3
			c-0.2-1.5,0.9-3.2,2.6-3.4c2.2-0.3,4.5-0.3,6.8-0.3c2.3-0.1,2.7-0.3,2.8-2.5c0.3-4,0.5-7.9,0.5-11.9c0.1-6.7,0-13.5,0-20.2
			c0-1.6-0.2-3.2-0.3-4.8c-0.1-1.3-0.6-2.1-2.1-1.9c-1.5,0.2-3.1,0.2-4.7,0.2c-1.1,0-2.3,0-3.3-0.3c-1.6-0.4-2.4-1.8-2.4-3.3
			c0.1-1.6,1.1-2.9,2.7-3.2c1-0.2,2.1-0.1,3.2-0.1c2.6,0,5.2,0.2,7.7,0.1c4.2-0.3,5.1,0.2,6.5,4c2.6-2.4,5.6-4.1,9.1-4.7
			c6.7-1.2,12.9-0.3,17.5,5.2c3.6,4.3,4,9.3,1.9,14.4c-1.6,3.7-5,5.5-8.7,4.9c-3.3-0.6-5.1-3.3-4.4-6.9c0.5-2.7,3.2-4.3,6.2-3.7
			C409.9,169,410.1,169.1,410.4,169.2z"/>
		<path class="st0" d="M547.6,67.9c3.6,0,6.8,0,10.1,0c0.8,0,1.6,0,2.4,0.1c1.7,0.3,2.8,1.6,2.9,3.2c0.1,1.8-0.9,3.1-2.7,3.5
			c-1.1,0.2-2.4,0.2-3.5,0.2c-2.6-0.1-5.2-0.2-7.7-0.4c-1-0.1-1.3,0.3-1.3,1.3c0,9.4,0,18.8,0.1,28.1c0.1,3,0.5,6,1.2,8.9
			c0.8,3.3,2.7,4.4,6.2,4.4c3.4,0,5.2-1.2,6-4.5c0.6-2.6,0.8-5.3,1-8c0.2-2.1,0-4.3,0.3-6.4c0.3-1.9,1.7-2.7,3.7-2.6
			c1.6,0.1,3,1.2,3.1,3c0.3,5.7,0.4,11.4-1.3,16.8c-2.2,6.8-8.5,9-14.9,8.2c-6.5-0.8-10.5-4.9-11.8-11.9c-0.5-2.6-0.7-5.2-0.7-7.9
			c-0.1-9.1,0-18.2,0-27.3c0-2.2,0-2.2-2.1-2c-1.3,0.1-2.6,0.3-3.9,0.3c-0.6,0-1.3-0.1-1.9-0.3c-1.7-0.5-2.6-2-2.4-3.7
			c0.1-1.6,1.3-2.9,3.1-2.9c1.7-0.1,3.4,0.1,5.2,0.2c2.1,0.2,2.6-0.3,2.7-2.3c0.1-2.4,0-4.8,0.3-7.1c0.3-2.6,1.9-3.8,4-3.4
			c1.9,0.3,2.9,2.1,2.7,4.5C547.9,62.5,547.8,65.3,547.6,67.9z"/>
		<path class="st0" d="M556.1,169.6c0,9,0,18,0,27c0,1.7,0.2,3.3,0.3,5c0.1,1.6,0.9,2.3,2.5,2.3c1.6-0.1,3.1,0,4.7,0
			c0.4,0,0.8,0,1.1,0c2.5,0.3,4,1.6,3.8,3.5c-0.1,2-1.7,3.3-4.2,3.2c-3.8-0.1-7.5-0.6-11.3-0.6c-4.3,0-8.6,0.4-12.9,0.6
			c-2.9,0.1-4.6-2-3.8-4.4c0.5-1.5,1.8-2.2,3.2-2.3c2-0.2,4-0.1,6-0.1c2.3,0,2.6-0.3,2.8-2.6c0.2-2.7,0.4-5.4,0.4-8.1
			c0-14.3,0-28.6,0-42.8c0-1.9-0.1-3.9-0.2-5.8c0-1.2-0.6-1.7-1.9-1.6c-2.3,0.2-4.5,0.3-6.8,0.4c-2,0-3.2-0.9-3.6-2.6
			c-0.5-2.1,0.7-4.1,2.9-4.2c4.5-0.1,9.1-0.1,13.6,0c1.6,0,2.8,1.2,3.1,2.8c0.2,1.1,0.3,2.1,0.3,3.2
			C556.1,151.6,556,160.6,556.1,169.6C556.1,169.6,556.1,169.6,556.1,169.6z"/>
		<g>
			<path class="st0" d="M629.4,136.4c2.7,0,5,0.9,6.9,2.8c1.9,1.9,2.8,4.2,2.8,6.9c0,2.7-0.9,4.9-2.8,6.9c-1.9,1.9-4.2,2.9-6.9,2.9
				c-2.7,0-4.9-1-6.9-2.9c-1.9-1.9-2.9-4.2-2.9-6.9c0-2.7,1-5,2.9-6.9C624.5,137.4,626.8,136.4,629.4,136.4z M629.4,154.4
				c2.3,0,4.3-0.8,5.9-2.4c1.6-1.6,2.4-3.6,2.4-5.8c0-2.3-0.8-4.3-2.4-5.9c-1.6-1.6-3.6-2.4-5.9-2.4c-2.3,0-4.2,0.8-5.8,2.4
				c-1.6,1.6-2.4,3.6-2.4,5.9c0,2.3,0.8,4.2,2.4,5.8C625.2,153.6,627.1,154.4,629.4,154.4z M633.3,143.6c0,1.1-0.5,1.8-1.4,2.2
				c0.5,0.4,0.8,1.1,0.8,2.1v0.9c0,0.5,0.1,0.7,0.3,0.7c0.2,0,0.3-0.3,0.3-0.9v-1c0-0.7,0.3-1.1,0.8-1.1c0.6,0,0.8,0.3,0.8,0.8
				c0,0.1,0,0.3,0,0.4v1.3c0,1.3-0.7,2-2,2c-1.3,0-1.9-0.6-1.9-1.9v-0.4v-0.8c0-0.6-0.1-0.9-0.3-1c-0.2-0.1-0.6-0.2-1.2-0.2h-1.3
				c-0.1,0-0.1,0-0.1,0.1v2c0,0.5,0.1,0.8,0.4,0.8c0.1,0,0.2,0,0.2,0h0.4c0.5,0,0.7,0.2,0.7,0.7c0,0.5-0.3,0.8-0.9,0.8
				c0,0-0.1,0-0.2,0l-0.7-0.1c-0.1,0-0.2,0-0.4-0.1c-0.2,0-0.3,0-0.3,0c-0.1,0-0.2,0-0.4,0.1c-0.2,0-0.4,0-0.5,0l-0.7,0.1
				c-0.1,0-0.2,0-0.3,0c-0.6,0-0.9-0.3-0.9-0.8s0.2-0.8,0.7-0.8c0.2,0,0.3,0,0.4,0h0.2c0.3,0,0.4-0.2,0.4-0.7v-5.6
				c0-0.1,0-0.3-0.1-0.5c0,0,0-0.1-0.1-0.1c0-0.1-0.1-0.1-0.3-0.1c-0.2,0-0.3,0-0.2,0c-0.1,0-0.3,0.1-0.4,0.1
				c-0.5,0-0.7-0.3-0.7-0.8c0-0.5,0.3-0.8,0.9-0.8h0.2l0.7,0.1c0.1,0,0.2,0,0.3,0c0.1,0,0.2,0,0.3,0c0,0,0.3,0,1-0.1h1
				c0.2,0,0.6-0.1,1-0.1C632.2,140.9,633.3,141.8,633.3,143.6z M628,142.9v2c0,0,0,0,0.1,0h1.3c1.4,0,2.1-0.5,2.1-1.4
				c0-0.8-0.6-1.3-1.8-1.3C628.6,142.4,628,142.6,628,142.9z"/>
		</g>
	</g>
	<g>
		<path class="st1" d="M222.6,147.7c-0.1,15.4-5.1,29-14.3,41.1c-7,9.2-15.8,16.1-26,21.3c-7.5,3.8-15.4,6.3-23.7,7.4
			c-13.7,1.7-26.9-0.1-39.4-6.2c-2.9-1.4-5.5-3.3-8.3-4.8c-1.6-0.9-1.4-2.4-1.5-3.7c-0.7-15.7,3.7-29.9,12.8-42.7
			c7.7-10.8,17.6-18.9,29.5-24.5c7.2-3.4,14.8-5.7,22.8-6.4c3.7-0.3,7.5-0.7,11.2-0.5c11.4,0.4,22.2,3.4,32,9.3
			c0.9,0.6,1.8,1.3,2.8,1.7c1.8,0.8,2.2,2.3,2.2,4.1C222.6,145.1,222.6,146.4,222.6,147.7z"/>
		<path class="st2" d="M92.9,162c0,1.5,0.1,3.1-0.1,4.6c-0.1,0.6-0.6,1.2-1.1,1.6c-7.2,5.1-15.3,8.1-24.1,9.2
			c-24.1,3-48.6-9.4-60.5-30.6c-5.4-9.6-7.8-19.9-7-30.9c0-0.7,0.5-1.5,1.1-1.9c10.9-7.6,23-10.5,36.2-9.4
			c14.9,1.2,27.7,7.2,38.3,17.7C86.5,132.8,92.6,145.7,93,161c0,0.2,0,0.4,0,0.6c0,0.1,0,0.3,0.1,0.4C93,162,93,162,92.9,162z"/>
		<path class="st3" d="M181.4,82.6c-0.8,18.1-9.6,31.2-25.3,39.8c-6.9,3.8-14.3,5.5-22.2,5.5c-8.7,0-16.9-2.4-24.1-7.4
			c-0.6-0.4-1.1-1.2-1.1-1.8c-0.8-10.4,2-19.8,8.1-28.1c8.8-12.2,20.9-18.9,35.8-20.1c9.7-0.8,18.8,1.5,27.1,6.8
			c1.3,0.8,1.9,1.7,1.8,3.2C181.3,81.1,181.4,81.9,181.4,82.6z"/>
		<path class="st1" d="M71.3,94.9C59.6,94.8,50,90.9,41.7,83.5c-7.4-6.6-11.8-14.8-13.3-24.6c-0.4-2.8-0.2-5.7-0.1-8.5
			c0-0.5,0.6-1.1,1.1-1.5c5-3.4,10.5-5.6,16.5-6.3c11.9-1.5,22.7,1.4,32.1,8.6c8.9,6.8,14.5,15.6,16.1,26.8c0.4,2.8,0.3,5.7,0.3,8.6
			c0,0.4-0.4,1.1-0.7,1.3c-5,3.6-10.6,5.9-16.7,6.6C74.9,94.7,72.8,94.8,71.3,94.9z"/>
		<path class="st2" d="M123.5,66c-5.2-0.3-9.9-1.6-14.2-4.4c-0.8-0.5-1.2-1.2-1.2-2.2c-0.3-12.6,8.4-24,21.1-27.2
			c7.4-1.9,14.5-1.1,21.1,3c1,0.6,1.4,1.3,1.4,2.5c0.3,12.1-8,23.2-20.3,26.8C128.9,65.2,126.1,65.5,123.5,66z"/>
		<path class="st4" d="M105.2,27.9c0.1,2.4-0.6,5.6-1.9,8.7c-0.4,0.9-0.9,1.3-1.8,1.5c-12.6,2.6-25.7-5-30.2-17.8
			C69.1,14.2,69.2,8.1,71.7,2c0.4-1,1-1.4,2-1.6c10.5-1.8,19,1.9,25.7,10C103.3,15.2,105.2,20.8,105.2,27.9z"/>
		<path class="st5" d="M104.3,205.8c-0.2,0-0.2,0-0.3,0c-2.4-0.7-3.2-2.1-3.2-4.7C101,149.3,101,97.5,101,45.6c0-3.3,0-3.3,3.3-4.6
			C104.3,95.9,104.3,150.8,104.3,205.8z"/>
	</g>
</g>
</svg>
