<?xml version="1.0" encoding="utf-8"?>
<!-- Generator: Adobe Illustrator 22.1.0, SVG Export Plug-In . SVG Version: 6.00 Build 0)  -->
<svg version="1.1" id="Layer_1" xmlns="http://www.w3.org/2000/svg" xmlns:xlink="http://www.w3.org/1999/xlink" x="0px" y="0px"
	 width="333px" height="354px" viewBox="0 0 333 354" style="enable-background:new 0 0 333 354;" xml:space="preserve">
<style type="text/css">
	.st0{fill:#FFFFFF;}
	.st1{fill:#98BFDF;}
	.st2{fill:#516D76;}
	.st3{fill:#5D3428;}
	.st4{fill:#5D3529;}
	.st5{fill:#653E32;}
</style>
<g>
	<g>
		<path class="st0" d="M222.1,347c-0.3,0.5-0.4,1-0.8,1.3c-6.4,6.4-16.9,6.9-23,3.9c-5.4-2.6-8.3-6.9-8.1-12.9
			c0.2-6.1,3.3-10.6,9-12.8c2.7-1,5.8-1.3,8.7-1.8c2.9-0.5,5.9-0.6,8.9-1.2c3.6-0.8,5-2.3,5.4-5.5c0.3-2.5-0.6-4.8-2.8-6.2
			c-1.4-0.9-3-1.7-4.6-2c-3.7-0.7-7.5-0.6-11,1.1c-1.2,0.6-2.3,1.5-3.4,2.2c0,0.1,0.1,0.2,0.1,0.4c0.2,0,0.4,0.1,0.6,0.1
			c2.1,0,3.7,0.7,4.6,2.7c0.9,2.1,0.3,4.5-1.3,6c-2,1.9-4.4,2.3-6.9,1.3c-2.8-1.1-4.3-3.2-4.5-6.2c-0.3-3.8,1.3-6.9,4.2-9.3
			c4.8-3.9,10.5-4.9,16.5-4.4c4,0.3,7.6,1.5,10.5,4.4c3.3,3.2,4.2,7.3,4.3,11.7c0.1,7.4,0,14.9,0,22.3c0,1.3,0.2,2.6,0.5,3.9
			c0.3,1.3,1.2,2,2.6,1.9c1.4-0.1,2.2-0.8,2.3-2.1c0.2-1.7,0.2-3.5,0.3-5.2c0.1-1.3,0-2.6,0.3-3.8c0.3-1.5,1.5-2.5,2.9-2.4
			c1.4,0,2.7,0.9,2.8,2.5c0.4,4.4,0.5,8.7-1.7,12.8c-1.8,3.4-4.9,4.3-8.6,4c-3.3-0.3-5.6-1.9-6.9-5c-0.2-0.5-0.4-1-0.6-1.6
			C222.4,347.2,222.2,347.1,222.1,347z M222.2,328c-2.3,0.7-4.5,1.5-6.8,1.9c-3.3,0.6-6.6,0.8-9.9,1.2c-2.3,0.3-4.5,0.8-6.3,2.4
			c-2.6,2.2-3.2,5.1-2.5,8.3c0.8,3.5,3.5,5.4,6.8,6.1c6.2,1.3,11.4-0.6,15.4-5.5C222.5,338,222.3,332.9,222.2,328z"/>
		<path class="st0" d="M35.1,230.6c0-4.3,0-8.8,0-13.3c0-1.5-1.2-1.2-2.1-1.2c-1.9,0-3.8,0.2-5.7,0.2c-1.3,0-2.4-0.5-3-1.8
			c-0.8-1.9,0.5-4.1,2.7-4.1c3.7-0.1,7.4-0.1,11.1,0c1.9,0,3,1.2,3.2,3.1c0,0.5,0,1,0,1.6c0,16.7,0,33.3,0.1,50
			c0,1.2,0.2,2.4,0.2,3.5c0,1.2,0.6,1.6,1.7,1.4c1.5-0.2,2.9-0.5,4.4-0.6c0.8-0.1,1.6-0.1,2.4,0.1c1.6,0.4,2.5,1.6,2.4,3.1
			c-0.1,1.5-1.1,2.8-2.7,2.9c-3.8,0.1-7.6,0.1-11.4,0c-1.7-0.1-2.4-1.2-3.1-4c-0.6,0.5-1.2,1-1.8,1.5c-9.3,7-23.2,4-29.4-6.4
			c-3.1-5.1-4-10.7-3.6-16.5c0.4-6.6,2.6-12.4,7.2-17.2c6.3-6.7,16.2-7.8,23.1-4.8C32.3,228.6,33.8,229.8,35.1,230.6z M35.6,251.6
			c-0.3-3-0.5-6.4-1.1-9.8c-0.8-4.5-3.2-7.8-7.9-9.1c-5.9-1.7-11.9,0.4-15.7,5.5c-2.7,3.6-3.9,7.7-4.1,12
			c-0.3,5.5,0.5,10.7,4.1,15.1c3.8,4.8,8.8,6.4,14.6,4.9c5.5-1.4,8.6-5.3,9.5-10.9C35.3,257.1,35.3,254.6,35.6,251.6z"/>
		<path class="st0" d="M147.7,329.9c-0.6,7.8,3.7,15.8,11.4,17.8c7.3,1.8,14.7-1,17.7-7.1c0.5-1,0.7-2.1,1.1-3.2
			c0.2-0.7,0.3-1.4,0.6-2c0.6-1.4,2-2.2,3.5-1.9c1.4,0.3,2.5,1.4,2.4,3.1c-0.1,1.3-0.4,2.6-0.8,3.9c-2.6,7.8-9.7,13.1-17.9,13.5
			c-7.4,0.4-13.8-1.5-18.7-7.3c-3.1-3.6-4.8-7.9-5.3-12.7c-0.8-6.8-0.2-13.4,3.4-19.4c4.7-7.9,11.8-11.5,20.9-10.7
			c9.2,0.8,15.1,6.1,18,14.7c0.7,2,0.9,4.3,1,6.4c0.2,3.4-1.3,4.9-4.8,4.9c-8.2,0-16.4,0-24.6,0
			C152.9,329.9,150.4,329.9,147.7,329.9z M178.3,323.9c0.7-6.7-6.1-14-13.3-14.3c-9.1-0.4-17.1,6.3-16.8,14.3
			C158.3,323.9,168.3,323.9,178.3,323.9z"/>
		<path class="st0" d="M153.7,272.6c-0.2,3.1-2.2,4.6-4.5,3.7c-1.4-0.6-2.1-2.1-2-4c0.2-4.5,0.3-9.1,0.4-13.6c0-1.3-0.2-2.6-0.4-4
			c-0.2-2.1,0.8-3.6,2.7-3.8c1.7-0.2,3.2,0.8,3.4,2.8c0.2,1.5,0,3.1,0,4.7c-0.2,7.1,3.8,11.6,10.9,12.3c3,0.3,6.1,0.2,9-0.9
			c4.3-1.6,6.4-4.7,6.1-9c-0.1-2.1-1.1-3.9-3.1-4.5c-2.8-0.9-5.7-1.5-8.7-2.1c-3.2-0.6-6.4-0.9-9.5-1.6c-9.8-2-11.9-13.4-6.4-20
			c3.2-3.8,7.3-5.8,12.2-6.1c5.9-0.4,7.8,0.2,13.6,3.7c0.1-0.3,0.2-0.5,0.3-0.7c0.5-1.9,1.7-2.9,3.3-2.6c1.7,0.3,2.6,1.7,2.5,3.7
			c-0.2,4.4-0.3,8.9-0.4,13.3c0,0.9,0.1,1.8,0,2.7c-0.3,1.6-1.5,2.4-3,2.4c-1.4,0-2.6-1-2.8-2.5c-0.1-0.7-0.1-1.4,0-2.1
			c1.3-5.8-2.8-11.5-9.8-12.1c-3.2-0.3-6.3,0.2-9.1,2.1c-2.7,1.9-3.8,4.5-3.3,7.8c0.3,1.8,1.1,3.4,3,3.8c3.2,0.8,6.4,1.4,9.6,2
			c3.2,0.6,6.5,1.1,9.6,1.9c7.3,2,9.6,8.1,8.1,14.5c-1.6,6.9-6.6,10.3-13.1,11.7C165.7,277.4,159.4,276.6,153.7,272.6z"/>
		<path class="st0" d="M54.3,329.9c-1.6,10.5,7.6,19.7,17.9,18.1c4.5-0.7,8.1-2.6,10.5-6.5c0.8-1.3,1.2-2.9,1.7-4.3
			c0.2-0.5,0.2-1,0.4-1.5c0.6-1.8,2.2-2.7,3.9-2.3c1.6,0.4,2.5,1.9,2.2,3.8c-1,6.2-4.3,11-9.8,14c-11.3,6.1-29.3,2.7-32.7-16
			c-1.4-7.9-0.5-15.6,4.2-22.3c5.4-7.6,12.9-10.5,21.9-8.8c8.8,1.6,14.2,7.4,16.4,16c0.5,2,0.5,4.2,0.5,6.3c0,1.8-1,2.8-2.7,3.2
			c-0.8,0.2-1.7,0.2-2.5,0.2c-10,0-20,0-30,0C55.4,329.9,54.8,329.9,54.3,329.9z M54.6,323.9c10.2,0,20.2,0,30.3,0
			c0.3-6.5-5.9-13.5-12.3-14.2C61.1,308.4,55.8,316.3,54.6,323.9z"/>
		<path class="st0" d="M199,252.6c-0.4,8.3,4.1,16.4,12.3,17.9c7.3,1.2,13.6-1,16.9-7.6c0.5-1.1,0.7-2.3,1.1-3.5
			c0.2-0.6,0.3-1.2,0.6-1.7c0.7-1.3,2.1-1.9,3.5-1.5c1.4,0.3,2.2,1.4,2.2,2.9c-0.1,3.9-1.7,7.2-4.1,10.1c-4.9,6-11.6,8-19.1,7.4
			c-11.6-0.9-18.5-10-19.6-20.1c-0.8-7.5,0.1-14.7,4.6-21c5.6-7.7,13.4-10.3,22.4-8.4c8.6,1.8,13.7,7.7,15.7,16.1
			c0.4,1.8,0.5,3.8,0.5,5.6c0,2.2-1.2,3.4-3.4,3.7c-1,0.1-2,0.2-3,0.2c-9.7,0-19.4,0-29,0C200.2,252.6,199.7,252.6,199,252.6z
			 M229.8,246.6c0-7.9-6.7-14.4-14.7-14.4c-9.3-0.1-14.8,7-15.6,14.4C209.6,246.6,219.7,246.6,229.8,246.6z"/>
		<path class="st0" d="M282.2,350c-0.1,0.7-0.1,1.4-0.4,2c-0.7,1.6-1.9,2.2-3.5,1.9c-1.4-0.2-2.4-1.4-2.5-3.1c0-1.7,0.3-3.5,0.3-5.2
			c0-4.2-0.2-8.4-0.2-12.6c0-0.8-0.1-1.7,0.1-2.5c0.3-1.4,1.4-2.1,2.8-2.1c1.4,0,2.6,0.7,2.9,2c0.3,1.8,0.3,3.6,0.2,5.4
			c-0.4,6,2.3,10,8,11.8c4.1,1.2,8.3,1.1,12.3-0.4c4-1.6,6-4.7,5.7-8.7c-0.2-2.2-1.1-4-3.2-4.6c-3.2-0.9-6.5-1.6-9.8-2.3
			c-2.8-0.6-5.6-0.9-8.4-1.4c-8.8-1.7-11.8-11.6-7.3-18.6c3.3-5.2,8.4-7.3,14.4-7.6c4.6-0.2,8.8,1,12.5,4c0.1-0.5,0.2-0.9,0.3-1.2
			c0.5-1.8,1.6-2.5,3.3-2.2c1.5,0.2,2.5,1.4,2.5,3c0,1.6-0.3,3.1-0.3,4.7c0,3.6,0,7.2,0.1,10.8c0,1.8-0.7,3.1-2.1,3.5
			c-2.3,0.6-4.2-1-4-3.6c0.1-1.3,0.4-2.6,0.3-3.8c-0.6-4.8-3.5-7.9-8.3-8.9c-3.5-0.7-6.9-0.5-10.1,1.3c-3.2,1.8-4.6,4.7-4.1,8.2
			c0.3,1.9,1.2,3.4,3,3.9c2.6,0.7,5.3,1.3,8,1.8c3.4,0.7,7,1,10.3,1.9c8.3,2.3,11.6,10,7.8,17.8c-1.6,3.2-4.1,5.6-7.4,7
			c-6.9,3-13.9,3-20.8-0.3C283.9,351.1,283.1,350.5,282.2,350z"/>
		<path class="st0" d="M97.5,250.4c-0.1,8.4-2.1,14.9-7.4,20.2c-9.1,9.1-29.6,9.5-36.7-8.4c-2.6-6.5-2.7-13.2-0.7-19.9
			c3.1-10.3,11.8-16.1,23.3-15.7c9.9,0.4,18.5,7.7,20.6,17.8C97.1,246.7,97.3,249.1,97.5,250.4z M91,251.6c0.1-2.8-0.4-5.9-1.5-8.8
			c-2.5-6.4-7.8-10.4-14.3-10.6c-7.1-0.2-12.8,2.9-15.4,9.2c-3,7-2.8,14.2,0.6,21c5.3,10.7,19.3,10.2,25.3,4
			C89.6,262.4,91.2,257.4,91,251.6z"/>
		<path class="st0" d="M35.6,318c-0.2-2.4-1.4-4-3-5.5c-5.4-4.6-17.2-4.2-22.5,3.3c-2.3,3.3-3.6,6.9-3.7,10.9c-0.1,3,0,6.1,0.6,9
			c1.8,8.1,7.9,12.6,16.2,12.4c5.2-0.1,9.5-2,11.9-6.8c0.7-1.4,1-3,1.3-4.6c0.4-2.1,1.5-3.3,3.3-3.2c1.7,0.1,2.8,1.4,2.9,3.4
			c0.1,4.4-1.8,8-4.7,11.1c-3.4,3.6-7.6,5.3-12.5,5.7c-6,0.4-11.7-0.6-16.6-4.4c-5.1-4-7.9-9.4-8.6-15.8c-0.8-7.1,0-14.1,4.2-20.1
			c5.2-7.5,12.6-10.4,21.6-9.5c4.8,0.5,8.9,2.3,12.1,5.9c3.2,3.5,4.4,7.6,3.1,12.2c-1.1,3.9-4.5,6.1-8.2,5.4c-3-0.5-4.7-2.9-4.2-5.9
			c0.5-2.8,2.7-4.3,5.8-3.7C35,317.8,35.2,317.9,35.6,318z"/>
		<path class="st0" d="M136.1,239.1c0.7-2.8-1.9-5.5-4.2-6.3c-6.9-2.5-13.5,1.3-14.9,8.6c-0.4,1.8-0.6,3.6-0.6,5.4
			c0,6.8,0.1,13.7,0.3,20.5c0,2.1,0.5,2.5,2.7,2.5c1.6,0,3.2,0,4.8,0.1c1.9,0.1,3.1,1.2,3.2,2.8c0.1,1.6-1.2,3-3.1,3
			c-1.6,0.1-3.3-0.2-5-0.2c-5.3,0-10.7,0.1-16,0.2c-0.5,0-1,0.1-1.6,0c-1.8-0.3-2.9-1.3-2.9-2.9c0-1.5,1.2-2.7,3-2.9
			c1.7-0.1,3.3-0.1,5-0.1c2.3,0,2.7-0.3,2.8-2.5c0.2-2.4,0.3-4.8,0.3-7.2c0-8.1,0-16.1-0.1-24.2c0-2.5-0.1-2.5-2.6-2.5
			c-1.4,0-2.7,0.2-4.1,0.2c-0.8,0-1.6-0.1-2.4-0.3c-1.4-0.5-2.1-1.7-1.9-3.1c0.2-1.4,1.2-2.5,2.6-2.6c1.2-0.1,2.5,0,3.7,0
			c1.8,0,3.6,0.1,5.4,0c3.9-0.3,4.4,0,6.1,3.5c2.5-2.2,5.3-3.7,8.5-4.2c6.6-0.9,12.4,0.7,15.8,6c2.4,3.8,2.3,9.4-0.1,12.8
			c-1.8,2.5-4.6,3.5-7.4,2.8c-2.7-0.7-3.9-3-3.3-6c0.5-2.3,2.7-3.6,5.2-3.2C135.5,239,135.8,239.1,136.1,239.1z"/>
		<path class="st0" d="M131.6,316.5c0.3-2.4-0.8-4.5-3-5.8c-4.7-2.7-12.1-0.8-14.6,3.9c-1,1.8-1.8,4-1.8,6.1
			c-0.2,8.1-0.1,16.2,0,24.3c0,1.7,0.5,2,2.2,2.1c1.3,0,2.7,0,4,0c0.7,0,1.3,0.1,2,0.2c1.7,0.4,2.6,1.5,2.5,3
			c-0.1,1.4-1.2,2.7-2.8,2.7c-2.4,0-4.7-0.3-7.1-0.3c-4,0-8,0.1-12.1,0.2c-1.3,0-2.6,0.2-3.8,0.1c-1.6-0.1-2.6-1.2-2.7-2.6
			c-0.1-1.4,0.8-2.8,2.3-3c2-0.3,4-0.2,5.9-0.3c2-0.1,2.4-0.2,2.5-2.2c0.2-3.5,0.4-7,0.5-10.5c0.1-5.9,0-11.9,0-17.8
			c0-1.4-0.2-2.8-0.2-4.3c-0.1-1.2-0.5-1.8-1.8-1.7c-1.4,0.1-2.7,0.2-4.1,0.2c-1,0-2,0-2.9-0.3c-1.4-0.4-2.1-1.6-2.1-2.9
			c0.1-1.4,0.9-2.6,2.4-2.8c0.9-0.2,1.9-0.1,2.8-0.1c2.3,0,4.6,0.2,6.8,0.1c3.7-0.2,4.5,0.1,5.7,3.5c2.3-2.1,4.9-3.6,8-4.1
			c5.9-1.1,11.3-0.3,15.4,4.6c3.2,3.8,3.6,8.2,1.7,12.7c-1.4,3.3-4.4,4.8-7.7,4.3c-2.9-0.5-4.5-2.9-3.8-6c0.5-2.4,2.8-3.8,5.5-3.3
			C131.1,316.4,131.3,316.4,131.6,316.5z"/>
		<path class="st0" d="M252.3,227.4c3.2,0,6,0,8.9,0c0.7,0,1.4,0,2.1,0.1c1.5,0.3,2.5,1.4,2.5,2.8c0.1,1.6-0.8,2.8-2.4,3.1
			c-1,0.2-2.1,0.2-3.1,0.1c-2.3-0.1-4.5-0.2-6.8-0.4c-0.9-0.1-1.2,0.3-1.2,1.1c0,8.3,0,16.5,0.1,24.8c0,2.6,0.5,5.3,1.1,7.9
			c0.7,2.9,2.4,3.9,5.5,3.9c3,0,4.6-1,5.3-3.9c0.5-2.3,0.7-4.7,0.9-7c0.2-1.9,0-3.8,0.3-5.7c0.2-1.7,1.5-2.4,3.2-2.3
			c1.4,0.1,2.7,1.1,2.7,2.6c0.2,5,0.4,10-1.2,14.8c-1.9,6-7.5,7.9-13.1,7.2c-5.7-0.7-9.2-4.3-10.4-10.5c-0.4-2.3-0.6-4.6-0.6-6.9
			c-0.1-8,0-16,0-24.1c0-1.9,0-1.9-1.8-1.8c-1.1,0.1-2.3,0.2-3.4,0.3c-0.6,0-1.1-0.1-1.7-0.2c-1.5-0.5-2.3-1.7-2.2-3.3
			c0.1-1.4,1.2-2.5,2.7-2.6c1.5-0.1,3,0.1,4.5,0.2c1.8,0.1,2.3-0.2,2.4-2.1c0.1-2.1,0-4.2,0.2-6.2c0.2-2.2,1.6-3.3,3.5-3
			c1.7,0.3,2.6,1.9,2.4,3.9C252.6,222.6,252.5,225,252.3,227.4z"/>
		<path class="st0" d="M259.8,316.9c0,7.9,0,15.8,0,23.8c0,1.5,0.2,2.9,0.3,4.4c0.1,1.4,0.8,2.1,2.2,2c1.4,0,2.8,0,4.1,0
			c0.3,0,0.7,0,1,0c2.2,0.2,3.5,1.4,3.4,3.1c-0.1,1.8-1.5,2.9-3.7,2.8c-3.3-0.1-6.6-0.5-9.9-0.5c-3.8,0-7.6,0.4-11.4,0.5
			c-2.5,0.1-4.1-1.7-3.3-3.8c0.5-1.3,1.6-1.9,2.8-2c1.7-0.1,3.5-0.1,5.3-0.1c2,0,2.3-0.3,2.5-2.3c0.2-2.4,0.3-4.7,0.3-7.1
			c0-12.6,0-25.1,0-37.7c0-1.7-0.1-3.4-0.2-5.1c0-1.1-0.6-1.5-1.6-1.4c-2,0.1-4,0.3-6,0.3c-1.7,0-2.8-0.8-3.2-2.3
			c-0.5-1.8,0.7-3.6,2.5-3.7c4-0.1,8-0.1,12,0c1.4,0,2.5,1.1,2.7,2.5c0.2,0.9,0.2,1.9,0.2,2.8C259.8,301,259.8,309,259.8,316.9
			C259.8,316.9,259.8,316.9,259.8,316.9z"/>
		<g>
			<path class="st0" d="M324.4,287.7c2.4,0,4.4,0.8,6.1,2.5c1.7,1.7,2.5,3.7,2.5,6.1c0,2.3-0.8,4.4-2.5,6s-3.7,2.5-6.1,2.5
				c-2.3,0-4.4-0.8-6-2.5c-1.7-1.7-2.5-3.7-2.5-6c0-2.4,0.8-4.4,2.5-6.1C320,288.5,322.1,287.7,324.4,287.7z M324.4,303.5
				c2,0,3.7-0.7,5.2-2.1c1.4-1.4,2.1-3.1,2.1-5.1c0-2-0.7-3.7-2.1-5.2c-1.4-1.4-3.1-2.1-5.2-2.1c-2,0-3.7,0.7-5.1,2.1
				c-1.4,1.4-2.1,3.1-2.1,5.2c0,2,0.7,3.7,2.1,5.1C320.7,302.8,322.4,303.5,324.4,303.5z M327.8,294c0,1-0.4,1.6-1.2,2
				c0.5,0.3,0.7,1,0.7,1.8v0.8c0,0.4,0.1,0.6,0.3,0.6c0.2,0,0.3-0.3,0.3-0.8v-0.9c0-0.6,0.2-0.9,0.7-0.9c0.5,0,0.7,0.2,0.7,0.7
				c0,0.1,0,0.2,0,0.3v1.1c0,1.2-0.6,1.8-1.8,1.8c-1.1,0-1.7-0.6-1.7-1.7v-0.4v-0.7c0-0.5-0.1-0.8-0.3-0.9c-0.2-0.1-0.6-0.2-1.1-0.2
				h-1.1c-0.1,0-0.1,0-0.1,0.1v1.8c0,0.5,0.1,0.7,0.3,0.7c0.1,0,0.2,0,0.2,0h0.4c0.4,0,0.6,0.2,0.6,0.6c0,0.5-0.3,0.7-0.8,0.7
				c0,0-0.1,0-0.2,0l-0.6-0.1c-0.1,0-0.2,0-0.3,0c-0.1,0-0.2,0-0.3,0c-0.1,0-0.2,0-0.4,0c-0.2,0-0.3,0-0.4,0l-0.6,0
				c-0.1,0-0.1,0-0.3,0c-0.5,0-0.8-0.2-0.8-0.7c0-0.4,0.2-0.7,0.6-0.7c0.1,0,0.3,0,0.4,0h0.2c0.3,0,0.4-0.2,0.4-0.6v-4.9
				c0-0.1,0-0.3-0.1-0.5c0,0,0-0.1,0-0.1c0-0.1-0.1-0.1-0.3-0.1c-0.2,0-0.2,0-0.2,0c-0.1,0-0.2,0-0.4,0c-0.4,0-0.6-0.2-0.6-0.7
				c0-0.4,0.3-0.7,0.8-0.7h0.2l0.6,0.1c0.1,0,0.2,0,0.3,0c0.1,0,0.2,0,0.3,0c0,0,0.3,0,0.9-0.1h0.9c0.2,0,0.5,0,0.9,0
				C326.8,291.6,327.8,292.4,327.8,294z M323.2,293.4v1.8c0,0,0,0,0.1,0h1.2c1.3,0,1.9-0.4,1.9-1.2c0-0.7-0.5-1.1-1.6-1.1
				C323.7,292.9,323.2,293.1,323.2,293.4z"/>
		</g>
	</g>
	<g>
		<path class="st1" d="M214,141.7c-0.1,14.7-4.9,27.8-13.8,39.5c-6.7,8.8-15.1,15.5-24.9,20.5c-7.2,3.7-14.8,6.1-22.8,7.1
			c-13.2,1.7-25.9-0.1-37.8-5.9c-2.8-1.3-5.3-3.2-8-4.7c-1.5-0.8-1.4-2.3-1.4-3.6c-0.6-15.1,3.5-28.7,12.2-41
			c7.4-10.4,16.9-18.1,28.3-23.5c6.9-3.3,14.2-5.5,21.9-6.2c3.6-0.3,7.2-0.6,10.8-0.5c11,0.4,21.3,3.3,30.7,9
			c0.9,0.5,1.7,1.2,2.6,1.7c1.8,0.8,2.2,2.2,2.2,3.9C214,139.3,214,140.5,214,141.7z"/>
		<path class="st2" d="M89.5,155.5c0,1.5,0.1,2.9,0,4.4c-0.1,0.5-0.6,1.2-1,1.5c-7,4.9-14.7,7.8-23.1,8.8
			c-23.1,2.9-46.6-9-58.1-29.4c-5.2-9.2-7.5-19.1-6.7-29.6c0-0.6,0.5-1.5,1-1.8c10.5-7.3,22.1-10.1,34.7-9.1
			c14.3,1.2,26.6,6.9,36.8,17c10.3,10.2,16.2,22.5,16.6,37.2c0,0.2,0,0.4,0,0.6c0,0.1,0,0.3,0.1,0.4
			C89.7,155.5,89.6,155.5,89.5,155.5z"/>
		<path class="st3" d="M174.5,79.3c-0.8,17.4-9.2,29.9-24.3,38.2c-6.6,3.6-13.8,5.3-21.3,5.3c-8.4,0-16.2-2.3-23.1-7.1
			c-0.5-0.4-1-1.1-1.1-1.8c-0.8-10,1.9-19,7.8-27c8.5-11.7,20-18.1,34.4-19.3c9.4-0.8,18,1.4,26,6.5c1.2,0.8,1.8,1.6,1.7,3.1
			C174.4,77.9,174.5,78.6,174.5,79.3z"/>
		<path class="st1" d="M68.8,91.1c-11.2-0.1-20.5-3.9-28.4-11C33.3,73.8,29,65.8,27.6,56.5c-0.4-2.7-0.2-5.5-0.1-8.2
			c0-0.5,0.6-1.1,1-1.4c4.8-3.3,10.1-5.4,15.9-6.1c11.4-1.4,21.7,1.3,30.8,8.3c8.5,6.5,13.9,15,15.4,25.7c0.4,2.7,0.2,5.5,0.3,8.2
			c0,0.4-0.3,1-0.7,1.3c-4.8,3.4-10.2,5.6-16.1,6.4C72.2,90.9,70.3,91,68.8,91.1z"/>
		<path class="st2" d="M118.9,63.3c-4.9-0.3-9.5-1.5-13.6-4.2c-0.8-0.5-1.1-1.1-1.1-2.1c-0.3-12,8.1-23,20.3-26.1
			c7.1-1.8,13.9-1,20.3,2.8c0.9,0.6,1.4,1.2,1.4,2.4c0.3,11.6-7.7,22.3-19.5,25.7C124,62.6,121.4,62.8,118.9,63.3z"/>
		<path class="st4" d="M101.4,26.8c0.1,2.3-0.6,5.4-1.8,8.4c-0.3,0.8-0.8,1.2-1.7,1.4c-12.1,2.5-24.6-4.8-29-17
			c-2.1-5.9-2-11.8,0.4-17.6c0.4-1,1-1.4,2-1.5C81.2-1.3,89.4,2.2,95.7,10C99.5,14.6,101.3,20,101.4,26.8z"/>
		<path class="st5" d="M100.5,197.5c-0.2,0-0.2,0-0.3,0c-2.3-0.6-3-2-3-4.5c0.1-49.7,0.1-99.5,0.1-149.2c0-3.1,0-3.1,3.2-4.5
			C100.5,92.1,100.5,144.8,100.5,197.5z"/>
	</g>
</g>
</svg>
