<?xml version="1.0" encoding="utf-8"?>
<!-- Generator: Adobe Illustrator 22.1.0, SVG Export Plug-In . SVG Version: 6.00 Build 0)  -->
<svg version="1.1" id="Layer_1" xmlns="http://www.w3.org/2000/svg" xmlns:xlink="http://www.w3.org/1999/xlink" x="0px" y="0px"
	 width="371.1px" height="210px" viewBox="0 0 371.1 210" style="enable-background:new 0 0 371.1 210;" xml:space="preserve">
<style type="text/css">
	.st0{fill:#FFFFFF;}
</style>
<path class="st0" d="M15,67L20.8,91l6.2-27.8c0.6-2.9,1.3-4.9,2.1-5.9c0.8-1,1.9-1.5,3.5-1.5c1.6,0,2.8,0.5,3.6,1.5
	c0.8,1,1.5,2.9,2.1,5.8L44.1,91L50,67c0.4-1.5,0.6-2.8,0.6-4v-0.2c0-1.4-0.6-2.1-1.8-2.1c-0.5,0-1.2,0.1-2.1,0.3
	c-0.9,0.2-1.6,0.3-2.1,0.3c-1.9,0-2.9-0.9-2.9-2.6c0-1.8,1.3-2.8,3.9-2.8c0.4,0,0.8,0,1.2,0.1l3.2,0.4c0.8,0.1,2.2,0.2,3.9,0.2
	c1.4,0,2.8-0.1,4.1-0.3l2.6-0.4c0.2-0.1,0.5-0.1,0.9-0.1c2.3,0,3.4,0.9,3.4,2.7c0,1.8-0.9,2.6-2.6,2.6c-0.6,0-1-0.1-1.3-0.3
	c-0.8-0.2-1.3-0.3-1.4-0.3c-1.4,0-2.9,2.9-4.4,8.8l-5.4,20.4c-0.6,2.5-1.4,4.2-2.2,5.2c-0.8,1-2,1.5-3.5,1.5c-2.8,0-4.7-2.2-5.6-6.6
	l-5.9-28.1l-6.2,27.6c-0.6,2.6-1.3,4.5-2.2,5.6c-0.9,1.1-2.1,1.6-3.6,1.6c-2.5,0-4.1-1.6-5-4.9L8,63.2c-0.5-1.7-1.2-2.5-2.2-2.5
	c-0.3,0-0.8,0.1-1.4,0.3c-0.8,0.1-1.4,0.2-1.7,0.2c-1.7,0-2.6-0.9-2.6-2.6c0-1.9,1.2-2.8,3.6-2.8c0.4,0,0.7,0,0.9,0.1l3.4,0.5
	c0.7,0.1,1.7,0.2,2.9,0.2c1.5,0,3.2-0.1,5.1-0.4c2.4-0.3,3.7-0.4,4.1-0.4c2.3,0,3.5,0.9,3.5,2.7c0,1.8-1,2.6-2.9,2.6
	c-0.4,0-1-0.1-2-0.2c-0.7-0.2-1.3-0.4-2-0.4c-1.4,0-2.1,0.8-2.1,2.4C14.4,64.1,14.6,65.4,15,67z M103.3,72.2c0,2-0.1,3.2-0.4,3.7
	c-0.3,0.4-1,0.7-2.3,0.7H75.5c-0.7,0-1.1,0.1-1.3,0.3c-0.2,0.2-0.3,0.5-0.3,0.9c0,3.9,1.2,7.2,3.6,9.9c2.4,2.6,5.3,3.9,8.8,3.9
	c2.3,0,4.4-0.6,6.4-1.9c1.9-1.3,3.2-2.9,3.8-4.8l0.7-2.3c0.4-1.3,1.2-1.9,2.6-1.9c1.9,0,2.9,1,2.9,3c0,3.4-1.7,6.5-5.2,9.1
	c-3.5,2.7-7.4,4-11.8,4c-5.5,0-9.9-1.9-13.2-5.6c-3.3-3.7-4.9-8.7-4.9-15c0-6.4,1.7-11.6,5.2-15.6c3.5-4,8-6,13.6-6
	c4.9,0,9,1.7,12.2,5C101.7,62.9,103.3,67.1,103.3,72.2z M74.6,70.2c0,0.7,0.6,1.1,1.7,1.1h18.9c1.1,0,1.7-0.4,1.7-1.1
	c0-2.8-1.1-5.2-3.2-7.3c-2.1-2.1-4.6-3.1-7.4-3.1c-2.9,0-5.6,1.1-8.1,3.2C75.8,65.2,74.6,67.5,74.6,70.2z M122.7,62.5V87
	c0.1,2.7,0.8,4,2.2,4c0.3,0,1-0.1,2-0.4c0.6-0.1,1.1-0.2,1.3-0.2c1.8,0,2.6,0.9,2.6,2.7c0,1.7-1.1,2.6-3.2,2.6c-0.8,0-2.2-0.1-4-0.3
	c-1.8-0.2-3.3-0.3-4.2-0.3c-0.8,0-2.1,0.1-3.8,0.3c-1.7,0.2-2.9,0.3-3.7,0.3h-0.4c-2.2,0-3.3-0.9-3.3-2.8c0-1.6,0.9-2.4,2.7-2.4
	c0.1,0,0.3,0,0.6,0c0.3,0.1,0.6,0.1,0.7,0.1c1.3,0.3,2.1,0.4,2.3,0.4c1,0,1.6-0.4,1.8-1.2c0.2-0.8,0.4-2.9,0.4-6.4l0.1-5.5V65.6
	V51.5c-0.1-1.6-0.1-2.6-0.2-3.2c-0.4-1.2-1.1-1.8-2.2-1.8c-0.2,0-0.8,0.1-2.1,0.3c-0.6,0.1-1.1,0.2-1.4,0.2c-1.8,0-2.7-0.8-2.7-2.5
	c0-1.7,1.1-2.6,3.2-2.6c0.6,0,1.1,0,1.5,0.1l1.9,0.2c0.8,0.1,1.6,0.2,2.1,0.2c0.5,0,1.3-0.1,2.4-0.2c1.1-0.2,1.8-0.2,2.4-0.2
	c1.2,0,1.8,0.8,1.8,2.3c0,0.5,0,0.9-0.1,1.2C122.9,49.3,122.7,55.1,122.7,62.5z M148.3,62.5V87c0.1,2.7,0.8,4,2.2,4
	c0.3,0,1-0.1,2-0.4c0.6-0.1,1.1-0.2,1.3-0.2c1.8,0,2.6,0.9,2.6,2.7c0,1.7-1.1,2.6-3.2,2.6c-0.8,0-2.2-0.1-4-0.3
	c-1.8-0.2-3.3-0.3-4.2-0.3c-0.8,0-2.1,0.1-3.8,0.3c-1.7,0.2-2.9,0.3-3.7,0.3H137c-2.2,0-3.3-0.9-3.3-2.8c0-1.6,0.9-2.4,2.7-2.4
	c0.1,0,0.3,0,0.6,0c0.3,0.1,0.6,0.1,0.7,0.1c1.3,0.3,2.1,0.4,2.3,0.4c1,0,1.6-0.4,1.8-1.2c0.2-0.8,0.4-2.9,0.4-6.4l0.1-5.5V65.6
	V51.5c-0.1-1.6-0.1-2.6-0.2-3.2c-0.4-1.2-1.1-1.8-2.2-1.8c-0.2,0-0.8,0.1-2.1,0.3c-0.6,0.1-1.1,0.2-1.4,0.2c-1.8,0-2.7-0.8-2.7-2.5
	c0-1.7,1.1-2.6,3.2-2.6c0.6,0,1.1,0,1.5,0.1l1.9,0.2c0.8,0.1,1.6,0.2,2.1,0.2c0.5,0,1.3-0.1,2.4-0.2c1.1-0.2,1.8-0.2,2.4-0.2
	c1.2,0,1.8,0.8,1.8,2.3c0,0.5,0,0.9-0.1,1.2C148.4,49.3,148.3,55.1,148.3,62.5z M171.8,45.1c-0.5,4.4-0.7,9.5-0.8,15.5
	c1.7-2.2,3.4-3.8,5.1-4.7c1.7-0.9,3.9-1.3,6.6-1.3c5.3,0,9.5,1.8,12.6,5.5c3.1,3.7,4.7,8.6,4.7,14.7c0,6.7-1.6,12-4.9,16
	c-3.3,4-7.7,6-13.3,6c-5.4,0-9.3-2-11.8-6.1c0.2,1.5,0.3,2.4,0.3,2.5c0,1.9-0.9,2.8-2.8,2.8c-1.8,0-2.8-1.3-2.8-3.9
	c0-0.7,0-1.3,0-1.7c0-1.2,0-2.5,0-3.9l0.4-6.1v-8V51.5c-0.1-1.9-0.3-3.3-0.6-3.9c-0.3-0.7-0.9-1-1.8-1c-0.2,0-0.8,0.1-2.1,0.3
	c-0.6,0.1-1.1,0.2-1.5,0.2c-1.8,0-2.7-0.8-2.7-2.5c0-1.7,1.1-2.6,3.2-2.6c0.6,0,1.2,0,1.6,0.1l1.9,0.2c0.8,0.1,1.5,0.2,2.1,0.2
	c0.6,0,1.4-0.1,2.4-0.2c1.1-0.2,1.8-0.2,2.4-0.2c1.2,0,1.7,0.7,1.7,2.2V45.1z M171.6,68c-0.4,1.7-0.6,4.1-0.6,7.1
	c0,5.2,0.4,8.8,1.3,10.7c1.6,3.8,4.8,5.8,9.4,5.8c3.7,0,6.6-1.4,8.7-4.3c2.1-2.9,3.2-6.7,3.2-11.6c0-4.9-1-8.8-3.1-11.6
	c-2-2.8-4.8-4.2-8.4-4.2c-2.5,0-4.7,0.8-6.8,2.3C173.4,63.7,172.1,65.6,171.6,68z M243,72.2c0,2-0.1,3.2-0.4,3.7
	c-0.3,0.4-1,0.7-2.3,0.7h-25.1c-0.7,0-1.1,0.1-1.3,0.3c-0.2,0.2-0.3,0.5-0.3,0.9c0,3.9,1.2,7.2,3.6,9.9c2.4,2.6,5.3,3.9,8.8,3.9
	c2.3,0,4.4-0.6,6.4-1.9c1.9-1.3,3.2-2.9,3.8-4.8l0.7-2.3c0.4-1.3,1.2-1.9,2.6-1.9c1.9,0,2.9,1,2.9,3c0,3.4-1.7,6.5-5.2,9.1
	c-3.5,2.7-7.4,4-11.8,4c-5.5,0-9.9-1.9-13.2-5.6c-3.3-3.7-4.9-8.7-4.9-15c0-6.4,1.7-11.6,5.2-15.6c3.5-4,8-6,13.6-6
	c4.9,0,9,1.7,12.2,5C241.4,62.9,243,67.1,243,72.2z M214.3,70.2c0,0.7,0.6,1.1,1.7,1.1h18.9c1.1,0,1.7-0.4,1.7-1.1
	c0-2.8-1.1-5.2-3.2-7.3c-2.1-2.1-4.6-3.1-7.4-3.1c-2.9,0-5.6,1.1-8.1,3.2C215.6,65.2,214.3,67.5,214.3,70.2z M262.8,72.5v10.3
	c0,2.6,0,4.2,0.1,4.7c0.3,2.4,1,3.6,2.1,3.6c0.3,0,0.9-0.1,2-0.4c0.3-0.1,0.7-0.2,1.2-0.2c2,0,3,0.9,3,2.6c0,0.7-0.3,1.4-1,1.9
	c-0.7,0.5-1.5,0.8-2.5,0.8c-0.8,0-2.1-0.1-3.8-0.4c-1.7-0.2-3-0.4-3.8-0.4c-1.4,0-2.9,0.1-4.6,0.3c-2.1,0.3-3.4,0.4-4.1,0.4
	c-2.1,0-3.2-0.9-3.2-2.7c0-1.7,0.9-2.6,2.7-2.6c0.4,0,1,0.1,1.9,0.2c0.8,0.2,1.4,0.2,1.9,0.2c1.3,0,2-1.7,2.3-5.1c0-0.2,0-2.5,0-6.9
	v-6.5c0-4.4,0-6.7,0-6.9c-0.3-3.3-1.1-5-2.4-5c-0.4,0-1,0.1-1.8,0.3s-1.3,0.3-1.7,0.3c-1.9,0-2.9-0.8-2.9-2.5c0-1.8,1.2-2.7,3.5-2.7
	c1,0,1.7,0,2.1,0.1c1.7,0.2,2.8,0.3,3.2,0.3c0.4,0,1.1-0.1,1.9-0.2c0.9-0.1,1.5-0.2,1.9-0.2c1.5,0,2.3,1,2.3,3.1
	c0,0.2,0,0.5-0.1,0.9c0,0.4-0.1,0.7-0.1,0.9c0,0.4-0.1,2.1-0.1,4.9C262.8,68.1,262.8,70.3,262.8,72.5z M258.7,51.9
	c-1.2,0-2.2-0.4-3.1-1.3c-0.9-0.9-1.3-1.9-1.3-3.1c0-1.2,0.4-2.2,1.3-3.1c0.9-0.8,1.9-1.3,3.1-1.3c1.2,0,2.2,0.4,3.1,1.3
	c0.9,0.8,1.3,1.9,1.3,3.1c0,1.2-0.4,2.3-1.3,3.1C261,51.4,259.9,51.9,258.7,51.9z M287.8,58.4v2.2c3.2-4,7.4-6,12.6-6
	c2.8,0,5.5,0.7,8.1,2.2c2.5,1.4,4.2,3.2,5.1,5.4c0.7,1.8,1.1,4.1,1.1,7v15c0,2.3,0,3.6,0.1,4c0.3,1.8,1,2.7,2.1,2.7
	c0.5,0,1.1-0.1,1.9-0.2c0.8-0.1,1.3-0.2,1.6-0.2c0.7,0,1.3,0.2,1.8,0.7c0.5,0.5,0.7,1.1,0.7,1.7c0,0.8-0.3,1.4-0.9,2
	c-0.6,0.5-1.4,0.8-2.3,0.8c-0.7,0-1.9-0.1-3.6-0.3c-1.7-0.2-3.3-0.3-4.7-0.3c-1.4,0-2.5,0.1-3.4,0.2c-2.6,0.3-4,0.5-4.2,0.5
	c-2.1,0-3.2-0.9-3.2-2.8c0-1.6,0.9-2.4,2.7-2.4c0.4,0,0.9,0.1,1.4,0.2c1,0.2,1.7,0.3,1.9,0.3c1.3,0,2-1.4,2.1-4.3v-4v-4.8v-6
	c0-2.8-0.1-4.7-0.4-5.8c-0.5-2-1.5-3.6-3.1-4.7c-1.7-1.2-3.7-1.8-5.9-1.8c-4.2,0-7.2,1.5-9,4.5c-1.3,2.1-1.9,5.6-1.9,10.5v10.5
	c0,2.3,0.2,3.9,0.5,4.7c0.3,0.8,0.9,1.3,1.7,1.3c0.4,0,1-0.1,1.7-0.3c0.7-0.2,1.3-0.3,1.8-0.3c1.6,0,2.4,0.9,2.4,2.6
	c0,1.7-1.1,2.6-3.2,2.6c-0.4,0-1.8-0.2-4.1-0.5c-1.2-0.2-2.4-0.2-3.9-0.2c-1.1,0-2.6,0.1-4.4,0.3c-2.3,0.3-3.6,0.4-3.9,0.4
	c-2.2,0-3.3-0.9-3.3-2.7c0-1.7,0.9-2.5,2.6-2.5c0.3,0,0.8,0.1,1.5,0.2c0.7,0.2,1.4,0.2,2.1,0.2c1.6,0,2.4-1.5,2.5-4.6v-8.8v-9.6
	v-2.8c-0.1-1.8-0.3-3-0.7-3.7c-0.3-0.7-1-1-1.8-1c-0.4,0-0.9,0.1-1.6,0.2c-0.7,0.1-1.3,0.2-1.6,0.2c-1.9,0-2.9-0.8-2.9-2.5
	c0-1.7,1.2-2.6,3.6-2.6c0.3,0,0.6,0,0.8,0.1l2.9,0.3c0.8,0,1.6-0.1,2.2-0.2c1.4-0.1,2.1-0.2,2.1-0.2C287,56,287.8,56.8,287.8,58.4z
	 M345.9,54.6c1.4,0,2.9,0.2,4.7,0.6c0.3-5.2,3.3-7.7,9-7.7c2.4,0,4.4,0.6,6.1,1.9c1.6,1.3,2.4,2.9,2.4,4.8c0,1.3-0.4,2.3-1.2,3.2
	c-0.8,0.9-1.8,1.3-2.9,1.3c-0.8,0-1.6-0.3-2.2-0.9c-0.6-0.6-0.9-1.3-0.9-2.1c0-0.8,0.6-1.7,1.7-2.6c-0.8-1.1-1.9-1.6-3.2-1.6
	c-2.8,0-4.2,1.7-4.3,5.2c4,2.7,6,6.3,6,10.8c0,3.6-1.4,6.7-4.1,9.1c-2.7,2.4-6.2,3.6-10.3,3.6c-2.9,0-5.9-0.7-9-2.1
	c-0.8-0.4-1.6-0.6-2.1-0.6c-0.7,0-1.4,0.3-2,1c-0.6,0.7-0.9,1.4-0.9,2.3c0,2.7,2.8,4.1,8.3,4.1h0.5c0.4,0,0.9,0,1.4,0
	c0.5,0,0.8,0,1,0c5,0,9.1,0.5,12.2,1.4c2.9,0.9,5.2,2.3,6.9,4.2c1.7,1.9,2.5,4,2.5,6.4c0,3.8-1.8,6.9-5.3,9.1
	c-3.6,2.2-8.4,3.3-14.4,3.3c-6.1,0-10.8-1.1-14.2-3.2c-3.4-2.1-5.2-5-5.2-8.7c0-4.3,2.4-7.3,7.2-9.1c-4.3-1.7-6.5-4.2-6.5-7.6
	c0-3.7,2.2-6.2,6.5-7.6c-1.4-1.8-2.1-4-2.1-6.5c0-3.6,1.4-6.6,4.1-8.9C338.2,55.8,341.7,54.6,345.9,54.6z M346.2,90.5
	c-4.2,0-7.5,0.6-9.9,1.9c-2.4,1.3-3.6,3-3.6,5.1c0,2.2,1.2,3.9,3.6,5.1c2.4,1.2,5.6,1.9,9.6,1.9c4.2,0,7.5-0.6,10-1.9
	c2.4-1.3,3.7-2.9,3.7-5.1c0-2.2-1.2-3.9-3.5-5.2C353.6,91.1,350.3,90.5,346.2,90.5z M346.1,59.8c-2.3,0-4.3,0.7-5.9,2.1
	c-1.6,1.4-2.5,3.1-2.7,5.1v0.5c0,2.3,0.8,4.2,2.4,5.6c1.6,1.4,3.6,2.1,6.2,2.1c2.6,0,4.8-0.7,6.4-2.1c1.7-1.4,2.5-3.2,2.5-5.4
	c0-2.3-0.8-4.1-2.5-5.6C350.7,60.6,348.6,59.8,346.1,59.8z M23,137c0-2.1,1.3-3.3,3.9-3.6c-0.3-1.8-1.1-3.3-2.6-4.3
	c-1.5-1.1-3.4-1.6-5.8-1.6c-3.6,0-6.6,1.4-8.8,4.3c-2.2,2.9-3.3,6.7-3.3,11.5c0,4.9,1,8.8,3.1,11.6c2.1,2.8,5,4.2,8.6,4.2
	c2.3,0,4.3-0.7,6-2c1.7-1.3,2.9-3.1,3.5-5.4c0.5-1.8,0.8-2.9,0.9-3.2c0.6-1.1,1.4-1.6,2.5-1.6c0.9,0,1.6,0.3,2.2,0.9
	c0.6,0.6,0.9,1.3,0.9,2.2c0,1.3-0.4,2.9-1.3,4.7c-0.8,1.8-1.8,3.4-3,4.6c-3.1,3.3-7.1,5-12.1,5c-5.4,0-9.7-1.9-13-5.7
	C1.6,154.9,0,150,0,143.8c0-6.5,1.7-11.8,5.1-15.7c3.4-3.9,7.9-5.9,13.5-5.9c4.2,0,7.7,1.1,10.5,3.4s4.2,5.2,4.2,8.7
	c0,1.9-0.5,3.6-1.6,4.8c-1.1,1.3-2.5,1.9-4.1,1.9c-1.3,0-2.4-0.4-3.3-1.2C23.4,139.2,23,138.2,23,137z M59.6,164.4
	c-5.5,0-9.9-1.9-13.3-5.7c-3.3-3.8-5-8.9-5-15.4c0-6.4,1.7-11.5,5-15.4c3.3-3.8,7.8-5.7,13.5-5.7c5.7,0,10.3,1.9,13.6,5.6
	c3.3,3.7,5,8.8,5,15.2c0,6.4-1.7,11.6-5.1,15.5C69.8,162.5,65.3,164.4,59.6,164.4z M60,127.5c-3.7,0-6.6,1.3-8.7,3.9
	c-2.1,2.6-3.3,6.2-3.5,11v1c0,4.9,1,8.8,3.1,11.6c2.1,2.8,5,4.2,8.7,4.2c3.8,0,6.9-1.4,9-4.2c2.2-2.8,3.3-6.7,3.3-11.7
	C72,132.7,68,127.5,60,127.5z M98.1,130.1v24.5c0.1,2.7,0.8,4,2.2,4c0.3,0,1-0.1,2-0.4c0.6-0.1,1.1-0.2,1.3-0.2
	c1.8,0,2.6,0.9,2.6,2.7c0,1.7-1.1,2.6-3.2,2.6c-0.8,0-2.2-0.1-4-0.3c-1.8-0.2-3.3-0.3-4.2-0.3c-0.8,0-2.1,0.1-3.8,0.3
	c-1.7,0.2-2.9,0.3-3.7,0.3h-0.4c-2.2,0-3.3-0.9-3.3-2.8c0-1.6,0.9-2.4,2.7-2.4c0.1,0,0.3,0,0.6,0c0.3,0.1,0.6,0.1,0.7,0.1
	c1.3,0.3,2.1,0.4,2.3,0.4c1,0,1.6-0.4,1.8-1.2c0.2-0.8,0.4-2.9,0.4-6.4l0.1-5.5v-12.3v-14.1c-0.1-1.6-0.1-2.6-0.2-3.2
	c-0.4-1.2-1.1-1.8-2.2-1.8c-0.2,0-0.8,0.1-2.1,0.3c-0.6,0.1-1.1,0.2-1.4,0.2c-1.8,0-2.7-0.8-2.7-2.5c0-1.7,1.1-2.6,3.2-2.6
	c0.6,0,1.1,0,1.5,0.1l1.9,0.2c0.8,0.1,1.6,0.2,2.1,0.2c0.5,0,1.3-0.1,2.4-0.2c1.1-0.2,1.8-0.2,2.4-0.2c1.2,0,1.8,0.8,1.8,2.3
	c0,0.5,0,0.9-0.1,1.2C98.3,117,98.1,122.7,98.1,130.1z M123.7,130.1v24.5c0.1,2.7,0.8,4,2.2,4c0.3,0,1-0.1,2-0.4
	c0.6-0.1,1.1-0.2,1.3-0.2c1.8,0,2.6,0.9,2.6,2.7c0,1.7-1.1,2.6-3.2,2.6c-0.8,0-2.2-0.1-4-0.3s-3.3-0.3-4.2-0.3
	c-0.8,0-2.1,0.1-3.8,0.3c-1.7,0.2-2.9,0.3-3.7,0.3h-0.4c-2.2,0-3.3-0.9-3.3-2.8c0-1.6,0.9-2.4,2.7-2.4c0.1,0,0.3,0,0.6,0
	c0.3,0.1,0.6,0.1,0.7,0.1c1.3,0.3,2.1,0.4,2.3,0.4c1,0,1.6-0.4,1.8-1.2c0.2-0.8,0.4-2.9,0.4-6.4l0.1-5.5v-12.3v-14.1
	c-0.1-1.6-0.1-2.6-0.2-3.2c-0.4-1.2-1.1-1.8-2.2-1.8c-0.2,0-0.8,0.1-2.1,0.3c-0.6,0.1-1.1,0.2-1.4,0.2c-1.8,0-2.7-0.8-2.7-2.5
	c0-1.7,1.1-2.6,3.2-2.6c0.6,0,1.1,0,1.5,0.1l1.9,0.2c0.8,0.1,1.6,0.2,2.1,0.2c0.5,0,1.3-0.1,2.4-0.2c1.1-0.2,1.8-0.2,2.4-0.2
	c1.2,0,1.8,0.8,1.8,2.3c0,0.5,0,0.9-0.1,1.2C123.9,117,123.7,122.7,123.7,130.1z M172.7,139.9c0,2-0.1,3.2-0.4,3.7
	c-0.3,0.4-1,0.7-2.3,0.7h-25.1c-0.7,0-1.1,0.1-1.3,0.3c-0.2,0.2-0.3,0.5-0.3,0.9c0,3.9,1.2,7.2,3.6,9.9c2.4,2.6,5.3,3.9,8.8,3.9
	c2.3,0,4.4-0.6,6.4-1.9c1.9-1.3,3.2-2.9,3.7-4.8l0.7-2.3c0.4-1.3,1.2-1.9,2.6-1.9c1.9,0,2.9,1,2.9,3c0,3.4-1.7,6.5-5.2,9.1
	c-3.5,2.7-7.4,4-11.8,4c-5.5,0-9.9-1.9-13.2-5.6c-3.3-3.7-4.9-8.7-4.9-15c0-6.4,1.7-11.6,5.2-15.6c3.5-4,8-6,13.6-6
	c4.9,0,9,1.7,12.2,5C171.1,130.6,172.7,134.8,172.7,139.9z M144.1,137.8c0,0.7,0.6,1.1,1.7,1.1h18.9c1.1,0,1.7-0.4,1.7-1.1
	c0-2.8-1.1-5.2-3.2-7.3s-4.6-3.1-7.4-3.1c-2.9,0-5.6,1.1-8.1,3.2C145.3,132.8,144.1,135.2,144.1,137.8z M202.7,137
	c0-2.1,1.3-3.3,3.9-3.6c-0.3-1.8-1.1-3.3-2.6-4.3c-1.5-1.1-3.4-1.6-5.8-1.6c-3.6,0-6.6,1.4-8.8,4.3c-2.2,2.9-3.3,6.7-3.3,11.5
	c0,4.9,1,8.8,3.1,11.6c2.1,2.8,5,4.2,8.6,4.2c2.3,0,4.3-0.7,6-2c1.7-1.3,2.9-3.1,3.5-5.4c0.5-1.8,0.8-2.9,0.9-3.2
	c0.6-1.1,1.4-1.6,2.5-1.6c0.9,0,1.6,0.3,2.2,0.9c0.6,0.6,0.9,1.3,0.9,2.2c0,1.3-0.4,2.9-1.3,4.7c-0.8,1.8-1.8,3.4-3,4.6
	c-3.1,3.3-7.1,5-12.1,5c-5.4,0-9.7-1.9-13-5.7c-3.3-3.8-4.9-8.8-4.9-14.9c0-6.5,1.7-11.8,5.1-15.7c3.4-3.9,7.9-5.9,13.5-5.9
	c4.2,0,7.7,1.1,10.5,3.4c2.8,2.3,4.2,5.2,4.2,8.7c0,1.9-0.5,3.6-1.6,4.8c-1.1,1.3-2.5,1.9-4.1,1.9c-1.3,0-2.4-0.4-3.3-1.2
	C203.2,139.2,202.7,138.2,202.7,137z M243.2,152.2v-5.1c0.1-2.2,1-3.2,2.8-3.2c1.8,0,2.8,1.2,2.8,3.6c0,5.7-0.7,9.7-2.2,12
	c-2,3.1-5.3,4.6-9.8,4.6c-4.2,0-7.2-1.3-8.9-4c-1.3-1.9-2-5.3-2-9.9v-18.9c0-1.1-0.5-1.7-1.5-1.7h-2.6c-0.9,0-1.6-0.3-2.1-0.8
	c-0.6-0.6-0.8-1.2-0.8-2c0-0.7,0.3-1.4,0.8-2c0.6-0.6,1.2-0.9,1.9-0.9h3.1c0.9,0,1.3-0.5,1.3-1.5v-8.1c0-2,1-3,3.1-3
	c1.9,0,2.8,1,2.8,3v8.4c0,0.8,0.5,1.2,1.4,1.2h8.6c2,0,3,0.9,3,2.8c0,1.9-1.1,2.9-3.2,2.9h-8.7c-0.7,0-1.1,0.6-1.1,1.7v19.4
	c0,5.5,1.8,8.3,5.5,8.3C241,158.9,243,156.7,243.2,152.2z M266.8,140.2v10.3c0,2.6,0,4.2,0.1,4.7c0.3,2.4,1,3.6,2.1,3.6
	c0.3,0,0.9-0.1,2-0.4c0.3-0.1,0.7-0.2,1.2-0.2c2,0,3,0.9,3,2.6c0,0.7-0.3,1.4-1,1.9c-0.7,0.5-1.5,0.8-2.5,0.8
	c-0.8,0-2.1-0.1-3.8-0.4c-1.7-0.2-3-0.4-3.8-0.4c-1.4,0-2.9,0.1-4.6,0.3c-2.1,0.3-3.4,0.4-4.1,0.4c-2.1,0-3.2-0.9-3.2-2.7
	c0-1.7,0.9-2.6,2.7-2.6c0.4,0,1,0.1,1.9,0.2c0.8,0.2,1.4,0.2,1.9,0.2c1.3,0,2-1.7,2.3-5.1c0-0.2,0-2.5,0-6.9v-6.5c0-4.4,0-6.7,0-6.9
	c-0.3-3.3-1.1-5-2.4-5c-0.4,0-1,0.1-1.8,0.3c-0.8,0.2-1.3,0.3-1.7,0.3c-1.9,0-2.9-0.8-2.9-2.5c0-1.8,1.2-2.7,3.5-2.7
	c1,0,1.7,0,2.1,0.1c1.7,0.2,2.8,0.3,3.2,0.3c0.4,0,1.1-0.1,1.9-0.2c0.9-0.1,1.5-0.2,1.9-0.2c1.5,0,2.3,1,2.3,3.1
	c0,0.2,0,0.5-0.1,0.9c0,0.4-0.1,0.7-0.1,0.9c0,0.4-0.1,2.1-0.1,4.9C266.8,135.7,266.8,137.9,266.8,140.2z M262.7,119.5
	c-1.2,0-2.2-0.4-3.1-1.3c-0.9-0.9-1.3-1.9-1.3-3.1c0-1.2,0.4-2.2,1.3-3.1c0.9-0.8,1.9-1.3,3.1-1.3c1.2,0,2.2,0.4,3.1,1.3
	c0.9,0.8,1.3,1.9,1.3,3.1c0,1.2-0.4,2.3-1.3,3.1C264.9,119.1,263.9,119.5,262.7,119.5z M297.8,164.4c-5.5,0-9.9-1.9-13.3-5.7
	c-3.3-3.8-5-8.9-5-15.4c0-6.4,1.7-11.5,5-15.4c3.3-3.8,7.8-5.7,13.5-5.7c5.7,0,10.3,1.9,13.6,5.6c3.3,3.7,5,8.8,5,15.2
	c0,6.4-1.7,11.6-5.1,15.5C308,162.5,303.5,164.4,297.8,164.4z M298.2,127.5c-3.7,0-6.6,1.3-8.7,3.9c-2.1,2.6-3.3,6.2-3.5,11v1
	c0,4.9,1,8.8,3.1,11.6c2.1,2.8,5,4.2,8.7,4.2c3.8,0,6.9-1.4,9-4.2c2.2-2.8,3.3-6.7,3.3-11.7C310.2,132.7,306.2,127.5,298.2,127.5z
	 M336,126v2.2c3.2-4,7.4-6,12.6-6c2.8,0,5.5,0.7,8.1,2.2c2.5,1.4,4.2,3.2,5.1,5.4c0.7,1.8,1.1,4.1,1.1,7v15c0,2.3,0,3.6,0.1,4
	c0.3,1.8,1,2.7,2.1,2.7c0.5,0,1.1-0.1,1.9-0.2c0.8-0.1,1.3-0.2,1.6-0.2c0.7,0,1.3,0.2,1.8,0.7c0.5,0.5,0.7,1.1,0.7,1.7
	c0,0.8-0.3,1.4-0.9,2c-0.6,0.5-1.4,0.8-2.3,0.8c-0.7,0-1.9-0.1-3.6-0.3c-1.7-0.2-3.3-0.3-4.7-0.3c-1.4,0-2.5,0.1-3.4,0.2
	c-2.6,0.3-4,0.5-4.2,0.5c-2.1,0-3.2-0.9-3.2-2.8c0-1.6,0.9-2.4,2.7-2.4c0.4,0,0.9,0.1,1.4,0.2c1,0.2,1.7,0.3,1.9,0.3
	c1.3,0,2-1.4,2.1-4.3v-4v-4.8v-6c0-2.8-0.1-4.7-0.4-5.8c-0.5-2-1.5-3.6-3.1-4.7c-1.7-1.2-3.7-1.8-5.9-1.8c-4.2,0-7.2,1.5-9,4.5
	c-1.3,2.1-1.9,5.6-1.9,10.5v10.5c0,2.3,0.2,3.9,0.5,4.7c0.3,0.8,0.9,1.3,1.7,1.3c0.4,0,1-0.1,1.7-0.3c0.7-0.2,1.3-0.3,1.8-0.3
	c1.6,0,2.4,0.9,2.4,2.6c0,1.7-1.1,2.6-3.2,2.6c-0.4,0-1.8-0.2-4.1-0.5c-1.2-0.2-2.4-0.2-3.9-0.2c-1.1,0-2.6,0.1-4.4,0.3
	c-2.3,0.3-3.6,0.4-3.9,0.4c-2.2,0-3.3-0.9-3.3-2.7c0-1.7,0.9-2.5,2.6-2.5c0.3,0,0.8,0.1,1.5,0.2c0.7,0.2,1.4,0.2,2.1,0.2
	c1.6,0,2.4-1.5,2.5-4.6v-8.8v-9.6V133c-0.1-1.8-0.3-3-0.7-3.7c-0.3-0.7-1-1-1.8-1c-0.4,0-0.9,0.1-1.6,0.2c-0.7,0.1-1.3,0.2-1.6,0.2
	c-1.9,0-2.9-0.8-2.9-2.5c0-1.7,1.2-2.6,3.6-2.6c0.3,0,0.6,0,0.8,0.1l2.9,0.3c0.8,0,1.6-0.1,2.2-0.2c1.4-0.1,2.1-0.2,2.1-0.2
	C335.2,123.6,336,124.4,336,126z M157.8,3.3h-6.4V0h16.7v3.3h-6.4v18.8h-3.9V3.3z M174.5,0h3.9v8.9h9V0h3.9v22.1h-3.9v-9.8h-9v9.8
	h-3.9V0z M199.6,0h13.3v3.3h-9.4V9h8v3.3h-8v6.5h9.7v3.3h-13.7V0z M230.7,9.4c-0.2,0.3-0.4,0.7-0.6,1.1c0.3,0.3,0.6,0.6,0.9,0.8
	c3.2,2.2,7.7,1.4,9.9-1.8c0.2-0.3,0.4-0.7,0.6-1.1c-0.3-0.3-0.6-0.6-0.9-0.8C237.4,5.4,232.9,6.2,230.7,9.4z M129.6,3.9
	c-0.4,0.2-0.7,0.4-1.1,0.6c0.1,0.4,0.3,0.8,0.4,1.2c1.7,3.5,5.9,5,9.5,3.3c0.4-0.2,0.7-0.4,1.1-0.6c-0.1-0.4-0.3-0.8-0.4-1.2
	C137.4,3.7,133.1,2.2,129.6,3.9z M128.2,15.4c-0.1,0.3-0.2,0.6-0.2,0.9c0.3,0.2,0.6,0.3,0.9,0.4c2.9,1,6-0.5,7-3.3
	c0.1-0.3,0.2-0.6,0.2-0.9c-0.3-0.2-0.6-0.3-0.9-0.4C132.3,11,129.2,12.5,128.2,15.4z M195.9,210c0.9,0,1.7-0.1,2.5-0.2
	c0.1-0.8,0.2-1.7,0.2-2.5c0-8.1-6.6-14.7-14.7-14.7c-0.9,0-1.7,0.1-2.5,0.2c-0.1,0.8-0.2,1.7-0.2,2.5
	C181.3,203.4,187.8,210,195.9,210z M189.1,187.1c0.2-0.2,0.5-0.5,0.7-0.8c-0.2-0.3-0.4-0.5-0.7-0.8c-2.3-2.3-6-2.3-8.3,0
	c-0.2,0.2-0.5,0.5-0.7,0.8c0.2,0.3,0.4,0.5,0.7,0.8C183.1,189.4,186.8,189.4,189.1,187.1z M177.2,192.4c-0.2-0.5-0.4-0.9-0.7-1.3
	c-0.5,0.1-1,0.2-1.4,0.4c-4.4,1.7-6.6,6.7-4.9,11.1c0.2,0.5,0.4,0.9,0.7,1.3c0.5-0.1,1-0.2,1.4-0.4
	C176.8,201.8,179,196.9,177.2,192.4z"/>
</svg>
