<svg xmlns="http://www.w3.org/2000/svg" viewBox="0 0 783.45 456.09"><defs><style>.cls-1{fill:#fff}.cls-2{fill:#99bfdf}.cls-4{fill:#5d3529}</style></defs><g id="Layer_2" data-name="Layer 2"><g id="Layer_1-2" data-name="Layer 1"><path class="cls-1" d="M31.67 141.33l12.16 50.8 13-58.66q2-9.33 4.42-12.42t7.41-3.05c3.45 0 6 1.06 7.59 3.17s3.08 6.22 4.41 12.33l12.5 58.66 12.34-50.8a36.77 36.77 0 001.16-8.35v-.33q0-4.52-3.83-4.51a23 23 0 00-4.33.58 23.33 23.33 0 01-4.34.58q-6.16 0-6.16-5.5 0-5.83 8.16-5.83a17.28 17.28 0 012.5.19l6.84.93a65.78 65.78 0 008.33.38 65.41 65.41 0 008.66-.56l5.5-.75a6.91 6.91 0 011.84-.19q7.15 0 7.16 5.75 0 5.58-5.49 5.58a5.68 5.68 0 01-2.84-.58 30.31 30.31 0 00-3-.58q-4.5 0-9.33 18.62L105 189.87q-2 7.89-4.67 11A9.15 9.15 0 0193 204q-8.84 0-11.84-14l-12.5-59.34-13 58.2c-1.22 5.55-2.77 9.45-4.66 11.73a9.46 9.46 0 01-7.67 3.4q-7.83 0-10.5-10.35l-16-60.13q-1.5-5.34-4.66-5.34a10.23 10.23 0 00-3 .69 24.52 24.52 0 01-3.67.47q-5.5 0-5.5-5.41Q0 118 7.5 118a6.18 6.18 0 011.83.18l7.17 1.12a42.1 42.1 0 006.17.36 88.61 88.61 0 0010.66-.73q7.5-.93 8.67-.93 7.34 0 7.33 5.75 0 5.58-6.16 5.58a38.3 38.3 0 01-4.17-.39 12.52 12.52 0 00-4.17-.77q-4.33 0-4.33 5a35.78 35.78 0 001.17 8.16zM218 152.47q0 6.33-.83 7.75t-4.84 1.41h-53a4.63 4.63 0 00-2.84.59 2.44 2.44 0 00-.66 1.91q0 12.51 7.5 20.83a24.83 24.83 0 0032.08 4.34 18.31 18.31 0 007.91-10.17l1.5-4.83a5.17 5.17 0 015.5-4q6.17 0 6.17 6.33 0 10.85-11 19.25a40 40 0 01-25 8.42q-17.49 0-27.83-11.75T142.33 161q0-20.34 11-33T182 115.3q15.66 0 25.83 10.5T218 152.47zm-60.5-4.34q0 2.34 3.67 2.34H201c2.33 0 3.5-.78 3.5-2.34a20.7 20.7 0 00-6.67-15.33 21.71 21.71 0 00-15.66-6.5 25.11 25.11 0 00-17 6.75q-7.67 6.75-7.68 15.08zM259 131.9v51.75q.17 8.47 4.54 8.48a21.38 21.38 0 004.21-.83 20.87 20.87 0 012.69-.33q5.56 0 5.56 5.66 0 5.51-6.81 5.5a82.08 82.08 0 01-8.47-.67 85.57 85.57 0 00-9-.66 70.88 70.88 0 00-8 .66 69.06 69.06 0 01-7.81.67h-.83q-7 0-7-6 0-5.16 5.71-5.16h1.18a7.75 7.75 0 001.52.23 42.21 42.21 0 004.87.93q3 0 3.79-2.59t.92-13.47l.17-11.7v-55.7a51.27 51.27 0 00-.5-6.69q-1.17-3.84-4.66-3.84c-.34 0-1.78.22-4.34.66a16.79 16.79 0 01-3 .34q-5.65 0-5.66-5.34t6.66-5.5a26.21 26.21 0 013.17.17l4 .5a37.57 37.57 0 004.5.33 36.05 36.05 0 005-.5 37.55 37.55 0 015-.5q3.83 0 3.83 4.83a13.68 13.68 0 01-.17 2.49Q259 108.45 259 131.9zm54 0v51.75q.16 8.47 4.55 8.48a21.33 21.33 0 004.2-.83 21.16 21.16 0 012.7-.33q5.55 0 5.55 5.66 0 5.51-6.81 5.5a82.28 82.28 0 01-8.47-.67 85.21 85.21 0 00-9-.66 70.88 70.88 0 00-8 .66 68.74 68.74 0 01-7.8.67h-.83q-7 0-7-6 0-5.16 5.72-5.16h1.18a7.68 7.68 0 001.51.23 42.17 42.17 0 004.88.93c2 0 3.28-.86 3.78-2.59s.81-6.22.93-13.47l.17-11.7v-55.7a53.19 53.19 0 00-.5-6.69q-1.17-3.84-4.67-3.84c-.33 0-1.78.22-4.33.66a17 17 0 01-3 .34q-5.67 0-5.67-5.34t6.67-5.5a26 26 0 013.16.17l4 .5a37.43 37.43 0 004.49.33 35.92 35.92 0 005-.5 37.55 37.55 0 015-.5c2.56 0 3.83 1.61 3.83 4.83a13.88 13.88 0 01-.16 2.49Q313 108.45 313 131.9zm49.67-36.63q-1.5 13.79-1.67 32.73 5.34-7 10.86-9.83t13.87-2.84q16.71 0 26.57 11.67t9.86 31q0 21.17-10.41 33.75t-28.11 12.55q-17.16 0-24.83-12.84c.44 3.23.67 5 .67 5.34q0 6-5.84 6t-5.83-8.34V182.8l.84-12.83v-61.33c-.12-4.11-.53-6.89-1.25-8.34a3.86 3.86 0 00-3.75-2.16c-.34 0-1.78.22-4.34.66a17.42 17.42 0 01-3.16.34q-5.67 0-5.67-5.34t6.66-5.5a27.83 27.83 0 013.34.17l4 .5a27.68 27.68 0 009.5-.17 37.55 37.55 0 015-.5c2.44 0 3.67 1.55 3.67 4.65zm-.5 48.2a74 74 0 00-1.17 15q0 16.5 2.68 22.66 5.2 12.17 19.81 12.17a21.74 21.74 0 0018.37-9.09q6.8-9.08 6.8-24.41 0-15.66-6.46-24.58a20.71 20.71 0 00-17.71-8.92 22.78 22.78 0 00-14.26 4.92 21.13 21.13 0 00-8.08 12.25zm150.82 9q0 6.33-.84 7.75t-4.83 1.41h-53a4.63 4.63 0 00-2.84.59 2.44 2.44 0 00-.66 1.91q0 12.51 7.5 20.83a24.83 24.83 0 0032.08 4.34 18.31 18.31 0 007.91-10.17l1.5-4.83a5.17 5.17 0 015.5-4q6.17 0 6.17 6.33 0 10.85-11 19.25a40.07 40.07 0 01-25 8.42q-17.49 0-27.83-11.75T437.31 161q0-20.34 11-33T477 115.3q15.66 0 25.83 10.5T513 152.47zm-60.5-4.34q0 2.34 3.67 2.34H496c2.33 0 3.5-.78 3.5-2.34a20.7 20.7 0 00-6.67-15.33 21.71 21.71 0 00-15.66-6.5 25.13 25.13 0 00-17 6.75q-7.69 6.75-7.7 15.08zm102.33 5v21.67c0 5.56.06 8.83.17 9.83q.82 7.5 4.5 7.5a24.44 24.44 0 004.16-.83 7.19 7.19 0 012.5-.33q6.33 0 6.33 5.49a5 5 0 01-2.09 4 8.16 8.16 0 01-5.26 1.67 65.21 65.21 0 01-8.11-.75 65.54 65.54 0 00-8.11-.75 79.8 79.8 0 00-9.7.67q-6.53.82-8.7.83-6.69 0-6.69-5.67 0-5.49 5.72-5.49a23 23 0 014 .49 22.44 22.44 0 003.95.51q4 0 4.88-10.67v-42.66c-.56-7-2.24-10.5-5-10.5a17.45 17.45 0 00-3.79.58 17.16 17.16 0 01-3.61.58c-4 0-6.06-1.77-6.06-5.33q0-5.67 7.34-5.67a41.5 41.5 0 014.49.17c3.56.44 5.84.67 6.84.67a29.85 29.85 0 004.08-.42 29.85 29.85 0 014.08-.42q4.85 0 4.84 6.5c0 .45-.05 1.11-.14 2s-.13 1.56-.13 2q-.13 1.33-.27 10.33-.24 6.87-.24 14zm-8.67-43.66a9.39 9.39 0 01-9.33-9.33 8.72 8.72 0 012.75-6.5 9.46 9.46 0 0113.17 0 8.72 8.72 0 012.75 6.5 9.39 9.39 0 01-9.34 9.33zm61.34 13.75V128q10-12.66 26.66-12.67a33.62 33.62 0 0117 4.59q8 4.58 10.83 11.41 2.34 5.67 2.33 14.83v31.64q0 7.17.17 8.5.82 5.7 4.52 5.7a24 24 0 003.92-.42 23.25 23.25 0 013.41-.42 5.25 5.25 0 013.75 1.5 4.86 4.86 0 011.59 3.67 5.2 5.2 0 01-2 4.16 7.34 7.34 0 01-4.84 1.67 69.15 69.15 0 01-7.66-.67 81.75 81.75 0 00-10-.66 64 64 0 00-7.17.33c-5.55.67-8.5 1-8.83 1q-6.68 0-6.67-5.83c0-3.44 1.93-5.17 5.78-5.17a16.16 16.16 0 013.06.33 27.69 27.69 0 004.08.67q4.08 0 4.41-9.17v-31.36q0-8.82-.83-12.16a16.07 16.07 0 00-6.47-9.84A21.22 21.22 0 00632 125.8q-13.29 0-19.09 9.5-4 6.51-4 22.17v22.16c0 4.89.34 8.23 1 10a3.67 3.67 0 003.67 2.67 16.69 16.69 0 003.67-.58 16.42 16.42 0 013.83-.59c3.44 0 5.17 1.86 5.17 5.58s-2.23 5.42-6.67 5.42q-1.33 0-8.67-1a61.19 61.19 0 00-8.16-.5 87.76 87.76 0 00-9.34.67q-7.32.82-8.33.83-7 0-7-5.67 0-5.33 5.44-5.33a18.37 18.37 0 013.14.5 20.53 20.53 0 004.49.5q5.1 0 5.26-9.66V138q-.33-5.67-1.44-7.75a4 4 0 00-3.82-2.08 22 22 0 00-3.48.41 21 21 0 01-3.48.42q-6.11 0-6.11-5.34t7.5-5.49a7.15 7.15 0 011.67.16l6.16.67a22.92 22.92 0 004.67-.42c2.89-.27 4.39-.41 4.5-.41 3.27-.03 4.89 1.66 4.89 5.05zm122.65-7.92a42.28 42.28 0 019.84 1.34q.82-16.33 19-16.34a20.41 20.41 0 0112.84 4 12.35 12.35 0 015.18 10.17 9.78 9.78 0 01-2.58 6.83 8 8 0 01-6.08 2.84 6.7 6.7 0 01-4.67-1.84 5.71 5.71 0 01-2-4.33q0-2.67 3.67-5.5a8.38 8.38 0 00-6.84-3.33q-8.84 0-9 11 12.67 8.49 12.67 22.83a24.51 24.51 0 01-8.69 19.16q-8.7 7.68-21.72 7.67a47.27 47.27 0 01-19.06-4.33 11.73 11.73 0 00-4.51-1.17 5.5 5.5 0 00-4.18 2.08 7.23 7.23 0 00-1.84 4.92q0 8.67 17.54 8.66h6q15.87 0 25.73 3a31.42 31.42 0 0114.53 8.81 19.7 19.7 0 015.35 13.46q0 12.12-11.25 19.18t-30.42 7.06q-19.17 0-30.08-6.66t-10.91-18.34q0-13.5 15.16-19.16-13.66-5.34-13.67-16 0-11.67 13.67-16a22.27 22.27 0 01-4.33-13.67 23.75 23.75 0 018.75-18.83q8.76-7.51 21.88-7.51zm.67 75.67q-13.34 0-21 4t-7.67 10.83q0 6.82 7.5 10.75t20.17 3.91q13.34 0 21.08-4t7.75-10.66q0-7-7.33-10.92T730.79 191zm-.17-64.67a18.86 18.86 0 00-12.5 4.33 15.2 15.2 0 00-5.66 10.84v1a15.13 15.13 0 005 11.83q5 4.5 13 4.5 8.32 0 13.58-4.5a14.47 14.47 0 005.25-11.5A15 15 0 00744 131a19.56 19.56 0 00-13.38-4.7zM48.5 289.26q0-6.66 8.33-7.66a13 13 0 00-5.58-9.17Q46.5 269.1 39 269.1a22.15 22.15 0 00-18.5 9.16q-7 9.17-7 24.33 0 15.68 6.59 24.59t18.25 8.91a20.34 20.34 0 0012.74-4.16 21 21 0 007.42-11.5q1.66-5.83 2-6.67a5.79 5.79 0 015.33-3.33 6.26 6.26 0 016.5 6.5 25 25 0 01-2.66 10 34.74 34.74 0 01-6.34 9.66q-9.82 10.5-25.49 10.5-17 0-27.42-12T0 303.6q0-20.67 10.75-33.09t28.58-12.41q13.34 0 22.17 7.25a22.79 22.79 0 018.83 18.41 15.16 15.16 0 01-3.41 10.17 11 11 0 01-8.75 4 9.92 9.92 0 01-6.92-2.5 8 8 0 01-2.75-6.17zm77.33 57.83q-17.51 0-28-12.08t-10.5-32.42q0-20.32 10.58-32.41t28.42-12.08q18.17 0 28.66 11.83t10.5 32.16q0 20.34-10.83 32.67t-28.83 12.33zm.83-78q-11.67 0-18.33 8.16T101 300.43v2.16q0 15.68 6.58 24.59t18.42 8.91q12.15 0 19.08-8.91t6.92-24.75q0-33.33-25.34-33.33zm80.5 5.59v51.75q.17 8.49 4.54 8.49a21.68 21.68 0 004.21-.84 21.07 21.07 0 012.69-.33c3.7 0 5.56 1.89 5.56 5.67s-2.28 5.49-6.81 5.49a84.09 84.09 0 01-8.47-.66 86.14 86.14 0 00-9-.67 71.26 71.26 0 00-8 .67 70.9 70.9 0 01-7.81.66h-.83q-7 0-7-6 0-5.18 5.72-5.17h1.18a7 7 0 001.52.23 41 41 0 004.87.94 3.51 3.51 0 003.79-2.59q.75-2.59.92-13.47l.17-11.71v-55.67a50.93 50.93 0 00-.5-6.69c-.78-2.57-2.33-3.85-4.67-3.85-.33 0-1.78.23-4.33.67a17.6 17.6 0 01-3 .33c-3.78 0-5.67-1.77-5.67-5.33s2.23-5.5 6.67-5.5a26.42 26.42 0 013.17.16l4 .51a27.62 27.62 0 009.5-.17 35.78 35.78 0 015-.5q3.83 0 3.83 4.82a13.81 13.81 0 01-.17 2.5q-1.09 12.81-1.08 36.27zm54 0v51.75q.17 8.49 4.55 8.49a21.63 21.63 0 004.2-.84 21.16 21.16 0 012.7-.33q5.55 0 5.55 5.67 0 5.49-6.81 5.49a84.5 84.5 0 01-8.47-.66 86 86 0 00-9-.67 71.45 71.45 0 00-8 .67 70.58 70.58 0 01-7.8.66h-.83q-7 0-7-6 0-5.18 5.72-5.17h1.18a7 7 0 001.51.23 41 41 0 004.88.94c2 0 3.28-.87 3.78-2.59s.81-6.22.93-13.47l.17-11.71v-55.67a52.83 52.83 0 00-.5-6.69q-1.17-3.85-4.67-3.85c-.33 0-1.78.23-4.33.67a17.81 17.81 0 01-3 .33c-3.78 0-5.67-1.77-5.67-5.33s2.22-5.5 6.67-5.5a26.24 26.24 0 013.16.16l4 .51a27.62 27.62 0 009.5-.17 35.92 35.92 0 015-.5q3.84 0 3.84 4.82a13.81 13.81 0 01-.17 2.5q-1.1 12.81-1.1 36.27zm103.5 20.57q0 6.35-.84 7.75t-4.82 1.43h-53a4.63 4.63 0 00-2.83.58 2.42 2.42 0 00-.67 1.92q0 12.49 7.5 20.83a24.84 24.84 0 0032.08 4.33 18.28 18.28 0 007.92-10.16l1.5-4.84a5.17 5.17 0 015.5-4q6.16 0 6.16 6.34 0 10.83-11 19.24a40 40 0 01-25 8.42q-17.5 0-27.84-11.75T289 303.76q0-20.33 11-33t28.67-12.66q15.66 0 25.83 10.5t10.15 26.66zm-60.5-4.33c0 1.55 1.22 2.33 3.66 2.33h39.83c2.34 0 3.51-.78 3.51-2.33a20.72 20.72 0 00-6.67-15.33 21.7 21.7 0 00-15.67-6.5 25.13 25.13 0 00-17 6.75q-7.67 6.74-7.67 15.09zM428 289.26q0-6.66 8.34-7.66a13 13 0 00-5.59-9.17q-4.74-3.33-12.25-3.33a22.13 22.13 0 00-18.5 9.16q-7 9.17-7 24.33 0 15.68 6.58 24.59t18.25 8.91a20.35 20.35 0 0012.75-4.16 21 21 0 007.41-11.5q1.66-5.83 2-6.67a5.79 5.79 0 015.34-3.33 6.28 6.28 0 016.5 6.5 25 25 0 01-2.67 10 34.72 34.72 0 01-6.33 9.66q-9.84 10.5-25.5 10.5-17 0-27.42-12t-10.43-31.49q0-20.67 10.74-33.09t28.59-12.41q13.33 0 22.16 7.25a22.8 22.8 0 018.84 18.41 15.11 15.11 0 01-3.42 10.17 11 11 0 01-8.75 4 9.94 9.94 0 01-6.92-2.5 8 8 0 01-2.72-6.17zm85.33 32v-10.67q.16-6.82 6-6.83t5.83 7.67q0 18.17-4.63 25.33-6.29 9.66-20.69 9.67-13.24 0-18.87-8.5-4.14-6.17-4.14-21v-40q0-3.49-3.23-3.5h-5.46a6.2 6.2 0 01-4.52-1.75 5.73 5.73 0 01-1.79-4.25 5.92 5.92 0 011.75-4.17 5.33 5.33 0 013.92-1.83h6.5c1.89 0 2.83-1.05 2.83-3.17V241.1q0-6.33 6.5-6.33 6 0 6 6.33v17.83c0 1.67 1 2.5 3 2.5h18.17q6.33 0 6.33 5.83 0 6.17-6.83 6.17h-18.36c-1.56 0-2.34 1.17-2.34 3.5v41q0 17.49 11.66 17.5 11.84 0 12.34-14.17zm49.83-25.33v21.66q0 8.34.17 9.84.83 7.5 4.5 7.5a25.15 25.15 0 004.17-.84 7.09 7.09 0 012.49-.33q6.35 0 6.34 5.5a5 5 0 01-2.09 4 8.2 8.2 0 01-5.27 1.66 64.91 64.91 0 01-8.11-.74 63.45 63.45 0 00-8.11-.75 79.91 79.91 0 00-9.7.66 84.58 84.58 0 01-8.7.83q-6.69 0-6.68-5.66 0-5.5 5.71-5.5a23.21 23.21 0 013.95.5 23.3 23.3 0 004 .5q4 0 4.87-10.67v-42.66q-.84-10.5-5-10.5a17.45 17.45 0 00-3.79.58 17.33 17.33 0 01-3.61.59c-4 0-6.05-1.78-6.05-5.34q0-5.65 7.33-5.66a42.32 42.32 0 014.5.16q5.32.67 6.83.67a29.85 29.85 0 004.08-.42 31.25 31.25 0 014.09-.41c3.22 0 4.83 2.16 4.83 6.5 0 .44 0 1.11-.13 2s-.14 1.55-.14 2q-.13 1.33-.27 10.33-.23 6.84-.24 14zm-8.66-43.67a9.39 9.39 0 01-9.34-9.33 8.74 8.74 0 012.75-6.5 9.48 9.48 0 0113.17 0 8.74 8.74 0 012.75 6.5 9.39 9.39 0 01-9.33 9.33zm74.16 94.83q-17.5 0-28-12.08t-10.5-32.42q0-20.32 10.58-32.41t28.42-12.08q18.17 0 28.66 11.83t10.5 32.16q0 20.34-10.83 32.67t-28.86 12.33zm.83-78q-11.67 0-18.33 8.16t-7.33 23.17v2.16q0 15.68 6.58 24.59t18.42 8.91q12.15 0 19.08-8.91t6.91-24.75q-.03-33.32-25.36-33.32zm79.8-3.09v4.75q10-12.66 26.66-12.66a33.71 33.71 0 0117 4.58q8 4.59 10.83 11.41 2.34 5.69 2.34 14.84v31.66c0 4.78 0 7.62.17 8.5q.83 5.67 4.49 5.67a24 24 0 003.92-.42 24.23 24.23 0 013.42-.41 5.28 5.28 0 013.75 1.5 4.87 4.87 0 011.58 3.66 5.22 5.22 0 01-2 4.17 7.29 7.29 0 01-4.83 1.66 71.17 71.17 0 01-7.67-.66 81.85 81.85 0 00-10-.67 63.66 63.66 0 00-7.16.33c-5.56.67-8.5 1-8.84 1q-6.66 0-6.66-5.83 0-5.16 5.77-5.16a16.16 16.16 0 013.06.33 29.23 29.23 0 004.08.67q4.08 0 4.42-9.17v-31.32q0-8.83-.83-12.17a16.07 16.07 0 00-6.48-9.83 21.15 21.15 0 00-12.45-3.83q-13.27 0-19.09 9.5-4 6.5-4 22.16v22.17q0 7.33 1 10a3.65 3.65 0 003.66 2.66 16.1 16.1 0 003.67-.58 16.33 16.33 0 013.83-.58q5.17 0 5.17 5.58 0 5.42-6.67 5.41c-.89 0-3.77-.33-8.66-1a61.55 61.55 0 00-8.17-.49 87.31 87.31 0 00-9.33.66c-4.89.56-7.67.83-8.33.83q-7 0-7-5.66c0-3.56 1.81-5.33 5.43-5.33a17.38 17.38 0 013.14.5 21.25 21.25 0 004.5.5q5.09 0 5.26-9.67v-44.5c-.23-3.77-.71-6.36-1.44-7.75a4 4 0 00-3.82-2.08 20.85 20.85 0 00-3.48.42 20.83 20.83 0 01-3.48.41c-4.08 0-6.11-1.77-6.11-5.33s2.5-5.5 7.5-5.5a7 7 0 011.66.17l6.17.66a22.93 22.93 0 004.66-.41q4.34-.42 4.5-.42c3.25 0 4.86 1.7 4.86 5.07zM333 7h-13.5V0h35.28v7h-13.5v39.71H333zm35.28-7h8.29v18.79h18.92V0h8.29v46.71h-8.29V26H376.6v20.71h-8.29zm53.07 0h28.14v7h-19.83v11.93h16.79v7h-16.79v13.78h20.57v7h-28.85zM60.38 416h3.48v19.6h-3.48zM74.84 416h3.57l6.12 11 2 4.17h.12c-.08-1-.18-2.12-.29-3.29s-.16-2.3-.16-3.4V416h3.33v19.6H86l-6.12-11-2-4.17h-.12c.08 1 .17 2.13.28 3.27s.17 2.26.17 3.36v8.58h-3.37zM112.66 416h6.6a14 14 0 013 .3 6.2 6.2 0 012.35 1 5 5 0 011.56 1.87 7.38 7.38 0 010 5.69 5.5 5.5 0 01-1.57 2 6.58 6.58 0 01-2.37 1.17 11.16 11.16 0 01-3 .38h-3.12v7.2h-3.48zm6.33 9.63q4.32 0 4.32-3.57a2.84 2.84 0 00-1.08-2.57 6 6 0 00-3.24-.7h-2.85v6.84zM144 430.29h-6.6l-1.53 5.31h-3.54l6.43-19.6h4.08l6.39 19.62h-3.66zm-.78-2.73l-.69-2.4c-.32-1-.62-2.11-.91-3.21s-.58-2.19-.86-3.27h-.12l-.84 3.28a70.78 70.78 0 01-.9 3.2l-.69 2.4zM168.38 435.6l-4.23-7.68h-3v7.68h-3.48V416h6.63a12.91 12.91 0 012.85.3 6.53 6.53 0 012.28 1 4.81 4.81 0 011.51 1.79 6.14 6.14 0 01.55 2.76 5.78 5.78 0 01-1.06 3.63 5.87 5.87 0 01-2.84 2l4.69 8.19zm-7.23-10.44h2.78a4.89 4.89 0 003.08-.84 3 3 0 001.06-2.52 2.56 2.56 0 00-1.06-2.37 5.9 5.9 0 00-3.08-.66h-2.78zM185 418.92h-5.68V416h14.83v2.94h-5.67v16.66H185zM203.42 416H207l6.12 11 2 4.17h.12c-.08-1-.18-2.12-.29-3.29s-.17-2.3-.17-3.4V416h3.34v19.6h-3.57l-6.12-11-2-4.17h-.12c.07 1 .17 2.13.28 3.27s.16 2.26.16 3.36v8.58h-3.32zM229.09 416h11.82v2.94h-8.34v5h7.05v2.94h-7.05v5.79h8.64v2.94h-12.12zM261.94 435.6l-4.23-7.68h-3v7.68h-3.48V416h6.63a12.85 12.85 0 012.85.3 6.37 6.37 0 012.28 1 4.74 4.74 0 011.52 1.79 6.14 6.14 0 01.55 2.76 5.78 5.78 0 01-1.06 3.63 5.87 5.87 0 01-2.84 2l4.68 8.19zm-7.23-10.44h2.79a4.89 4.89 0 003.08-.84 3 3 0 001.06-2.52 2.56 2.56 0 00-1.06-2.37 5.9 5.9 0 00-3.08-.66h-2.79zM275.47 430.71a8.75 8.75 0 002.4 1.6 6.47 6.47 0 002.7.62 4 4 0 002.55-.69 2.22 2.22 0 00.87-1.83 2.14 2.14 0 00-.22-1 2.33 2.33 0 00-.63-.74 5.42 5.42 0 00-1-.58c-.37-.18-.78-.36-1.22-.54l-2.7-1.17a9.25 9.25 0 01-1.42-.75 6.27 6.27 0 01-1.28-1.08 4.95 4.95 0 01-1.26-3.39 4.88 4.88 0 01.5-2.18 5.48 5.48 0 011.36-1.75 6.34 6.34 0 012.09-1.17 8 8 0 012.65-.42 8.36 8.36 0 013.3.67 8.69 8.69 0 012.74 1.82l-1.78 2.22a8.74 8.74 0 00-2-1.23 5.59 5.59 0 00-2.28-.45 3.73 3.73 0 00-2.25.61 2 2 0 00-.84 1.7 1.78 1.78 0 00.26 1 2.61 2.61 0 00.69.72 5.57 5.57 0 001 .57c.38.17.77.34 1.17.5l2.67 1.11a9.2 9.2 0 011.59.84 5.81 5.81 0 011.25 1.11 5 5 0 01.83 1.45 5.85 5.85 0 01.29 1.91 5.32 5.32 0 01-1.87 4.09 6.85 6.85 0 01-2.22 1.26 8.8 8.8 0 01-3 .47 10.18 10.18 0 01-7.08-2.88zM297.13 416h3.48v7.89h7.95V416H312v19.6h-3.48v-8.7h-7.95v8.7h-3.48zM323 416h3.47v19.6H323zM337.48 416h6.6a14 14 0 013 .3 6.2 6.2 0 012.35 1 5 5 0 011.56 1.87 7.38 7.38 0 010 5.69 5.5 5.5 0 01-1.57 2A6.58 6.58 0 01347 428a11.16 11.16 0 01-3 .38h-3v7.2h-3.48zm6.33 9.63q4.32 0 4.32-3.57a2.84 2.84 0 00-1.08-2.57 6 6 0 00-3.24-.7H341v6.84zM371.44 416H375l1.71 9.9q.24 1.59.48 3.15l.48 3.12h.12c.22-1 .44-2.09.65-3.14s.42-2.09.64-3.13l2.4-9.9h3l2.4 9.9c.22 1 .44 2.05.66 3.1l.66 3.17h.12c.16-1.06.32-2.11.47-3.15s.3-2.08.46-3.12L391 416h3.33l-3.75 19.62h-4.32l-2.43-10.32c-.16-.76-.31-1.52-.46-2.27s-.29-1.5-.41-2.26h-.12c-.14.76-.28 1.51-.43 2.26s-.31 1.51-.47 2.27l-2.37 10.32h-4.23zM403.39 416h3.48v19.6h-3.48zM421.81 418.92h-5.67V416H431v2.94h-5.67v16.66h-3.48zM440.23 416h3.48v7.89h8V416h3.48v19.6h-3.48v-8.7h-8v8.7h-3.48zM678.32 451a2.85 2.85 0 01-.32.54 8.72 8.72 0 01-9.3 1.59 5.62 5.62 0 01.38-10.36 17.86 17.86 0 013.52-.71c1.19-.19 2.4-.24 3.57-.49 1.47-.31 2-.95 2.17-2.23a2.54 2.54 0 00-1.12-2.49 5.68 5.68 0 00-1.88-.8 6.91 6.91 0 00-4.43.47 12.8 12.8 0 00-1.37.89l.06.14a1.6 1.6 0 00.23 0 1.79 1.79 0 011.85 1.1 2.2 2.2 0 01-.52 2.43 2.47 2.47 0 01-2.76.54 2.75 2.75 0 01-1.83-2.5 4.31 4.31 0 011.71-3.77 8.84 8.84 0 016.64-1.77 6.62 6.62 0 014.25 1.78 6.41 6.41 0 011.73 4.72v9a7.06 7.06 0 00.21 1.58.94.94 0 001 .78.91.91 0 00.93-.85c.09-.7.09-1.4.12-2.11a13.13 13.13 0 01.11-1.54 1.17 1.17 0 011.17-1 1.1 1.1 0 011.15 1 8.69 8.69 0 01-.68 5.15 3.25 3.25 0 01-3.46 1.63 3.14 3.14 0 01-2.77-2c-.09-.2-.16-.42-.24-.63zm0-7.66a28.25 28.25 0 01-2.75.77c-1.31.23-2.65.31-4 .47a4.51 4.51 0 00-2.53 1 3.17 3.17 0 00-1 3.33 3.31 3.31 0 002.77 2.46 5.94 5.94 0 006.22-2.22c1.47-1.82 1.39-3.87 1.33-5.86zM602.87 404v-5.35c0-.6-.48-.5-.84-.49-.77 0-1.53.08-2.3.09a1.2 1.2 0 11-.11-2.4h4.48a1.25 1.25 0 011.29 1.27v20.8c0 .48.08.95.07 1.43s.25.64.69.58 1.17-.19 1.76-.24a3.09 3.09 0 011 0 1.15 1.15 0 011 1.24 1.13 1.13 0 01-1.07 1.15c-1.53.05-3.06.06-4.59 0-.69 0-1-.49-1.25-1.64-.26.22-.5.43-.75.62a8.27 8.27 0 01-11.87-2.57 11.3 11.3 0 01-1.46-6.68 10.71 10.71 0 012.89-6.95 8.53 8.53 0 019.31-1.95 15.93 15.93 0 011.75 1.09zm.19 8.51c-.13-1.2-.2-2.59-.43-4a4.29 4.29 0 00-3.19-3.69 5.8 5.8 0 00-6.34 2.24 8.73 8.73 0 00-1.67 4.86 8.63 8.63 0 001.64 6.12 5.42 5.42 0 005.89 2 5 5 0 003.82-4.39c.15-.98.22-1.98.28-3.17zM648.31 444.07c-.24 3.14 1.5 6.38 4.59 7.17a6.14 6.14 0 007.14-2.88 8.22 8.22 0 00.42-1.3 7.76 7.76 0 01.25-.82 1.26 1.26 0 011.4-.77 1.14 1.14 0 011 1.24 6 6 0 01-.3 1.56 8 8 0 01-7.24 5.47 8.65 8.65 0 01-7.56-2.93 9.4 9.4 0 01-2.16-5.11 12 12 0 011.39-7.81 8.36 8.36 0 018.43-4.33 8 8 0 017.26 5.95 9.8 9.8 0 01.41 2.59c.08 1.38-.52 2-1.92 2h-13.11zm12.35-2.43c.3-2.69-2.46-5.64-5.35-5.76-3.67-.16-6.88 2.55-6.79 5.76zM650.71 421c-.09 1.25-.89 1.88-1.8 1.51a1.55 1.55 0 01-.81-1.63c.08-1.83.14-3.67.17-5.5a12.36 12.36 0 00-.15-1.6 1.29 1.29 0 011.09-1.55 1.19 1.19 0 011.37 1.14 13.11 13.11 0 010 1.88 4.47 4.47 0 004.41 5 8 8 0 003.63-.35 3.4 3.4 0 002.46-3.64 1.87 1.87 0 00-1.26-1.82 32.26 32.26 0 00-3.49-.85c-1.27-.25-2.57-.38-3.84-.63-4-.8-4.8-5.42-2.58-8.06a6.73 6.73 0 014.94-2.46c2.36-.14 3.15.09 5.48 1.49a1.85 1.85 0 00.13-.29c.21-.78.69-1.16 1.33-1.06a1.29 1.29 0 011 1.49c-.06 1.8-.11 3.59-.15 5.39a7.77 7.77 0 010 1.08 1.12 1.12 0 01-1.23 1 1.16 1.16 0 01-1.15-1 2.48 2.48 0 010-.86 4.08 4.08 0 00-4-4.89 5.41 5.41 0 00-3.67.83 3 3 0 00-1.35 3.13 1.67 1.67 0 001.2 1.54c1.27.32 2.57.55 3.86.81s2.6.43 3.87.78c2.93.82 3.89 3.27 3.28 5.86-.65 2.77-2.65 4.17-5.28 4.72a9.22 9.22 0 01-7.46-1.46zM610.6 444.07a6.45 6.45 0 007.23 7.33 5.59 5.59 0 004.23-2.63 9.21 9.21 0 00.68-1.75c.07-.19.08-.41.15-.61a1.31 1.31 0 011.57-.93 1.28 1.28 0 01.87 1.54 7.49 7.49 0 01-4 5.67c-4.55 2.44-11.84 1.09-13.19-6.45a11.52 11.52 0 011.72-9 8.29 8.29 0 018.83-3.56c3.57.65 5.72 3 6.61 6.46a10.38 10.38 0 01.18 2.56 1.22 1.22 0 01-1.1 1.27 4.36 4.36 0 01-1 .1H610.6zm.13-2.43H623a6 6 0 00-5-5.74c-4.65-.5-6.78 2.66-7.27 5.74zM669 412.89c-.17 3.36 1.66 6.63 5 7.2 2.94.51 5.5-.39 6.83-3.08a8.23 8.23 0 00.43-1.41 3.23 3.23 0 01.25-.7 1.23 1.23 0 011.41-.62 1.11 1.11 0 01.88 1.18 6.61 6.61 0 01-1.65 4.08 8.45 8.45 0 01-7.69 3c-4.68-.38-7.47-4-7.92-8.11a11.71 11.71 0 011.87-8.48 8.36 8.36 0 019.06-3.4c3.47.73 5.53 3.09 6.35 6.51a9.67 9.67 0 01.19 2.28 1.37 1.37 0 01-1.35 1.49 12.09 12.09 0 01-1.21.07H669zm12.44-2.43a6 6 0 00-5.92-5.83 6.26 6.26 0 00-6.31 5.83zM702.6 452.16a4.27 4.27 0 01-.14.8 1.2 1.2 0 01-1.44.77 1.23 1.23 0 01-1-1.24c0-.71.12-1.41.12-2.12 0-1.7-.06-3.4-.09-5.1a4.34 4.34 0 010-1 1.09 1.09 0 011.14-.86 1 1 0 011.16.83 9.73 9.73 0 01.08 2.16 4.2 4.2 0 003.24 4.74 7.41 7.41 0 005-.17 3.33 3.33 0 002.31-3.51 1.9 1.9 0 00-1.28-1.87 40.4 40.4 0 00-4-.91c-1.12-.23-2.26-.36-3.39-.58a4.84 4.84 0 01-3-7.5 6.79 6.79 0 015.8-3.06 7.18 7.18 0 015 1.6l.14-.49a1.11 1.11 0 011.32-.91 1.15 1.15 0 011 1.22c0 .63-.13 1.25-.13 1.88v4.36a1.27 1.27 0 01-.86 1.39 1.25 1.25 0 01-1.6-1.44 8 8 0 00.1-1.54 3.92 3.92 0 00-3.33-3.6 5.71 5.71 0 00-4.07.52 3.1 3.1 0 00-1.65 3.31 1.75 1.75 0 001.23 1.58c1.06.3 2.15.51 3.23.72 1.39.26 2.82.38 4.17.75 3.37.91 4.71 4.05 3.16 7.19a5.89 5.89 0 01-3 2.85 9.71 9.71 0 01-8.37-.12 11.53 11.53 0 01-.85-.65zM628 412c0 3.41-.84 6-3 8.14-3.68 3.67-12 3.84-14.8-3.4a12 12 0 01-.29-8c1.25-4.15 4.76-6.49 9.39-6.33a8.93 8.93 0 018.31 7.18c.27.88.39 1.88.39 2.41zm-2.6.48a9.07 9.07 0 00-.62-3.54 6.35 6.35 0 00-5.78-4.27 6.11 6.11 0 00-6.23 3.72 9.87 9.87 0 00.23 8.49c2.14 4.33 7.78 4.11 10.22 1.61a7.84 7.84 0 002.22-6.04zM603.08 439.26a3.13 3.13 0 00-1.21-2.2c-2.16-1.87-6.93-1.7-9.07 1.34a8 8 0 00-1.5 4.39 14.75 14.75 0 00.26 3.64 6.15 6.15 0 006.55 5 5 5 0 004.81-2.74 7.21 7.21 0 00.51-1.86c.16-.85.61-1.32 1.34-1.27a1.25 1.25 0 011.16 1.39 6.25 6.25 0 01-1.89 4.48 7.32 7.32 0 01-5 2.29 9.43 9.43 0 01-6.72-1.8 9.05 9.05 0 01-3.47-6.37 11.42 11.42 0 011.7-8.13 8.84 8.84 0 018.71-3.85 7.42 7.42 0 014.9 2.36 5 5 0 011.27 4.94 2.87 2.87 0 01-3.31 2.17 2 2 0 01-1.69-2.37 1.83 1.83 0 012.35-1.5 3 3 0 01.3.09zM643.62 407.42a2.44 2.44 0 00-1.7-2.55 4.43 4.43 0 00-6 3.48 10.52 10.52 0 00-.25 2.16c0 2.75.05 5.51.11 8.26 0 .86.21 1 1.08 1h2a1.21 1.21 0 011.28 1.13 1.23 1.23 0 01-1.26 1.23c-.66 0-1.33-.08-2-.07-2.16 0-4.32 0-6.47.07a4.39 4.39 0 01-.63 0 1.16 1.16 0 01-1.16-1.19 1.19 1.19 0 011.2-1.15c.67-.05 1.34 0 2 0 .93 0 1.07-.11 1.14-1s.12-1.95.12-2.92v-9.77c0-1 0-1-1-1-.55 0-1.1.08-1.66.09a3 3 0 01-.95-.13 1.2 1.2 0 01.27-2.32h3.66c1.59-.1 1.77 0 2.45 1.4a6.59 6.59 0 013.45-1.7c2.68-.37 5 .29 6.36 2.42a4.87 4.87 0 010 5.17 2.72 2.72 0 01-3 1.11 1.9 1.9 0 01-1.34-2.44 1.76 1.76 0 012.12-1.29zM641.79 438.65a2.27 2.27 0 00-1.23-2.34 4.52 4.52 0 00-5.89 1.59 5.93 5.93 0 00-.72 2.45c-.09 3.26-.05 6.53 0 9.8 0 .68.22.82.9.83s1.07 0 1.61 0a4.23 4.23 0 01.79.08 1.15 1.15 0 01-.13 2.29c-1 0-1.91-.11-2.86-.11-1.63 0-3.25 0-4.87.07-.52 0-1 .08-1.55.05a1.13 1.13 0 01-1.1-1.06 1.09 1.09 0 01.92-1.2 21.31 21.31 0 012.34-.1c.82 0 1-.1 1-.9.09-1.41.17-2.82.19-4.23v-7.19c0-.57-.06-1.14-.09-1.71s-.21-.75-.75-.69-1.1.08-1.66.08a4.67 4.67 0 01-1.18-.1 1.13 1.13 0 01-.85-1.16 1.16 1.16 0 01.95-1.14 6.18 6.18 0 011.14 0c.92 0 1.84.08 2.75 0 1.48-.1 1.8.06 2.3 1.42a6.64 6.64 0 013.22-1.68c2.38-.43 4.58-.11 6.23 1.84a4.68 4.68 0 01.67 5.12 2.75 2.75 0 01-3.1 1.73 1.88 1.88 0 01-1.55-2.43 1.8 1.8 0 012.21-1.33zM690.54 402.68h3.57a4.91 4.91 0 01.86 0 1.17 1.17 0 011 1.14 1.11 1.11 0 01-1 1.23 5.3 5.3 0 01-1.26.06c-.91 0-1.83-.08-2.75-.14-.34 0-.46.1-.46.46v10a14.85 14.85 0 00.44 3.17c.28 1.16 1 1.57 2.21 1.56s1.85-.41 2.13-1.58a20.78 20.78 0 00.35-2.84c.06-.76 0-1.53.1-2.29a1.11 1.11 0 011.31-.93 1.14 1.14 0 011.1 1.06 17 17 0 01-.47 6c-.77 2.43-3 3.19-5.3 2.91s-3.73-1.74-4.19-4.22a16.35 16.35 0 01-.25-2.79v-9.72c0-.77 0-.77-.74-.71-.46 0-.92.09-1.38.1a1.91 1.91 0 01-.67-.1 1.19 1.19 0 01-.87-1.32 1.11 1.11 0 011.1-1 15.91 15.91 0 011.83.07c.75.06.94-.09 1-.83s0-1.68.09-2.52.66-1.33 1.42-1.21 1 .75 1 1.59-.11 1.91-.17 2.85zM693.56 438.81v9.59c0 .59.08 1.18.11 1.78a.76.76 0 00.88.81h2.07c.88.1 1.41.59 1.37 1.25s-.61 1.18-1.51 1.14c-1.34-.05-2.67-.2-4-.2-1.52 0-3.05.15-4.58.2-1 0-1.64-.7-1.35-1.55a1.21 1.21 0 011.15-.81h2.12c.7 0 .94-.11 1-.91s.13-1.91.13-2.86v-15.23c0-.68-.05-1.37-.07-2.06 0-.43-.23-.6-.66-.57-.8 0-1.6.11-2.4.12a1.19 1.19 0 01-1.3-.91 1.15 1.15 0 011-1.49h4.82a1.16 1.16 0 011.1 1 7.2 7.2 0 01.09 1.14v9.59zM719.62 427a3.47 3.47 0 11-2.44 1 3.3 3.3 0 012.44-1zm0 6.39a2.94 2.94 0 10-2.94-2.94 2.94 2.94 0 002.94 2.94zm1.38-3.85a.78.78 0 01-.5.79.89.89 0 01.28.74v.32c0 .16 0 .24.11.24s.11-.11.11-.33v-.3c0-.25.09-.38.28-.38a.26.26 0 01.29.3v.58a.63.63 0 01-.72.71.61.61 0 01-.68-.69v-.45q0-.29-.12-.36a.88.88 0 00-.43-.07h-.45v.72c0 .19 0 .28.13.28h.25c.17 0 .26.08.26.25s-.11.28-.33.28h-.35a.42.42 0 01-.14 0H718.2c-.21 0-.31-.09-.31-.26s.08-.27.26-.27h.24c.1 0 .15-.09.15-.26v-2a.89.89 0 000-.19.17.17 0 000-.05H718.2c-.18 0-.26-.09-.26-.27s.11-.27.33-.27h1.62c.71.02 1.11.33 1.11.97zm-1.88-.23v.73h.47c.51 0 .76-.17.76-.51s-.22-.44-.66-.44-.57.11-.57.25z"/><path class="cls-2" d="M575.09 431a23.85 23.85 0 01-5.1 14.62 26.39 26.39 0 01-9.23 7.58 25.32 25.32 0 01-8.43 2.63 24.14 24.14 0 01-14-2.2c-1-.5-1.95-1.16-2.95-1.72-.56-.31-.51-.84-.53-1.32a23.82 23.82 0 014.53-15.17 26.31 26.31 0 0110.5-8.69 23.87 23.87 0 018.1-2.29 31.11 31.11 0 014-.19 23.22 23.22 0 0111.37 3.32 8.39 8.39 0 001 .61 1.37 1.37 0 01.8 1.45z"/><path d="M529 436.11v1.63a.94.94 0 01-.39.56 18.54 18.54 0 01-8.56 3.26 21.92 21.92 0 01-21.5-10.87 19 19 0 01-2.49-11 1 1 0 01.37-.67 19.1 19.1 0 0112.86-3.36 21.45 21.45 0 0113.6 6.34 19.65 19.65 0 016.11 13.75 1.48 1.48 0 000 .21.77.77 0 000 .15z" fill="#516d75"/><path class="cls-4" d="M560.43 407.91c-.29 6.44-3.4 11.09-9 14.13a16.08 16.08 0 01-7.88 2 14.74 14.74 0 01-8.56-2.63 1 1 0 01-.4-.65 14.63 14.63 0 012.87-10 16.8 16.8 0 0112.74-7.15 15.08 15.08 0 019.61 2.4 1.12 1.12 0 01.63 1.15 6.77 6.77 0 00-.01.75z"/><path class="cls-2" d="M521.31 412.28a15.39 15.39 0 01-10.51-4.07 14.28 14.28 0 01-4.73-8.74 17 17 0 010-3c0-.18.21-.4.38-.52a13 13 0 015.87-2.25 15.1 15.1 0 0111.42 3.06 14.19 14.19 0 015.72 9.53 23.7 23.7 0 01.1 3 .68.68 0 01-.26.47 12.93 12.93 0 01-5.95 2.36c-.76.1-1.5.12-2.04.16z"/><path d="M539.86 402a10.31 10.31 0 01-5.05-1.57.83.83 0 01-.43-.76 9.88 9.88 0 017.51-9.68 9.38 9.38 0 017.5 1.05 1 1 0 01.51.89 9.84 9.84 0 01-7.21 9.53c-.92.27-1.89.36-2.83.54z" fill="#526d75"/><path class="cls-4" d="M533.37 388.48a8.26 8.26 0 01-.68 3.1.8.8 0 01-.64.53 9.51 9.51 0 01-10.73-6.31 8.85 8.85 0 01.14-6.52.83.83 0 01.72-.57 9.13 9.13 0 019.11 3.56 9.36 9.36 0 012.08 6.21z"/><path d="M533.06 451.68H533c-.85-.23-1.12-.73-1.12-1.66q.06-27.63 0-55.25c0-1.16 0-1.16 1.19-1.65z" fill="#653e32"/></g></g></svg>