<svg xmlns="http://www.w3.org/2000/svg" viewBox="0 0 783.45 347.09" width="783.45" height="347.09"><g data-name="Layer 2"><path d="M31.67 141.33l12.16 50.8 13-58.66q2-9.33 4.42-12.42t7.41-3.05c3.45 0 6 1.06 7.59 3.17s3.08 6.22 4.41 12.33l12.5 58.66 12.34-50.8a36.77 36.77 0 001.16-8.35v-.33q0-4.52-3.83-4.51a23 23 0 00-4.33.58 23.33 23.33 0 01-4.34.58q-6.16 0-6.16-5.5 0-5.83 8.16-5.83a17.28 17.28 0 012.5.19l6.84.93a65.78 65.78 0 008.33.38 65.41 65.41 0 008.66-.56l5.5-.75a6.91 6.91 0 011.84-.19q7.15 0 7.16 5.75 0 5.58-5.49 5.58a5.68 5.68 0 01-2.84-.58 30.31 30.31 0 00-3-.58q-4.5 0-9.33 18.62L105 189.87q-2 7.89-4.67 11A9.15 9.15 0 0193 204q-8.84 0-11.84-14l-12.5-59.34-13 58.2c-1.22 5.55-2.77 9.45-4.66 11.73a9.46 9.46 0 01-7.67 3.4q-7.83 0-10.5-10.35l-16-60.13q-1.5-5.34-4.66-5.34a10.23 10.23 0 00-3 .69 24.52 24.52 0 01-3.67.47q-5.5 0-5.5-5.41Q0 118 7.5 118a6.18 6.18 0 011.83.18l7.17 1.12a42.1 42.1 0 006.17.36 88.61 88.61 0 0010.66-.73q7.5-.93 8.67-.93 7.34 0 7.33 5.75 0 5.58-6.16 5.58a38.3 38.3 0 01-4.17-.39 12.52 12.52 0 00-4.17-.77q-4.33 0-4.33 5a35.78 35.78 0 001.17 8.16zM218 152.47q0 6.33-.83 7.75t-4.84 1.41h-53a4.63 4.63 0 00-2.84.59 2.44 2.44 0 00-.66 1.91q0 12.51 7.5 20.83a24.83 24.83 0 0032.08 4.34 18.31 18.31 0 007.91-10.17l1.5-4.83a5.17 5.17 0 015.5-4q6.17 0 6.17 6.33 0 10.85-11 19.25a40 40 0 01-25 8.42q-17.49 0-27.83-11.75T142.33 161q0-20.34 11-33T182 115.3q15.66 0 25.83 10.5T218 152.47zm-60.5-4.34q0 2.34 3.67 2.34H201c2.33 0 3.5-.78 3.5-2.34a20.7 20.7 0 00-6.67-15.33 21.71 21.71 0 00-15.66-6.5 25.11 25.11 0 00-17 6.75q-7.67 6.75-7.68 15.08zM259 131.9v51.75q.17 8.47 4.54 8.48a21.38 21.38 0 004.21-.83 20.87 20.87 0 012.69-.33q5.56 0 5.56 5.66 0 5.51-6.81 5.5a82.08 82.08 0 01-8.47-.67 85.57 85.57 0 00-9-.66 70.88 70.88 0 00-8 .66 69.06 69.06 0 01-7.81.67h-.83q-7 0-7-6 0-5.16 5.71-5.16h1.18a7.75 7.75 0 001.52.23 42.21 42.21 0 004.87.93q3 0 3.79-2.59t.92-13.47l.17-11.7v-55.7a51.27 51.27 0 00-.5-6.69q-1.17-3.84-4.66-3.84c-.34 0-1.78.22-4.34.66a16.79 16.79 0 01-3 .34q-5.65 0-5.66-5.34t6.66-5.5a26.21 26.21 0 013.17.17l4 .5a37.57 37.57 0 004.5.33 36.05 36.05 0 005-.5 37.55 37.55 0 015-.5q3.83 0 3.83 4.83a13.68 13.68 0 01-.17 2.49Q259 108.45 259 131.9zm54 0v51.75q.16 8.47 4.55 8.48a21.33 21.33 0 004.2-.83 21.16 21.16 0 012.7-.33q5.55 0 5.55 5.66 0 5.51-6.81 5.5a82.28 82.28 0 01-8.47-.67 85.21 85.21 0 00-9-.66 70.88 70.88 0 00-8 .66 68.74 68.74 0 01-7.8.67h-.83q-7 0-7-6 0-5.16 5.72-5.16h1.18a7.68 7.68 0 001.51.23 42.17 42.17 0 004.88.93c2 0 3.28-.86 3.78-2.59s.81-6.22.93-13.47l.17-11.7v-55.7a53.19 53.19 0 00-.5-6.69q-1.17-3.84-4.67-3.84c-.33 0-1.78.22-4.33.66a17 17 0 01-3 .34q-5.67 0-5.67-5.34t6.67-5.5a26 26 0 013.16.17l4 .5a37.43 37.43 0 004.49.33 35.92 35.92 0 005-.5 37.55 37.55 0 015-.5c2.56 0 3.83 1.61 3.83 4.83a13.88 13.88 0 01-.16 2.49Q313 108.45 313 131.9zm49.67-36.63q-1.5 13.79-1.67 32.73 5.34-7 10.86-9.83t13.87-2.84q16.71 0 26.57 11.67t9.86 31q0 21.17-10.41 33.75t-28.11 12.55q-17.16 0-24.83-12.84c.44 3.23.67 5 .67 5.34q0 6-5.84 6t-5.83-8.34V182.8l.84-12.83v-61.33c-.12-4.11-.53-6.89-1.25-8.34a3.86 3.86 0 00-3.75-2.16c-.34 0-1.78.22-4.34.66a17.42 17.42 0 01-3.16.34q-5.67 0-5.67-5.34t6.66-5.5a27.83 27.83 0 013.34.17l4 .5a27.68 27.68 0 009.5-.17 37.55 37.55 0 015-.5c2.44 0 3.67 1.55 3.67 4.65zm-.5 48.2a74 74 0 00-1.17 15q0 16.5 2.68 22.66 5.2 12.17 19.81 12.17a21.74 21.74 0 0018.37-9.09q6.8-9.08 6.8-24.41 0-15.66-6.46-24.58a20.71 20.71 0 00-17.71-8.92 22.78 22.78 0 00-14.26 4.92 21.13 21.13 0 00-8.08 12.25zm150.82 9q0 6.33-.84 7.75t-4.83 1.41h-53a4.63 4.63 0 00-2.84.59 2.44 2.44 0 00-.66 1.91q0 12.51 7.5 20.83a24.83 24.83 0 0032.08 4.34 18.31 18.31 0 007.91-10.17l1.5-4.83a5.17 5.17 0 015.5-4q6.17 0 6.17 6.33 0 10.85-11 19.25a40.07 40.07 0 01-25 8.42q-17.49 0-27.83-11.75T437.31 161q0-20.34 11-33T477 115.3q15.66 0 25.83 10.5T513 152.47zm-60.5-4.34q0 2.34 3.67 2.34H496c2.33 0 3.5-.78 3.5-2.34a20.7 20.7 0 00-6.67-15.33 21.71 21.71 0 00-15.66-6.5 25.13 25.13 0 00-17 6.75q-7.69 6.75-7.7 15.08zm102.33 5v21.67c0 5.56.06 8.83.17 9.83q.82 7.5 4.5 7.5a24.44 24.44 0 004.16-.83 7.19 7.19 0 012.5-.33q6.33 0 6.33 5.49a5 5 0 01-2.09 4 8.16 8.16 0 01-5.26 1.67 65.21 65.21 0 01-8.11-.75 65.54 65.54 0 00-8.11-.75 79.8 79.8 0 00-9.7.67q-6.53.82-8.7.83-6.69 0-6.69-5.67 0-5.49 5.72-5.49a23 23 0 014 .49 22.44 22.44 0 003.95.51q4 0 4.88-10.67v-42.66c-.56-7-2.24-10.5-5-10.5a17.45 17.45 0 00-3.79.58 17.16 17.16 0 01-3.61.58c-4 0-6.06-1.77-6.06-5.33q0-5.67 7.34-5.67a41.5 41.5 0 014.49.17c3.56.44 5.84.67 6.84.67a29.85 29.85 0 004.08-.42 29.85 29.85 0 014.08-.42q4.85 0 4.84 6.5c0 .45-.05 1.11-.14 2s-.13 1.56-.13 2q-.13 1.33-.27 10.33-.24 6.87-.24 14zm-8.67-43.66a9.39 9.39 0 01-9.33-9.33 8.72 8.72 0 012.75-6.5 9.46 9.46 0 0113.17 0 8.72 8.72 0 012.75 6.5 9.39 9.39 0 01-9.34 9.33zm61.34 13.75V128q10-12.66 26.66-12.67a33.62 33.62 0 0117 4.59q8 4.58 10.83 11.41 2.34 5.67 2.33 14.83v31.64q0 7.17.17 8.5.82 5.7 4.52 5.7a24 24 0 003.92-.42 23.25 23.25 0 013.41-.42 5.25 5.25 0 013.75 1.5 4.86 4.86 0 011.59 3.67 5.2 5.2 0 01-2 4.16 7.34 7.34 0 01-4.84 1.67 69.15 69.15 0 01-7.66-.67 81.75 81.75 0 00-10-.66 64 64 0 00-7.17.33c-5.55.67-8.5 1-8.83 1q-6.68 0-6.67-5.83c0-3.44 1.93-5.17 5.78-5.17a16.16 16.16 0 013.06.33 27.69 27.69 0 004.08.67q4.08 0 4.41-9.17v-31.36q0-8.82-.83-12.16a16.07 16.07 0 00-6.47-9.84A21.22 21.22 0 00632 125.8q-13.29 0-19.09 9.5-4 6.51-4 22.17v22.16c0 4.89.34 8.23 1 10a3.67 3.67 0 003.67 2.67 16.69 16.69 0 003.67-.58 16.42 16.42 0 013.83-.59c3.44 0 5.17 1.86 5.17 5.58s-2.23 5.42-6.67 5.42q-1.33 0-8.67-1a61.19 61.19 0 00-8.16-.5 87.76 87.76 0 00-9.34.67q-7.32.82-8.33.83-7 0-7-5.67 0-5.33 5.44-5.33a18.37 18.37 0 013.14.5 20.53 20.53 0 004.49.5q5.1 0 5.26-9.66V138q-.33-5.67-1.44-7.75a4 4 0 00-3.82-2.08 22 22 0 00-3.48.41 21 21 0 01-3.48.42q-6.11 0-6.11-5.34t7.5-5.49a7.15 7.15 0 011.67.16l6.16.67a22.92 22.92 0 004.67-.42c2.89-.27 4.39-.41 4.5-.41 3.27-.03 4.89 1.66 4.89 5.05zm122.65-7.92a42.28 42.28 0 019.84 1.34q.82-16.33 19-16.34a20.41 20.41 0 0112.84 4 12.35 12.35 0 015.18 10.17 9.78 9.78 0 01-2.58 6.83 8 8 0 01-6.08 2.84 6.7 6.7 0 01-4.67-1.84 5.71 5.71 0 01-2-4.33q0-2.67 3.67-5.5a8.38 8.38 0 00-6.84-3.33q-8.84 0-9 11 12.67 8.49 12.67 22.83a24.51 24.51 0 01-8.69 19.16q-8.7 7.68-21.72 7.67a47.27 47.27 0 01-19.06-4.33 11.73 11.73 0 00-4.51-1.17 5.5 5.5 0 00-4.18 2.08 7.23 7.23 0 00-1.84 4.92q0 8.67 17.54 8.66h6q15.87 0 25.73 3a31.42 31.42 0 0114.53 8.81 19.7 19.7 0 015.35 13.46q0 12.12-11.25 19.18t-30.42 7.06q-19.17 0-30.08-6.66t-10.91-18.34q0-13.5 15.16-19.16-13.66-5.34-13.67-16 0-11.67 13.67-16a22.27 22.27 0 01-4.33-13.67 23.75 23.75 0 018.75-18.83q8.76-7.51 21.88-7.51zm.67 75.67q-13.34 0-21 4t-7.67 10.83q0 6.82 7.5 10.75t20.17 3.91q13.34 0 21.08-4t7.75-10.66q0-7-7.33-10.92T730.79 191zm-.17-64.67a18.86 18.86 0 00-12.5 4.33 15.2 15.2 0 00-5.66 10.84v1a15.13 15.13 0 005 11.83q5 4.5 13 4.5 8.32 0 13.58-4.5a14.47 14.47 0 005.25-11.5A15 15 0 00744 131a19.56 19.56 0 00-13.38-4.7zM48.5 289.26q0-6.66 8.33-7.66a13 13 0 00-5.58-9.17Q46.5 269.1 39 269.1a22.15 22.15 0 00-18.5 9.16q-7 9.17-7 24.33 0 15.68 6.59 24.59t18.25 8.91a20.34 20.34 0 0012.74-4.16 21 21 0 007.42-11.5q1.66-5.83 2-6.67a5.79 5.79 0 015.33-3.33 6.26 6.26 0 016.5 6.5 25 25 0 01-2.66 10 34.74 34.74 0 01-6.34 9.66q-9.82 10.5-25.49 10.5-17 0-27.42-12T0 303.6q0-20.67 10.75-33.09t28.58-12.41q13.34 0 22.17 7.25a22.79 22.79 0 018.83 18.41 15.16 15.16 0 01-3.41 10.17 11 11 0 01-8.75 4 9.92 9.92 0 01-6.92-2.5 8 8 0 01-2.75-6.17zm77.33 57.83q-17.51 0-28-12.08t-10.5-32.42q0-20.32 10.58-32.41t28.42-12.08q18.17 0 28.66 11.83t10.5 32.16q0 20.34-10.83 32.67t-28.83 12.33zm.83-78q-11.67 0-18.33 8.16T101 300.43v2.16q0 15.68 6.58 24.59t18.42 8.91q12.15 0 19.08-8.91t6.92-24.75q0-33.33-25.34-33.33zm80.5 5.59v51.75q.17 8.49 4.54 8.49a21.68 21.68 0 004.21-.84 21.07 21.07 0 012.69-.33c3.7 0 5.56 1.89 5.56 5.67s-2.28 5.49-6.81 5.49a84.09 84.09 0 01-8.47-.66 86.14 86.14 0 00-9-.67 71.26 71.26 0 00-8 .67 70.9 70.9 0 01-7.81.66h-.83q-7 0-7-6 0-5.18 5.72-5.17h1.18a7 7 0 001.52.23 41 41 0 004.87.94 3.51 3.51 0 003.79-2.59q.75-2.59.92-13.47l.17-11.71v-55.67a50.93 50.93 0 00-.5-6.69c-.78-2.57-2.33-3.85-4.67-3.85-.33 0-1.78.23-4.33.67a17.6 17.6 0 01-3 .33c-3.78 0-5.67-1.77-5.67-5.33s2.23-5.5 6.67-5.5a26.42 26.42 0 013.17.16l4 .51a27.62 27.62 0 009.5-.17 35.78 35.78 0 015-.5q3.83 0 3.83 4.82a13.81 13.81 0 01-.17 2.5q-1.09 12.81-1.08 36.27zm54 0v51.75q.17 8.49 4.55 8.49a21.63 21.63 0 004.2-.84 21.16 21.16 0 012.7-.33q5.55 0 5.55 5.67 0 5.49-6.81 5.49a84.5 84.5 0 01-8.47-.66 86 86 0 00-9-.67 71.45 71.45 0 00-8 .67 70.58 70.58 0 01-7.8.66h-.83q-7 0-7-6 0-5.18 5.72-5.17h1.18a7 7 0 001.51.23 41 41 0 004.88.94c2 0 3.28-.87 3.78-2.59s.81-6.22.93-13.47l.17-11.71v-55.67a52.83 52.83 0 00-.5-6.69q-1.17-3.85-4.67-3.85c-.33 0-1.78.23-4.33.67a17.81 17.81 0 01-3 .33c-3.78 0-5.67-1.77-5.67-5.33s2.22-5.5 6.67-5.5a26.24 26.24 0 013.16.16l4 .51a27.62 27.62 0 009.5-.17 35.92 35.92 0 015-.5q3.84 0 3.84 4.82a13.81 13.81 0 01-.17 2.5q-1.1 12.81-1.1 36.27zm103.5 20.57q0 6.35-.84 7.75t-4.82 1.43h-53a4.63 4.63 0 00-2.83.58 2.42 2.42 0 00-.67 1.92q0 12.49 7.5 20.83a24.84 24.84 0 0032.08 4.33 18.28 18.28 0 007.92-10.16l1.5-4.84a5.17 5.17 0 015.5-4q6.16 0 6.16 6.34 0 10.83-11 19.24a40 40 0 01-25 8.42q-17.5 0-27.84-11.75T289 303.76q0-20.33 11-33t28.67-12.66q15.66 0 25.83 10.5t10.15 26.66zm-60.5-4.33c0 1.55 1.22 2.33 3.66 2.33h39.83c2.34 0 3.51-.78 3.51-2.33a20.72 20.72 0 00-6.67-15.33 21.7 21.7 0 00-15.67-6.5 25.13 25.13 0 00-17 6.75q-7.67 6.74-7.67 15.09zM428 289.26q0-6.66 8.34-7.66a13 13 0 00-5.59-9.17q-4.74-3.33-12.25-3.33a22.13 22.13 0 00-18.5 9.16q-7 9.17-7 24.33 0 15.68 6.58 24.59t18.25 8.91a20.35 20.35 0 0012.75-4.16 21 21 0 007.41-11.5q1.66-5.83 2-6.67a5.79 5.79 0 015.34-3.33 6.28 6.28 0 016.5 6.5 25 25 0 01-2.67 10 34.72 34.72 0 01-6.33 9.66q-9.84 10.5-25.5 10.5-17 0-27.42-12t-10.43-31.49q0-20.67 10.74-33.09t28.59-12.41q13.33 0 22.16 7.25a22.8 22.8 0 018.84 18.41 15.11 15.11 0 01-3.42 10.17 11 11 0 01-8.75 4 9.94 9.94 0 01-6.92-2.5 8 8 0 01-2.72-6.17zm85.33 32v-10.67q.16-6.82 6-6.83t5.83 7.67q0 18.17-4.63 25.33-6.29 9.66-20.69 9.67-13.24 0-18.87-8.5-4.14-6.17-4.14-21v-40q0-3.49-3.23-3.5h-5.46a6.2 6.2 0 01-4.52-1.75 5.73 5.73 0 01-1.79-4.25 5.92 5.92 0 011.75-4.17 5.33 5.33 0 013.92-1.83h6.5c1.89 0 2.83-1.05 2.83-3.17V241.1q0-6.33 6.5-6.33 6 0 6 6.33v17.83c0 1.67 1 2.5 3 2.5h18.17q6.33 0 6.33 5.83 0 6.17-6.83 6.17h-18.36c-1.56 0-2.34 1.17-2.34 3.5v41q0 17.49 11.66 17.5 11.84 0 12.34-14.17zm49.83-25.33v21.66q0 8.34.17 9.84.83 7.5 4.5 7.5a25.15 25.15 0 004.17-.84 7.09 7.09 0 012.49-.33q6.35 0 6.34 5.5a5 5 0 01-2.09 4 8.2 8.2 0 01-5.27 1.66 64.91 64.91 0 01-8.11-.74 63.45 63.45 0 00-8.11-.75 79.91 79.91 0 00-9.7.66 84.58 84.58 0 01-8.7.83q-6.69 0-6.68-5.66 0-5.5 5.71-5.5a23.21 23.21 0 013.95.5 23.3 23.3 0 004 .5q4 0 4.87-10.67v-42.66q-.84-10.5-5-10.5a17.45 17.45 0 00-3.79.58 17.33 17.33 0 01-3.61.59c-4 0-6.05-1.78-6.05-5.34q0-5.65 7.33-5.66a42.32 42.32 0 014.5.16q5.32.67 6.83.67a29.85 29.85 0 004.08-.42 31.25 31.25 0 014.09-.41c3.22 0 4.83 2.16 4.83 6.5 0 .44 0 1.11-.13 2s-.14 1.55-.14 2q-.13 1.33-.27 10.33-.23 6.84-.24 14zm-8.66-43.67a9.39 9.39 0 01-9.34-9.33 8.74 8.74 0 012.75-6.5 9.48 9.48 0 0113.17 0 8.74 8.74 0 012.75 6.5 9.39 9.39 0 01-9.33 9.33zm74.16 94.83q-17.5 0-28-12.08t-10.5-32.42q0-20.32 10.58-32.41t28.42-12.08q18.17 0 28.66 11.83t10.5 32.16q0 20.34-10.83 32.67t-28.86 12.33zm.83-78q-11.67 0-18.33 8.16t-7.33 23.17v2.16q0 15.68 6.58 24.59t18.42 8.91q12.15 0 19.08-8.91t6.91-24.75q-.03-33.32-25.36-33.32zm79.8-3.09v4.75q10-12.66 26.66-12.66a33.71 33.71 0 0117 4.58q8 4.59 10.83 11.41 2.34 5.69 2.34 14.84v31.66c0 4.78 0 7.62.17 8.5q.83 5.67 4.49 5.67a24 24 0 003.92-.42 24.23 24.23 0 013.42-.41 5.28 5.28 0 013.75 1.5 4.87 4.87 0 011.58 3.66 5.22 5.22 0 01-2 4.17 7.29 7.29 0 01-4.83 1.66 71.17 71.17 0 01-7.67-.66 81.85 81.85 0 00-10-.67 63.66 63.66 0 00-7.16.33c-5.56.67-8.5 1-8.84 1q-6.66 0-6.66-5.83 0-5.16 5.77-5.16a16.16 16.16 0 013.06.33 29.23 29.23 0 004.08.67q4.08 0 4.42-9.17v-31.32q0-8.83-.83-12.17a16.07 16.07 0 00-6.48-9.83 21.15 21.15 0 00-12.45-3.83q-13.27 0-19.09 9.5-4 6.5-4 22.16v22.17q0 7.33 1 10a3.65 3.65 0 003.66 2.66 16.1 16.1 0 003.67-.58 16.33 16.33 0 013.83-.58q5.17 0 5.17 5.58 0 5.42-6.67 5.41c-.89 0-3.77-.33-8.66-1a61.55 61.55 0 00-8.17-.49 87.31 87.31 0 00-9.33.66c-4.89.56-7.67.83-8.33.83q-7 0-7-5.66c0-3.56 1.81-5.33 5.43-5.33a17.38 17.38 0 013.14.5 21.25 21.25 0 004.5.5q5.09 0 5.26-9.67v-44.5c-.23-3.77-.71-6.36-1.44-7.75a4 4 0 00-3.82-2.08 20.85 20.85 0 00-3.48.42 20.83 20.83 0 01-3.48.41c-4.08 0-6.11-1.77-6.11-5.33s2.5-5.5 7.5-5.5a7 7 0 011.66.17l6.17.66a22.93 22.93 0 004.66-.41q4.34-.42 4.5-.42c3.25 0 4.86 1.7 4.86 5.07zM333 7h-13.5V0h35.28v7h-13.5v39.71H333zm35.28-7h8.29v18.79h18.92V0h8.29v46.71h-8.29V26H376.6v20.71h-8.29zm53.07 0h28.14v7h-19.83v11.93h16.79v7h-16.79v13.78h20.57v7h-28.85z" fill="#fff" data-name="Layer 1"/></g></svg>