<?xml version="1.0" encoding="utf-8"?>
<!-- Generator: Adobe Illustrator 22.1.0, SVG Export Plug-In . SVG Version: 6.00 Build 0)  -->
<svg version="1.1" id="Layer_1" xmlns="http://www.w3.org/2000/svg" xmlns:xlink="http://www.w3.org/1999/xlink" x="0px" y="0px"
	 width="369.6px" height="216.1px" viewBox="0 0 369.6 216.1" style="enable-background:new 0 0 369.6 216.1;" xml:space="preserve"
	>
<style type="text/css">
	.st0{fill:#FFFFFF;}
</style>
<g>
	<path class="st0" d="M14.9,69.4l5.7,24l6.1-27.7c0.6-2.9,1.3-4.9,2.1-5.9c0.8-1,1.9-1.5,3.5-1.5c1.6,0,2.8,0.5,3.6,1.5
		c0.8,1,1.5,2.9,2.1,5.8l5.9,27.7l5.8-24c0.4-1.5,0.6-2.8,0.6-3.9v-0.2c0-1.4-0.6-2.1-1.8-2.1c-0.5,0-1.2,0.1-2,0.3
		c-0.9,0.2-1.6,0.3-2,0.3c-1.9,0-2.9-0.9-2.9-2.6c0-1.8,1.3-2.8,3.9-2.8c0.4,0,0.8,0,1.2,0.1l3.2,0.4c0.8,0.1,2.1,0.2,3.9,0.2
		c1.4,0,2.8-0.1,4.1-0.3l2.6-0.4c0.2-0.1,0.5-0.1,0.9-0.1c2.3,0,3.4,0.9,3.4,2.7c0,1.8-0.9,2.6-2.6,2.6c-0.6,0-1-0.1-1.3-0.3
		c-0.8-0.2-1.3-0.3-1.4-0.3c-1.4,0-2.9,2.9-4.4,8.8l-5.3,20.3c-0.6,2.5-1.4,4.2-2.2,5.2c-0.8,1-2,1.5-3.5,1.5
		c-2.8,0-4.6-2.2-5.6-6.6l-5.9-28l-6.1,27.5c-0.6,2.6-1.3,4.5-2.2,5.5C23.2,98.5,22,99,20.4,99c-2.5,0-4.1-1.6-5-4.9L7.9,65.7
		c-0.5-1.7-1.2-2.5-2.2-2.5c-0.3,0-0.8,0.1-1.4,0.3c-0.8,0.1-1.4,0.2-1.7,0.2c-1.7,0-2.6-0.9-2.6-2.6c0-1.9,1.2-2.8,3.5-2.8
		c0.4,0,0.7,0,0.9,0.1L7.8,59c0.7,0.1,1.7,0.2,2.9,0.2c1.5,0,3.1-0.1,5-0.3c2.4-0.3,3.7-0.4,4.1-0.4c2.3,0,3.5,0.9,3.5,2.7
		c0,1.8-1,2.6-2.9,2.6c-0.4,0-1-0.1-2-0.2c-0.7-0.2-1.3-0.4-2-0.4c-1.4,0-2,0.8-2,2.4C14.4,66.6,14.6,67.9,14.9,69.4z"/>
	<path class="st0" d="M102.8,74.7c0,2-0.1,3.2-0.4,3.7c-0.3,0.4-1,0.7-2.3,0.7h-25c-0.7,0-1.1,0.1-1.3,0.3c-0.2,0.2-0.3,0.5-0.3,0.9
		c0,3.9,1.2,7.2,3.5,9.8c2.4,2.6,5.3,3.9,8.8,3.9c2.3,0,4.4-0.6,6.3-1.9c1.9-1.3,3.2-2.9,3.7-4.8l0.7-2.3c0.4-1.3,1.2-1.9,2.6-1.9
		c1.9,0,2.9,1,2.9,3c0,3.4-1.7,6.4-5.2,9.1c-3.5,2.6-7.4,4-11.8,4c-5.5,0-9.9-1.8-13.1-5.5c-3.3-3.7-4.9-8.7-4.9-14.9
		c0-6.4,1.7-11.6,5.2-15.6c3.5-4,8-6,13.5-6c4.9,0,9,1.7,12.2,5C101.2,65.4,102.8,69.6,102.8,74.7z M74.3,72.7
		c0,0.7,0.6,1.1,1.7,1.1h18.8c1.1,0,1.7-0.4,1.7-1.1c0-2.8-1-5.2-3.1-7.2c-2.1-2-4.6-3.1-7.4-3.1c-2.9,0-5.6,1.1-8,3.2
		C75.5,67.7,74.3,70,74.3,72.7z"/>
	<path class="st0" d="M122.2,65v24.4c0.1,2.7,0.8,4,2.1,4c0.3,0,1-0.1,2-0.4c0.6-0.1,1.1-0.2,1.3-0.2c1.7,0,2.6,0.9,2.6,2.7
		c0,1.7-1.1,2.6-3.2,2.6c-0.8,0-2.2-0.1-4-0.3s-3.2-0.3-4.2-0.3c-0.8,0-2.1,0.1-3.8,0.3c-1.7,0.2-2.9,0.3-3.7,0.3h-0.4
		c-2.2,0-3.3-0.9-3.3-2.8c0-1.6,0.9-2.4,2.7-2.4c0.1,0,0.3,0,0.6,0c0.3,0.1,0.6,0.1,0.7,0.1c1.3,0.3,2.1,0.4,2.3,0.4
		c1,0,1.5-0.4,1.8-1.2c0.2-0.8,0.4-2.9,0.4-6.4l0.1-5.5V68.1V54c-0.1-1.6-0.1-2.6-0.2-3.2c-0.4-1.2-1.1-1.8-2.2-1.8
		c-0.2,0-0.8,0.1-2,0.3c-0.6,0.1-1,0.2-1.4,0.2c-1.8,0-2.7-0.8-2.7-2.5c0-1.7,1-2.6,3.1-2.6c0.6,0,1.1,0,1.5,0.1l1.9,0.2
		c0.8,0.1,1.5,0.2,2.1,0.2c0.5,0,1.3-0.1,2.4-0.2c1-0.2,1.8-0.2,2.4-0.2c1.2,0,1.8,0.8,1.8,2.3c0,0.5,0,0.9-0.1,1.2
		C122.4,51.9,122.2,57.6,122.2,65z"/>
	<path class="st0" d="M147.6,65v24.4c0.1,2.7,0.8,4,2.1,4c0.3,0,1-0.1,2-0.4c0.6-0.1,1.1-0.2,1.3-0.2c1.7,0,2.6,0.9,2.6,2.7
		c0,1.7-1.1,2.6-3.2,2.6c-0.8,0-2.2-0.1-4-0.3s-3.2-0.3-4.2-0.3c-0.8,0-2.1,0.1-3.8,0.3c-1.7,0.2-2.9,0.3-3.7,0.3h-0.4
		c-2.2,0-3.3-0.9-3.3-2.8c0-1.6,0.9-2.4,2.7-2.4c0.1,0,0.3,0,0.6,0c0.3,0.1,0.6,0.1,0.7,0.1c1.3,0.3,2.1,0.4,2.3,0.4
		c1,0,1.5-0.4,1.8-1.2c0.2-0.8,0.4-2.9,0.4-6.4l0.1-5.5V68.1V54c-0.1-1.6-0.1-2.6-0.2-3.2c-0.4-1.2-1.1-1.8-2.2-1.8
		c-0.2,0-0.8,0.1-2,0.3c-0.6,0.1-1,0.2-1.4,0.2c-1.8,0-2.7-0.8-2.7-2.5c0-1.7,1-2.6,3.1-2.6c0.6,0,1.1,0,1.5,0.1l1.9,0.2
		c0.8,0.1,1.5,0.2,2.1,0.2c0.5,0,1.3-0.1,2.4-0.2c1-0.2,1.8-0.2,2.4-0.2c1.2,0,1.8,0.8,1.8,2.3c0,0.5,0,0.9-0.1,1.2
		C147.8,51.9,147.6,57.6,147.6,65z"/>
	<path class="st0" d="M171.1,47.7c-0.5,4.3-0.7,9.5-0.8,15.4c1.7-2.2,3.4-3.7,5.1-4.6c1.7-0.9,3.9-1.3,6.5-1.3
		c5.3,0,9.4,1.8,12.5,5.5c3.1,3.7,4.7,8.5,4.7,14.6c0,6.7-1.6,12-4.9,15.9c-3.3,4-7.7,5.9-13.2,5.9c-5.4,0-9.3-2-11.7-6.1
		c0.2,1.5,0.3,2.4,0.3,2.5c0,1.9-0.9,2.8-2.8,2.8c-1.8,0-2.8-1.3-2.8-3.9c0-0.7,0-1.3,0-1.7c0-1.2,0-2.5,0-3.9l0.4-6.1V75V54
		c-0.1-1.9-0.2-3.2-0.6-3.9c-0.3-0.7-0.9-1-1.8-1c-0.2,0-0.8,0.1-2,0.3c-0.6,0.1-1.1,0.2-1.5,0.2c-1.8,0-2.7-0.8-2.7-2.5
		c0-1.7,1-2.6,3.1-2.6c0.6,0,1.2,0,1.6,0.1l1.9,0.2c0.8,0.1,1.5,0.2,2,0.2c0.6,0,1.4-0.1,2.4-0.2c1-0.2,1.8-0.2,2.4-0.2
		c1.2,0,1.7,0.7,1.7,2.2V47.7z M170.8,70.5c-0.4,1.7-0.6,4-0.6,7.1c0,5.2,0.4,8.8,1.3,10.7c1.6,3.8,4.8,5.7,9.3,5.7
		c3.6,0,6.5-1.4,8.7-4.3c2.1-2.9,3.2-6.7,3.2-11.5c0-4.9-1-8.8-3-11.6c-2-2.8-4.8-4.2-8.4-4.2c-2.5,0-4.7,0.8-6.7,2.3
		C172.6,66.2,171.4,68.1,170.8,70.5z"/>
	<path class="st0" d="M242,74.7c0,2-0.1,3.2-0.4,3.7c-0.3,0.4-1,0.7-2.3,0.7h-25c-0.7,0-1.1,0.1-1.3,0.3c-0.2,0.2-0.3,0.5-0.3,0.9
		c0,3.9,1.2,7.2,3.5,9.8c2.4,2.6,5.3,3.9,8.8,3.9c2.3,0,4.4-0.6,6.3-1.9c1.9-1.3,3.2-2.9,3.7-4.8l0.7-2.3c0.4-1.3,1.2-1.9,2.6-1.9
		c1.9,0,2.9,1,2.9,3c0,3.4-1.7,6.4-5.2,9.1c-3.5,2.6-7.4,4-11.8,4c-5.5,0-9.9-1.8-13.1-5.5c-3.2-3.7-4.9-8.7-4.9-14.9
		c0-6.4,1.7-11.6,5.2-15.6c3.5-4,8-6,13.5-6c4.9,0,9,1.7,12.2,5C240.4,65.4,242,69.6,242,74.7z M213.4,72.7c0,0.7,0.6,1.1,1.7,1.1
		H234c1.1,0,1.7-0.4,1.7-1.1c0-2.8-1-5.2-3.1-7.2c-2.1-2-4.6-3.1-7.4-3.1c-2.9,0-5.6,1.1-8,3.2C214.6,67.7,213.4,70,213.4,72.7z"/>
	<path class="st0" d="M261.7,75v10.2c0,2.6,0,4.2,0.1,4.6c0.3,2.4,1,3.5,2.1,3.5c0.3,0,0.9-0.1,2-0.4c0.3-0.1,0.7-0.2,1.2-0.2
		c2,0,3,0.9,3,2.6c0,0.7-0.3,1.4-1,1.9s-1.5,0.8-2.5,0.8c-0.8,0-2.1-0.1-3.8-0.4c-1.7-0.2-3-0.4-3.8-0.4c-1.4,0-2.9,0.1-4.6,0.3
		c-2.1,0.3-3.4,0.4-4.1,0.4c-2.1,0-3.2-0.9-3.2-2.7c0-1.7,0.9-2.6,2.7-2.6c0.4,0,1,0.1,1.9,0.2c0.8,0.2,1.4,0.2,1.9,0.2
		c1.3,0,2-1.7,2.3-5c0-0.2,0-2.5,0-6.8V75c0-4.3,0-6.6,0-6.8c-0.3-3.3-1.1-5-2.4-5c-0.4,0-1,0.1-1.8,0.3c-0.8,0.2-1.3,0.3-1.7,0.3
		c-1.9,0-2.9-0.8-2.9-2.5c0-1.8,1.2-2.7,3.5-2.7c1,0,1.7,0,2.1,0.1c1.7,0.2,2.8,0.3,3.2,0.3c0.4,0,1.1-0.1,1.9-0.2
		c0.9-0.1,1.5-0.2,1.9-0.2c1.5,0,2.3,1,2.3,3.1c0,0.2,0,0.5-0.1,0.9c0,0.4-0.1,0.7-0.1,0.9c0,0.4-0.1,2-0.1,4.9
		C261.7,70.6,261.7,72.8,261.7,75z M257.6,54.4c-1.2,0-2.2-0.4-3.1-1.3c-0.9-0.9-1.3-1.9-1.3-3.1c0-1.2,0.4-2.2,1.3-3.1
		c0.9-0.8,1.9-1.3,3.1-1.3c1.2,0,2.2,0.4,3.1,1.3c0.9,0.8,1.3,1.9,1.3,3.1c0,1.2-0.4,2.2-1.3,3.1C259.9,54,258.8,54.4,257.6,54.4z"
		/>
	<path class="st0" d="M286.6,60.9v2.2c3.1-4,7.3-6,12.6-6c2.8,0,5.5,0.7,8,2.2c2.5,1.4,4.2,3.2,5.1,5.4c0.7,1.8,1.1,4.1,1.1,7v14.9
		c0,2.3,0,3.6,0.1,4c0.3,1.8,1,2.7,2.1,2.7c0.5,0,1.1-0.1,1.8-0.2c0.8-0.1,1.3-0.2,1.6-0.2c0.7,0,1.3,0.2,1.8,0.7
		c0.5,0.5,0.7,1,0.7,1.7c0,0.8-0.3,1.4-0.9,2s-1.4,0.8-2.3,0.8c-0.7,0-1.9-0.1-3.6-0.3c-1.7-0.2-3.3-0.3-4.7-0.3
		c-1.4,0-2.5,0.1-3.4,0.2c-2.6,0.3-4,0.5-4.2,0.5c-2.1,0-3.1-0.9-3.1-2.8c0-1.6,0.9-2.4,2.7-2.4c0.4,0,0.9,0.1,1.4,0.2
		c1,0.2,1.7,0.3,1.9,0.3c1.3,0,2-1.4,2.1-4.3v-4v-4.8v-6c0-2.8-0.1-4.7-0.4-5.7c-0.5-2-1.5-3.5-3.1-4.6c-1.7-1.2-3.7-1.8-5.9-1.8
		c-4.2,0-7.2,1.5-9,4.5c-1.3,2-1.9,5.5-1.9,10.5v10.5c0,2.3,0.2,3.9,0.5,4.7c0.3,0.8,0.9,1.3,1.7,1.3c0.4,0,1-0.1,1.7-0.3
		c0.7-0.2,1.3-0.3,1.8-0.3c1.6,0,2.4,0.9,2.4,2.6c0,1.7-1,2.6-3.1,2.6c-0.4,0-1.8-0.2-4.1-0.5c-1.2-0.2-2.4-0.2-3.9-0.2
		c-1.1,0-2.6,0.1-4.4,0.3c-2.3,0.3-3.6,0.4-3.9,0.4c-2.2,0-3.3-0.9-3.3-2.7c0-1.7,0.9-2.5,2.6-2.5c0.3,0,0.8,0.1,1.5,0.2
		c0.7,0.2,1.4,0.2,2.1,0.2c1.6,0,2.4-1.5,2.5-4.6v-8.7v-9.5v-2.8c-0.1-1.8-0.3-3-0.7-3.7c-0.3-0.7-0.9-1-1.8-1
		c-0.4,0-0.9,0.1-1.6,0.2c-0.7,0.1-1.3,0.2-1.6,0.2c-1.9,0-2.9-0.8-2.9-2.5c0-1.7,1.2-2.6,3.5-2.6c0.3,0,0.6,0,0.8,0.1l2.9,0.3
		c0.8,0,1.6-0.1,2.2-0.2c1.4-0.1,2.1-0.2,2.1-0.2C285.8,58.5,286.6,59.3,286.6,60.9z"/>
	<path class="st0" d="M344.4,57.2c1.4,0,2.9,0.2,4.6,0.6c0.3-5.1,3.2-7.7,9-7.7c2.4,0,4.4,0.6,6.1,1.9c1.6,1.3,2.4,2.9,2.4,4.8
		c0,1.3-0.4,2.3-1.2,3.2c-0.8,0.9-1.8,1.3-2.9,1.3c-0.8,0-1.6-0.3-2.2-0.9c-0.6-0.6-0.9-1.3-0.9-2c0-0.8,0.6-1.7,1.7-2.6
		c-0.8-1-1.9-1.6-3.2-1.6c-2.8,0-4.2,1.7-4.2,5.2c4,2.7,6,6.3,6,10.8c0,3.6-1.4,6.6-4.1,9c-2.7,2.4-6.1,3.6-10.2,3.6
		c-2.9,0-5.9-0.7-9-2c-0.8-0.4-1.6-0.6-2.1-0.6c-0.7,0-1.4,0.3-2,1c-0.6,0.7-0.9,1.4-0.9,2.3c0,2.7,2.8,4.1,8.3,4.1h0.5
		c0.4,0,0.9,0,1.4,0c0.5,0,0.8,0,0.9,0c5,0,9,0.5,12.1,1.4c2.9,0.9,5.2,2.3,6.9,4.2c1.7,1.9,2.5,4,2.5,6.3c0,3.8-1.8,6.8-5.3,9.1
		c-3.5,2.2-8.3,3.3-14.3,3.3c-6,0-10.8-1-14.2-3.1c-3.4-2.1-5.1-5-5.1-8.6c0-4.2,2.4-7.3,7.2-9c-4.3-1.7-6.4-4.2-6.4-7.5
		c0-3.7,2.1-6.2,6.4-7.5c-1.4-1.8-2-4-2-6.4c0-3.6,1.4-6.5,4.1-8.9C336.8,58.3,340.3,57.2,344.4,57.2z M344.7,92.9
		c-4.2,0-7.5,0.6-9.9,1.9c-2.4,1.3-3.6,3-3.6,5.1s1.2,3.8,3.5,5.1s5.5,1.8,9.5,1.8c4.2,0,7.5-0.6,9.9-1.9c2.4-1.3,3.7-2.9,3.7-5
		c0-2.2-1.2-3.9-3.5-5.1C352.1,93.5,348.9,92.9,344.7,92.9z M344.7,62.4c-2.3,0-4.3,0.7-5.9,2c-1.6,1.4-2.5,3.1-2.7,5.1V70
		c0,2.3,0.8,4.2,2.4,5.6s3.6,2.1,6.1,2.1c2.6,0,4.8-0.7,6.4-2.1c1.7-1.4,2.5-3.2,2.5-5.4c0-2.3-0.8-4.1-2.5-5.6
		C349.3,63.1,347.2,62.4,344.7,62.4z"/>
	<path class="st0" d="M22.9,142.5c0-2.1,1.3-3.3,3.9-3.6c-0.3-1.8-1.1-3.3-2.6-4.3c-1.5-1-3.4-1.6-5.8-1.6c-3.6,0-6.5,1.4-8.7,4.3
		c-2.2,2.9-3.3,6.7-3.3,11.5c0,4.9,1,8.8,3.1,11.6c2.1,2.8,4.9,4.2,8.6,4.2c2.3,0,4.3-0.7,6-2c1.7-1.3,2.9-3.1,3.5-5.4
		c0.5-1.8,0.8-2.9,0.9-3.1c0.6-1,1.4-1.6,2.5-1.6c0.9,0,1.6,0.3,2.2,0.9c0.6,0.6,0.9,1.3,0.9,2.2c0,1.3-0.4,2.9-1.3,4.7
		c-0.8,1.8-1.8,3.4-3,4.6c-3.1,3.3-7.1,5-12,5c-5.3,0-9.7-1.9-12.9-5.7S0,155.4,0,149.2c0-6.5,1.7-11.7,5.1-15.6
		c3.4-3.9,7.9-5.9,13.5-5.9c4.2,0,7.7,1.1,10.5,3.4c2.8,2.3,4.2,5.2,4.2,8.7c0,1.9-0.5,3.5-1.6,4.8c-1.1,1.3-2.5,1.9-4.1,1.9
		c-1.3,0-2.4-0.4-3.3-1.2C23.3,144.6,22.9,143.6,22.9,142.5z"/>
	<path class="st0" d="M59.4,169.8c-5.5,0-9.9-1.9-13.2-5.7c-3.3-3.8-5-8.9-5-15.3c0-6.4,1.7-11.5,5-15.3c3.3-3.8,7.8-5.7,13.4-5.7
		c5.7,0,10.2,1.9,13.5,5.6c3.3,3.7,5,8.8,5,15.2c0,6.4-1.7,11.5-5.1,15.4C69.5,167.8,65,169.8,59.4,169.8z M59.7,133
		c-3.7,0-6.6,1.3-8.6,3.9c-2.1,2.6-3.2,6.2-3.5,10.9v1c0,4.9,1,8.8,3.1,11.6c2.1,2.8,5,4.2,8.7,4.2c3.8,0,6.8-1.4,9-4.2
		c2.2-2.8,3.3-6.7,3.3-11.7C71.7,138.2,67.7,133,59.7,133z"/>
	<path class="st0" d="M97.7,135.6V160c0.1,2.7,0.8,4,2.1,4c0.3,0,1-0.1,2-0.4c0.6-0.1,1.1-0.2,1.3-0.2c1.7,0,2.6,0.9,2.6,2.7
		c0,1.7-1.1,2.6-3.2,2.6c-0.8,0-2.2-0.1-4-0.3s-3.2-0.3-4.2-0.3c-0.8,0-2.1,0.1-3.8,0.3c-1.7,0.2-2.9,0.3-3.7,0.3h-0.4
		c-2.2,0-3.3-0.9-3.3-2.8c0-1.6,0.9-2.4,2.7-2.4c0.1,0,0.3,0,0.6,0c0.3,0.1,0.6,0.1,0.7,0.1c1.3,0.3,2.1,0.4,2.3,0.4
		c1,0,1.5-0.4,1.8-1.2s0.4-2.9,0.4-6.4l0.1-5.5v-12.2v-14c-0.1-1.6-0.1-2.6-0.2-3.2c-0.4-1.2-1.1-1.8-2.2-1.8c-0.2,0-0.8,0.1-2,0.3
		c-0.6,0.1-1,0.2-1.4,0.2c-1.8,0-2.7-0.8-2.7-2.5c0-1.7,1-2.6,3.1-2.6c0.6,0,1.1,0,1.5,0.1l1.9,0.2c0.8,0.1,1.5,0.2,2.1,0.2
		c0.5,0,1.3-0.1,2.4-0.2c1-0.2,1.8-0.2,2.4-0.2c1.2,0,1.8,0.8,1.8,2.3c0,0.5,0,0.9-0.1,1.2C97.9,122.5,97.7,128.2,97.7,135.6z"/>
	<path class="st0" d="M123.2,135.6V160c0.1,2.7,0.8,4,2.1,4c0.3,0,1-0.1,2-0.4c0.6-0.1,1.1-0.2,1.3-0.2c1.7,0,2.6,0.9,2.6,2.7
		c0,1.7-1.1,2.6-3.2,2.6c-0.8,0-2.2-0.1-4-0.3c-1.8-0.2-3.2-0.3-4.2-0.3c-0.8,0-2.1,0.1-3.8,0.3c-1.7,0.2-2.9,0.3-3.7,0.3h-0.4
		c-2.2,0-3.3-0.9-3.3-2.8c0-1.6,0.9-2.4,2.7-2.4c0.1,0,0.3,0,0.6,0c0.3,0.1,0.6,0.1,0.7,0.1c1.3,0.3,2.1,0.4,2.3,0.4
		c1,0,1.5-0.4,1.8-1.2s0.4-2.9,0.4-6.4l0.1-5.5v-12.2v-14c-0.1-1.6-0.1-2.6-0.2-3.2c-0.4-1.2-1.1-1.8-2.2-1.8c-0.2,0-0.8,0.1-2,0.3
		c-0.6,0.1-1,0.2-1.4,0.2c-1.8,0-2.7-0.8-2.7-2.5c0-1.7,1-2.6,3.1-2.6c0.6,0,1.1,0,1.5,0.1l1.9,0.2c0.8,0.1,1.5,0.2,2.1,0.2
		c0.5,0,1.3-0.1,2.4-0.2c1-0.2,1.8-0.2,2.4-0.2c1.2,0,1.8,0.8,1.8,2.3c0,0.5,0,0.9-0.1,1.2C123.4,122.5,123.2,128.2,123.2,135.6z"/>
	<path class="st0" d="M172,145.3c0,2-0.1,3.2-0.4,3.7c-0.3,0.4-1,0.7-2.3,0.7h-25c-0.7,0-1.1,0.1-1.3,0.3c-0.2,0.2-0.3,0.5-0.3,0.9
		c0,3.9,1.2,7.2,3.5,9.8c2.4,2.6,5.3,3.9,8.8,3.9c2.3,0,4.4-0.6,6.3-1.9c1.9-1.3,3.2-2.9,3.7-4.8l0.7-2.3c0.4-1.3,1.2-1.9,2.6-1.9
		c1.9,0,2.9,1,2.9,3c0,3.4-1.7,6.4-5.2,9.1c-3.5,2.6-7.4,4-11.8,4c-5.5,0-9.9-1.8-13.1-5.5c-3.3-3.7-4.9-8.7-4.9-14.9
		c0-6.4,1.7-11.6,5.2-15.6c3.5-4,8-6,13.5-6c4.9,0,9,1.7,12.2,5C170.4,136,172,140.2,172,145.3z M143.5,143.3c0,0.7,0.6,1.1,1.7,1.1
		H164c1.1,0,1.7-0.4,1.7-1.1c0-2.8-1-5.2-3.1-7.2c-2.1-2-4.6-3.1-7.4-3.1c-2.9,0-5.6,1.1-8,3.2C144.7,138.3,143.5,140.7,143.5,143.3
		z"/>
	<path class="st0" d="M201.9,142.5c0-2.1,1.3-3.3,3.9-3.6c-0.3-1.8-1.1-3.3-2.6-4.3c-1.5-1-3.4-1.6-5.8-1.6c-3.6,0-6.5,1.4-8.7,4.3
		c-2.2,2.9-3.3,6.7-3.3,11.5c0,4.9,1,8.8,3.1,11.6c2.1,2.8,4.9,4.2,8.6,4.2c2.3,0,4.3-0.7,6-2c1.7-1.3,2.9-3.1,3.5-5.4
		c0.5-1.8,0.8-2.9,0.9-3.1c0.6-1,1.4-1.6,2.5-1.6c0.9,0,1.6,0.3,2.2,0.9c0.6,0.6,0.9,1.3,0.9,2.2c0,1.3-0.4,2.9-1.3,4.7
		c-0.8,1.8-1.8,3.4-3,4.6c-3.1,3.3-7.1,5-12,5c-5.3,0-9.7-1.9-12.9-5.7c-3.3-3.8-4.9-8.7-4.9-14.9c0-6.5,1.7-11.7,5.1-15.6
		c3.4-3.9,7.9-5.9,13.5-5.9c4.2,0,7.7,1.1,10.5,3.4c2.8,2.3,4.2,5.2,4.2,8.7c0,1.9-0.5,3.5-1.6,4.8s-2.5,1.9-4.1,1.9
		c-1.3,0-2.4-0.4-3.3-1.2C202.3,144.6,201.9,143.6,201.9,142.5z"/>
	<path class="st0" d="M242.1,157.6v-5c0.1-2.1,1-3.2,2.8-3.2c1.8,0,2.8,1.2,2.8,3.6c0,5.7-0.7,9.7-2.2,11.9c-2,3-5.2,4.6-9.8,4.6
		c-4.2,0-7.1-1.3-8.9-4c-1.3-1.9-2-5.2-2-9.9v-18.9c0-1.1-0.5-1.7-1.5-1.7h-2.6c-0.9,0-1.6-0.3-2.1-0.8c-0.6-0.6-0.8-1.2-0.8-2
		c0-0.7,0.3-1.4,0.8-2c0.6-0.6,1.2-0.9,1.8-0.9h3.1c0.9,0,1.3-0.5,1.3-1.5v-8.1c0-2,1-3,3.1-3c1.9,0,2.8,1,2.8,3v8.4
		c0,0.8,0.5,1.2,1.4,1.2h8.6c2,0,3,0.9,3,2.8c0,1.9-1.1,2.9-3.2,2.9h-8.6c-0.7,0-1.1,0.5-1.1,1.7V156c0,5.5,1.8,8.3,5.5,8.3
		C240,164.3,242,162,242.1,157.6z"/>
	<path class="st0" d="M265.6,145.6v10.2c0,2.6,0,4.2,0.1,4.6c0.3,2.4,1,3.5,2.1,3.5c0.3,0,0.9-0.1,2-0.4c0.3-0.1,0.7-0.2,1.2-0.2
		c2,0,3,0.9,3,2.6c0,0.7-0.3,1.4-1,1.9s-1.5,0.8-2.5,0.8c-0.8,0-2.1-0.1-3.8-0.4c-1.7-0.2-3-0.4-3.8-0.4c-1.4,0-2.9,0.1-4.6,0.3
		c-2.1,0.3-3.4,0.4-4.1,0.4c-2.1,0-3.2-0.9-3.2-2.7c0-1.7,0.9-2.6,2.7-2.6c0.4,0,1,0.1,1.9,0.2c0.8,0.2,1.4,0.2,1.9,0.2
		c1.3,0,2-1.7,2.3-5c0-0.2,0-2.5,0-6.8v-6.4c0-4.3,0-6.6,0-6.8c-0.3-3.3-1.1-5-2.4-5c-0.4,0-1,0.1-1.8,0.3c-0.8,0.2-1.3,0.3-1.7,0.3
		c-1.9,0-2.9-0.8-2.9-2.5c0-1.8,1.2-2.7,3.5-2.7c1,0,1.7,0,2.1,0.1c1.7,0.2,2.8,0.3,3.2,0.3c0.4,0,1.1-0.1,1.9-0.2
		c0.9-0.1,1.5-0.2,1.9-0.2c1.5,0,2.3,1,2.3,3.1c0,0.2,0,0.5-0.1,0.9c0,0.4-0.1,0.7-0.1,0.9c0,0.4-0.1,2-0.1,4.9
		C265.7,141.2,265.6,143.4,265.6,145.6z M261.6,125c-1.2,0-2.2-0.4-3.1-1.3c-0.9-0.9-1.3-1.9-1.3-3.1c0-1.2,0.4-2.2,1.3-3.1
		c0.9-0.8,1.9-1.3,3.1-1.3c1.2,0,2.2,0.4,3.1,1.3c0.9,0.8,1.3,1.9,1.3,3.1c0,1.2-0.4,2.2-1.3,3.1C263.8,124.6,262.8,125,261.6,125z"
		/>
	<path class="st0" d="M296.5,169.8c-5.5,0-9.9-1.9-13.2-5.7c-3.3-3.8-5-8.9-5-15.3c0-6.4,1.7-11.5,5-15.3c3.3-3.8,7.8-5.7,13.4-5.7
		c5.7,0,10.2,1.9,13.5,5.6c3.3,3.7,5,8.8,5,15.2c0,6.4-1.7,11.5-5.1,15.4C306.7,167.8,302.2,169.8,296.5,169.8z M296.9,133
		c-3.7,0-6.6,1.3-8.6,3.9c-2.1,2.6-3.3,6.2-3.5,10.9v1c0,4.9,1,8.8,3.1,11.6c2.1,2.8,5,4.2,8.7,4.2c3.8,0,6.8-1.4,9-4.2
		c2.2-2.8,3.3-6.7,3.3-11.7C308.9,138.2,304.9,133,296.9,133z"/>
	<path class="st0" d="M334.6,131.5v2.2c3.1-4,7.3-6,12.6-6c2.8,0,5.5,0.7,8,2.2s4.2,3.2,5.1,5.4c0.7,1.8,1.1,4.1,1.1,7v14.9
		c0,2.3,0,3.6,0.1,4c0.3,1.8,1,2.7,2.1,2.7c0.5,0,1.1-0.1,1.8-0.2c0.8-0.1,1.3-0.2,1.6-0.2c0.7,0,1.3,0.2,1.8,0.7
		c0.5,0.5,0.7,1,0.7,1.7c0,0.8-0.3,1.4-0.9,2s-1.4,0.8-2.3,0.8c-0.7,0-1.9-0.1-3.6-0.3c-1.7-0.2-3.3-0.3-4.7-0.3
		c-1.4,0-2.5,0.1-3.4,0.2c-2.6,0.3-4,0.5-4.2,0.5c-2.1,0-3.1-0.9-3.1-2.8c0-1.6,0.9-2.4,2.7-2.4c0.4,0,0.9,0.1,1.4,0.2
		c1,0.2,1.7,0.3,1.9,0.3c1.3,0,2-1.4,2.1-4.3v-4v-4.8v-6c0-2.8-0.1-4.7-0.4-5.7c-0.5-2-1.5-3.5-3.1-4.6c-1.7-1.2-3.7-1.8-5.9-1.8
		c-4.2,0-7.2,1.5-9,4.5c-1.3,2-1.9,5.5-1.9,10.5v10.5c0,2.3,0.2,3.9,0.5,4.7c0.3,0.8,0.9,1.3,1.7,1.3c0.4,0,1-0.1,1.7-0.3
		c0.7-0.2,1.3-0.3,1.8-0.3c1.6,0,2.4,0.9,2.4,2.6c0,1.7-1,2.6-3.1,2.6c-0.4,0-1.8-0.2-4.1-0.5c-1.2-0.2-2.4-0.2-3.9-0.2
		c-1.1,0-2.6,0.1-4.4,0.3c-2.3,0.3-3.6,0.4-3.9,0.4c-2.2,0-3.3-0.9-3.3-2.7c0-1.7,0.9-2.5,2.6-2.5c0.3,0,0.8,0.1,1.5,0.2
		c0.7,0.2,1.4,0.2,2.1,0.2c1.6,0,2.4-1.5,2.5-4.6v-8.7v-9.5v-2.8c-0.1-1.8-0.3-3-0.7-3.7c-0.3-0.7-0.9-1-1.8-1
		c-0.4,0-0.9,0.1-1.6,0.2c-0.7,0.1-1.3,0.2-1.6,0.2c-1.9,0-2.9-0.8-2.9-2.5c0-1.7,1.2-2.6,3.5-2.6c0.3,0,0.6,0,0.8,0.1l2.9,0.3
		c0.8,0,1.6-0.1,2.2-0.2c1.4-0.1,2.1-0.2,2.1-0.2C333.8,129.1,334.6,129.9,334.6,131.5z"/>
</g>
<g>
	<g>
		<path class="st0" d="M160.6,2.8h-5.5V0h14.3v2.8H164v16h-3.3V2.8z"/>
		<path class="st0" d="M174.9,0h3.3v7.6h7.6V0h3.3v18.9h-3.3v-8.4h-7.6v8.4h-3.3V0z"/>
		<path class="st0" d="M196.3,0h11.4v2.8h-8v4.8h6.8v2.8h-6.8V16h8.3v2.8h-11.7V0z"/>
	</g>
	<path class="st0" d="M226.8,12.1c0,0.4,0,0.8,0.1,1.2c0.4,0.1,0.8,0.1,1.2,0.1c3.9,0,7.1-3.2,7.1-7.1c0-0.4,0-0.8-0.1-1.2
		C234.7,5,234.3,5,233.9,5C230,5,226.8,8.1,226.8,12.1z"/>
	<g>
		<path class="st0" d="M129,3.6c-0.4,0.2-0.7,0.4-1.1,0.6c0.1,0.4,0.3,0.8,0.4,1.2c1.7,3.5,5.9,5,9.4,3.3c0.4-0.2,0.7-0.4,1.1-0.6
			c-0.1-0.4-0.3-0.8-0.4-1.2C136.8,3.4,132.6,1.9,129,3.6z"/>
		<path class="st0" d="M127.6,15.1c-0.1,0.3-0.2,0.6-0.2,0.9c0.3,0.2,0.6,0.3,0.9,0.4c2.8,1,6-0.5,7-3.3c0.1-0.3,0.2-0.6,0.2-0.9
			c-0.3-0.2-0.6-0.3-0.9-0.4C131.8,10.7,128.7,12.2,127.6,15.1z"/>
	</g>
</g>
<g>
	<path class="st0" d="M195.1,216.1c0.9,0,1.7-0.1,2.5-0.2c0.1-0.8,0.2-1.7,0.2-2.5c0-8.1-6.5-14.6-14.6-14.6c-0.9,0-1.7,0.1-2.5,0.2
		c-0.1,0.8-0.2,1.7-0.2,2.5C180.5,209.6,187.1,216.1,195.1,216.1z"/>
	<path class="st0" d="M188.3,193.4c0.2-0.2,0.5-0.5,0.7-0.8c-0.2-0.3-0.4-0.5-0.7-0.8c-2.3-2.3-6-2.3-8.3,0
		c-0.2,0.2-0.5,0.5-0.7,0.8c0.2,0.3,0.4,0.5,0.7,0.8C182.3,195.7,186,195.7,188.3,193.4z"/>
	<path class="st0" d="M176.5,198.7c-0.2-0.5-0.4-0.9-0.7-1.3c-0.5,0.1-1,0.2-1.4,0.4c-4.4,1.7-6.6,6.7-4.9,11.1
		c0.2,0.5,0.4,0.9,0.7,1.3c0.5-0.1,1-0.2,1.4-0.4C176,208,178.2,203.1,176.5,198.7z"/>
</g>
</svg>
